FontdinerdotcomSwanky-Regular.ufo
<glyph name="exclam" format="1">
  <advance width="313"/>
  <unicode hex="0021"/>
  <outline>
    <contour>
      <point x="313" y="849" type="line"/>
      <point x="191" y="184" type="line"/>
      <point x="72" y="198" type="line"/>
      <point x="99" y="865" type="line"/>
    </contour>
    <contour>
      <point x="207" y="61" type="qcurve"/>
      <point x="207" y="43"/>
      <point x="190" y="16"/>
      <point x="164" y="-2"/>
      <point x="130" y="-10"/>
      <point x="114" y="-10" type="qcurve"/>
      <point x="98" y="-10"/>
      <point x="61" y="-1"/>
      <point x="30" y="19"/>
      <point x="10" y="47"/>
      <point x="10" y="67" type="qcurve"/>
      <point x="10" y="88"/>
      <point x="30" y="118"/>
      <point x="61" y="137"/>
      <point x="99" y="146"/>
      <point x="117" y="146" type="qcurve"/>
      <point x="134" y="146"/>
      <point x="167" y="133"/>
      <point x="192" y="111"/>
      <point x="207" y="79"/>
    </contour>
  </outline>
</glyph>
<glyph name="quotedbl" format="1">
  <advance width="378"/>
  <unicode hex="0022"/>
  <outline>
    <contour>
      <point x="368" y="677" type="line"/>
      <point x="343" y="407" type="line"/>
      <point x="228" y="409" type="line"/>
      <point x="206" y="677" type="line"/>
    </contour>
    <contour>
      <point x="172" y="677" type="line"/>
      <point x="147" y="407" type="line"/>
      <point x="33" y="409" type="line"/>
      <point x="10" y="677" type="line"/>
    </contour>
  </outline>
</glyph>
<glyph name="numbersign" format="1">
  <advance width="719"/>
  <unicode hex="0023"/>
  <outline>
    <contour>
      <point x="709" y="550" type="line"/>
      <point x="689" y="444" type="line"/>
      <point x="556" y="442" type="line"/>
      <point x="544" y="289" type="line"/>
      <point x="682" y="291" type="line"/>
      <point x="666" y="158" type="line"/>
      <point x="537" y="163" type="line"/>
      <point x="530" y="34" type="line"/>
      <point x="397" y="29" type="line"/>
      <point x="411" y="167" type="line"/>
      <point x="257" y="168" type="line"/>
      <point x="244" y="35" type="line"/>
      <point x="137" y="24" type="line"/>
      <point x="145" y="172" type="line"/>
      <point x="0" y="176" type="line"/>
      <point x="17" y="281" type="line"/>
      <point x="153" y="284" type="line"/>
      <point x="163" y="437" type="line"/>
      <point x="25" y="434" type="line"/>
      <point x="43" y="567" type="line"/>
      <point x="170" y="564" type="line"/>
      <point x="178" y="691" type="line"/>
      <point x="311" y="696" type="line"/>
      <point x="296" y="560" type="line"/>
      <point x="450" y="557" type="line"/>
      <point x="465" y="692" type="line"/>
      <point x="569" y="700" type="line"/>
      <point x="561" y="555" type="line"/>
    </contour>
    <contour>
      <point x="437" y="440" type="line"/>
      <point x="284" y="439" type="line"/>
      <point x="269" y="286" type="line"/>
      <point x="423" y="287" type="line"/>
    </contour>
  </outline>
</glyph>
<glyph name="dollar" format="1">
  <advance width="559"/>
  <unicode hex="0024"/>
  <outline>
    <contour>
      <point x="549" y="111"/>
      <point x="521" y="72"/>
      <point x="480" y="47" type="curve" smooth="yes"/>
      <point x="439" y="22"/>
      <point x="385" y="11"/>
      <point x="336" y="7" type="curve"/>
      <point x="338" y="-15"/>
      <point x="340" y="-37"/>
      <point x="343" y="-59" type="curve" smooth="yes"/>
      <point x="346" y="-81"/>
      <point x="348" y="-103"/>
      <point x="350" y="-124" type="curve"/>
      <point x="206" y="-127" type="line"/>
      <point x="208" y="-104"/>
      <point x="210" y="-80"/>
      <point x="213" y="-57" type="curve" smooth="yes"/>
      <point x="216" y="-34"/>
      <point x="218" y="-10"/>
      <point x="220" y="13" type="curve"/>
      <point x="177" y="22"/>
      <point x="128" y="37"/>
      <point x="93" y="62" type="curve"/>
      <point x="10" y="-35" type="line"/>
      <point x="41" y="279" type="line"/>
      <point x="65" y="228"/>
      <point x="102" y="181"/>
      <point x="148" y="147" type="curve" smooth="yes"/>
      <point x="194" y="113"/>
      <point x="249" y="91"/>
      <point x="306" y="91" type="curve" smooth="yes"/>
      <point x="321" y="91"/>
      <point x="343" y="93"/>
      <point x="361" y="100" type="curve" smooth="yes"/>
      <point x="379" y="107"/>
      <point x="393" y="118"/>
      <point x="393" y="138" type="curve" smooth="yes"/>
      <point x="393" y="162"/>
      <point x="364" y="181"/>
      <point x="332" y="197" type="curve"/>
      <point x="315" y="204"/>
      <point x="299" y="211"/>
      <point x="283" y="216" type="curve" smooth="yes"/>
      <point x="266" y="221"/>
      <point x="254" y="224"/>
      <point x="246" y="227" type="curve"/>
      <point x="199" y="242"/>
      <point x="140" y="265"/>
      <point x="93" y="299" type="curve" smooth="yes"/>
      <point x="45" y="333"/>
      <point x="10" y="377"/>
      <point x="10" y="436" type="curve" smooth="yes"/>
      <point x="10" y="487"/>
      <point x="33" y="528"/>
      <point x="68" y="558" type="curve" smooth="yes"/>
      <point x="103" y="588"/>
      <point x="149" y="606"/>
      <point x="194" y="613" type="curve"/>
      <point x="181" y="745" type="line"/>
      <point x="325" y="748" type="line"/>
      <point x="323" y="725"/>
      <point x="321" y="701"/>
      <point x="319" y="678" type="curve"/>
      <point x="316" y="655"/>
      <point x="314" y="631"/>
      <point x="312" y="608" type="curve"/>
      <point x="365" y="596"/>
      <point x="414" y="568"/>
      <point x="454" y="532" type="curve"/>
      <point x="517" y="654" type="line"/>
      <point x="504" y="332" type="line"/>
      <point x="480" y="379"/>
      <point x="442" y="428"/>
      <point x="397" y="465" type="curve" smooth="yes"/>
      <point x="352" y="502"/>
      <point x="298" y="528"/>
      <point x="242" y="528" type="curve" smooth="yes"/>
      <point x="226" y="528"/>
      <point x="203" y="525"/>
      <point x="185" y="517" type="curve" smooth="yes"/>
      <point x="167" y="509"/>
      <point x="152" y="495"/>
      <point x="152" y="474" type="curve" smooth="yes"/>
      <point x="152" y="447"/>
      <point x="175" y="429"/>
      <point x="203" y="415" type="curve" smooth="yes"/>
      <point x="216" y="408"/>
      <point x="230" y="402"/>
      <point x="245" y="397" type="curve" smooth="yes"/>
      <point x="260" y="392"/>
      <point x="272" y="388"/>
      <point x="281" y="385" type="curve" smooth="yes"/>
      <point x="332" y="368"/>
      <point x="398" y="348"/>
      <point x="453" y="316" type="curve" smooth="yes"/>
      <point x="508" y="283"/>
      <point x="549" y="238"/>
      <point x="549" y="171" type="curve" smooth="yes"/>
    </contour>
  </outline>
</glyph>
<glyph name="percent" format="1">
  <advance width="673"/>
  <unicode hex="0025"/>
  <outline>
    <contour>
      <point x="317" y="613" type="qcurve"/>
      <point x="317" y="580"/>
      <point x="292" y="527"/>
      <point x="249" y="491"/>
      <point x="192" y="472"/>
      <point x="161" y="472" type="qcurve"/>
      <point x="130" y="472"/>
      <point x="75" y="492"/>
      <point x="34" y="529"/>
      <point x="10" y="581"/>
      <point x="10" y="613" type="qcurve"/>
      <point x="10" y="649"/>
      <point x="36" y="701"/>
      <point x="79" y="735"/>
      <point x="137" y="751"/>
      <point x="170" y="751" type="qcurve"/>
      <point x="200" y="751"/>
      <point x="254" y="731"/>
      <point x="294" y="695"/>
      <point x="317" y="644"/>
    </contour>
    <contour>
      <point x="590" y="758" type="line"/>
      <point x="238" y="-49" type="line"/>
      <point x="130" y="-11" type="line"/>
      <point x="456" y="799" type="line"/>
    </contour>
    <contour>
      <point x="694" y="130" type="qcurve"/>
      <point x="694" y="97"/>
      <point x="669" y="45"/>
      <point x="626" y="9"/>
      <point x="569" y="-10"/>
      <point x="538" y="-10" type="qcurve"/>
      <point x="507" y="-10"/>
      <point x="452" y="10"/>
      <point x="411" y="46"/>
      <point x="387" y="98"/>
      <point x="387" y="130" type="qcurve"/>
      <point x="387" y="165"/>
      <point x="413" y="217"/>
      <point x="456" y="251"/>
      <point x="514" y="268"/>
      <point x="547" y="268" type="qcurve"/>
      <point x="577" y="268"/>
      <point x="631" y="248"/>
      <point x="671" y="212"/>
      <point x="694" y="161"/>
    </contour>
    <contour>
      <point x="211" y="614" type="qcurve"/>
      <point x="211" y="632"/>
      <point x="190" y="672"/>
      <point x="169" y="672" type="qcurve"/>
      <point x="145" y="672"/>
      <point x="117" y="638"/>
      <point x="117" y="615" type="qcurve"/>
      <point x="117" y="605"/>
      <point x="121" y="583"/>
      <point x="132" y="565"/>
      <point x="149" y="553"/>
      <point x="161" y="553" type="qcurve"/>
      <point x="190" y="553"/>
      <point x="211" y="589"/>
    </contour>
    <contour>
      <point x="589" y="131" type="qcurve"/>
      <point x="589" y="150"/>
      <point x="567" y="188"/>
      <point x="546" y="188" type="qcurve"/>
      <point x="523" y="188"/>
      <point x="494" y="155"/>
      <point x="494" y="132" type="qcurve"/>
      <point x="494" y="122"/>
      <point x="498" y="100"/>
      <point x="509" y="82"/>
      <point x="526" y="70"/>
      <point x="538" y="70" type="qcurve"/>
      <point x="566" y="70"/>
      <point x="589" y="105"/>
    </contour>
  </outline>
</glyph>
<glyph name="ampersand" format="1">
  <advance width="685"/>
  <unicode hex="0026"/>
  <outline>
    <contour>
      <point x="828" y="177" type="line"/>
      <point x="375" y="-128" type="line"/>
      <point x="467" y="34" type="line"/>
      <point x="445" y="63" type="line"/>
      <point x="382" y="27"/>
      <point x="303" y="-3"/>
      <point x="230" y="-3" type="curve" smooth="yes"/>
      <point x="179" y="-3"/>
      <point x="129" y="14"/>
      <point x="92" y="46" type="curve" smooth="yes"/>
      <point x="55" y="77"/>
      <point x="31" y="121"/>
      <point x="31" y="174" type="curve" smooth="yes"/>
      <point x="31" y="222"/>
      <point x="52" y="267"/>
      <point x="82" y="307" type="curve" smooth="yes"/>
      <point x="112" y="346"/>
      <point x="152" y="378"/>
      <point x="193" y="399" type="curve"/>
      <point x="122" y="493" type="line" smooth="yes"/>
      <point x="97" y="525"/>
      <point x="81" y="571"/>
      <point x="81" y="611" type="curve" smooth="yes"/>
      <point x="81" y="666"/>
      <point x="113" y="705"/>
      <point x="157" y="730" type="curve" smooth="yes"/>
      <point x="200" y="755"/>
      <point x="254" y="767"/>
      <point x="299" y="767" type="curve" smooth="yes"/>
      <point x="347" y="767"/>
      <point x="395" y="753"/>
      <point x="431" y="726" type="curve" smooth="yes"/>
      <point x="467" y="699"/>
      <point x="490" y="658"/>
      <point x="490" y="606" type="curve" smooth="yes"/>
      <point x="490" y="566"/>
      <point x="471" y="529"/>
      <point x="445" y="497" type="curve" smooth="yes"/>
      <point x="419" y="465"/>
      <point x="384" y="437"/>
      <point x="355" y="414" type="curve"/>
      <point x="511" y="222" type="line"/>
      <point x="526" y="247"/>
      <point x="536" y="274"/>
      <point x="536" y="303" type="curve" smooth="yes"/>
      <point x="536" y="323"/>
      <point x="530" y="349"/>
      <point x="523" y="375" type="curve"/>
      <point x="520" y="388"/>
      <point x="516" y="400"/>
      <point x="513" y="412" type="curve"/>
      <point x="509" y="424"/>
      <point x="506" y="435"/>
      <point x="503" y="444" type="curve"/>
      <point x="699" y="191" type="line"/>
      <point x="589" y="211" type="line"/>
      <point x="581" y="194"/>
      <point x="570" y="178"/>
      <point x="558" y="163" type="curve"/>
      <point x="586" y="129" type="line"/>
    </contour>
    <contour>
      <point x="370" y="611"/>
      <point x="363" y="639"/>
      <point x="350" y="661" type="curve" smooth="yes"/>
      <point x="337" y="683"/>
      <point x="317" y="698"/>
      <point x="290" y="698" type="curve" smooth="yes"/>
      <point x="270" y="698"/>
      <point x="251" y="689"/>
      <point x="236" y="676" type="curve" smooth="yes"/>
      <point x="221" y="663"/>
      <point x="211" y="644"/>
      <point x="211" y="624" type="curve" smooth="yes"/>
      <point x="211" y="608"/>
      <point x="215" y="587"/>
      <point x="226" y="574" type="curve" smooth="yes"/>
      <point x="309" y="472" type="line"/>
      <point x="322" y="484"/>
      <point x="338" y="504"/>
      <point x="350" y="525" type="curve" smooth="yes"/>
      <point x="362" y="545"/>
      <point x="370" y="568"/>
      <point x="370" y="588" type="curve" smooth="yes"/>
    </contour>
    <contour>
      <point x="240" y="336" type="line"/>
      <point x="211" y="305"/>
      <point x="185" y="267"/>
      <point x="185" y="224" type="curve" smooth="yes"/>
      <point x="185" y="189"/>
      <point x="202" y="161"/>
      <point x="227" y="141" type="curve" smooth="yes"/>
      <point x="251" y="121"/>
      <point x="284" y="110"/>
      <point x="316" y="110" type="curve" smooth="yes"/>
      <point x="345" y="110"/>
      <point x="371" y="116"/>
      <point x="396" y="127" type="curve"/>
    </contour>
  </outline>
</glyph>
<glyph name="quotesingle" format="1">
  <advance width="182"/>
  <unicode hex="0027"/>
  <outline>
    <contour>
      <point x="172" y="684" type="line"/>
      <point x="147" y="414" type="line"/>
      <point x="33" y="416" type="line"/>
      <point x="10" y="684" type="line"/>
    </contour>
  </outline>
</glyph>
<glyph name="parenleft" format="1">
  <advance width="394"/>
  <unicode hex="0028"/>
  <outline>
    <contour>
      <point x="404" y="-152" type="qcurve"/>
      <point x="310" y="-120"/>
      <point x="176" y="-28"/>
      <point x="91" y="99"/>
      <point x="51" y="263"/>
      <point x="51" y="366" type="qcurve"/>
      <point x="51" y="468"/>
      <point x="86" y="628"/>
      <point x="168" y="748"/>
      <point x="302" y="833"/>
      <point x="401" y="861" type="qcurve"/>
      <point x="348" y="805"/>
      <point x="272" y="702"/>
      <point x="224" y="591"/>
      <point x="202" y="463"/>
      <point x="202" y="384" type="qcurve"/>
      <point x="202" y="303"/>
      <point x="230" y="162"/>
      <point x="282" y="33"/>
      <point x="357" y="-90"/>
    </contour>
  </outline>
</glyph>
<glyph name="parenright" format="1">
  <advance width="384"/>
  <unicode hex="0029"/>
  <outline>
    <contour>
      <point x="343" y="229"/>
      <point x="318" y="120"/>
      <point x="261" y="36" type="curve" smooth="yes"/>
      <point x="204" y="-49"/>
      <point x="115" y="-109"/>
      <point x="-10" y="-152" type="curve"/>
      <point x="54" y="-69"/>
      <point x="104" y="12"/>
      <point x="139" y="98" type="curve" smooth="yes"/>
      <point x="174" y="184"/>
      <point x="193" y="276"/>
      <point x="193" y="384" type="curve" smooth="yes"/>
      <point x="193" y="489"/>
      <point x="178" y="573"/>
      <point x="146" y="647" type="curve" smooth="yes"/>
      <point x="114" y="721"/>
      <point x="64" y="786"/>
      <point x="-7" y="861" type="curve"/>
      <point x="125" y="824"/>
      <point x="212" y="768"/>
      <point x="267" y="688" type="curve" smooth="yes"/>
      <point x="322" y="608"/>
      <point x="343" y="502"/>
      <point x="343" y="366" type="curve" smooth="yes"/>
    </contour>
  </outline>
</glyph>
<glyph name="asterisk" format="1">
  <advance width="656"/>
  <unicode hex="002A"/>
  <outline>
    <contour>
      <point x="656" y="410" type="line"/>
      <point x="640" y="259" type="line"/>
      <point x="419" y="283" type="line"/>
      <point x="556" y="118" type="line"/>
      <point x="382" y="30" type="line"/>
      <point x="316" y="224" type="line"/>
      <point x="217" y="11" type="line"/>
      <point x="95" y="100" type="line"/>
      <point x="229" y="278" type="line"/>
      <point x="10" y="242" type="line"/>
      <point x="22" y="436" type="line"/>
      <point x="229" y="394" type="line"/>
      <point x="88" y="594" type="line"/>
      <point x="226" y="654" type="line"/>
      <point x="319" y="443" type="line"/>
      <point x="395" y="654" type="line"/>
      <point x="558" y="548" type="line"/>
      <point x="420" y="385" type="line"/>
    </contour>
  </outline>
</glyph>
<glyph name="plus" format="1">
  <advance width="622"/>
  <unicode hex="002B"/>
  <outline>
    <contour>
      <point x="611" y="410" type="line"/>
      <point x="603" y="283" type="line"/>
      <point x="380" y="278" type="line"/>
      <point x="370" y="37" type="line"/>
      <point x="242" y="45" type="line"/>
      <point x="236" y="273" type="line"/>
      <point x="10" y="268" type="line"/>
      <point x="16" y="435" type="line"/>
      <point x="233" y="427" type="line"/>
      <point x="227" y="639" type="line"/>
      <point x="395" y="633" type="line"/>
      <point x="386" y="420" type="line"/>
    </contour>
  </outline>
</glyph>
<glyph name="comma" format="1">
  <advance width="232"/>
  <unicode hex="002C"/>
  <outline>
    <contour>
      <point x="222" y="-17" type="qcurve"/>
      <point x="222" y="-46"/>
      <point x="205" y="-100"/>
      <point x="173" y="-147"/>
      <point x="130" y="-184"/>
      <point x="103" y="-196" type="qcurve"/>
      <point x="50" y="-219" type="line"/>
      <point x="65" y="-188"/>
      <point x="93" y="-126"/>
      <point x="100" y="-92" type="qcurve"/>
      <point x="83" y="-91"/>
      <point x="51" y="-83"/>
      <point x="25" y="-65"/>
      <point x="10" y="-38"/>
      <point x="10" y="-18" type="qcurve"/>
      <point x="10" y="4"/>
      <point x="29" y="38"/>
      <point x="59" y="62"/>
      <point x="98" y="74"/>
      <point x="118" y="74" type="qcurve"/>
      <point x="136" y="74"/>
      <point x="173" y="60"/>
      <point x="203" y="36"/>
      <point x="222" y="3"/>
    </contour>
  </outline>
</glyph>
<glyph name="hyphen" format="1">
  <advance width="563"/>
  <unicode hex="002D"/>
  <outline>
    <contour>
      <point x="502" y="419" type="line"/>
      <point x="494" y="282" type="line"/>
      <point x="61" y="265" type="line"/>
      <point x="67" y="446" type="line"/>
    </contour>
  </outline>
</glyph>
<glyph name="period" format="1">
  <advance width="232"/>
  <unicode hex="002E"/>
  <outline>
    <contour>
      <point x="222" y="-32"/>
      <point x="209" y="-53"/>
      <point x="190" y="-67" type="curve" smooth="yes"/>
      <point x="170" y="-81"/>
      <point x="144" y="-89"/>
      <point x="119" y="-89" type="curve" smooth="yes"/>
      <point x="95" y="-89"/>
      <point x="67" y="-82"/>
      <point x="46" y="-68" type="curve" smooth="yes"/>
      <point x="25" y="-54"/>
      <point x="10" y="-34"/>
      <point x="10" y="-6" type="curve" smooth="yes"/>
      <point x="10" y="23"/>
      <point x="24" y="46"/>
      <point x="45" y="62" type="curve" smooth="yes"/>
      <point x="65" y="77"/>
      <point x="91" y="85"/>
      <point x="118" y="85" type="curve" smooth="yes"/>
      <point x="142" y="85"/>
      <point x="168" y="76"/>
      <point x="188" y="60" type="curve" smooth="yes"/>
      <point x="208" y="44"/>
      <point x="222" y="21"/>
      <point x="222" y="-4" type="curve" smooth="yes"/>
    </contour>
  </outline>
</glyph>
<glyph name="slash" format="1">
  <advance width="615"/>
  <unicode hex="002F"/>
  <outline>
    <contour>
      <point x="646" y="806" type="line"/>
      <point x="98" y="-79" type="line"/>
      <point x="-31" y="-2" type="line"/>
      <point x="494" y="905" type="line"/>
    </contour>
  </outline>
</glyph>
<glyph name="zero" format="1">
  <advance width="758"/>
  <unicode hex="0030"/>
  <outline>
    <contour>
      <point x="737" y="328" type="qcurve"/>
      <point x="737" y="251"/>
      <point x="676" y="130"/>
      <point x="575" y="46"/>
      <point x="442" y="2"/>
      <point x="370" y="2" type="qcurve"/>
      <point x="298" y="2"/>
      <point x="171" y="48"/>
      <point x="76" y="132"/>
      <point x="20" y="252"/>
      <point x="20" y="327" type="qcurve"/>
      <point x="20" y="410"/>
      <point x="79" y="531"/>
      <point x="180" y="609"/>
      <point x="316" y="647"/>
      <point x="393" y="647" type="qcurve"/>
      <point x="463" y="647"/>
      <point x="589" y="602"/>
      <point x="682" y="520"/>
      <point x="737" y="401"/>
    </contour>
    <contour>
      <point x="563" y="329" type="qcurve"/>
      <point x="563" y="366"/>
      <point x="542" y="444"/>
      <point x="500" y="507"/>
      <point x="436" y="547"/>
      <point x="393" y="547" type="qcurve"/>
      <point x="348" y="547"/>
      <point x="274" y="513"/>
      <point x="220" y="454"/>
      <point x="191" y="376"/>
      <point x="191" y="333" type="qcurve"/>
      <point x="191" y="293"/>
      <point x="211" y="210"/>
      <point x="253" y="143"/>
      <point x="319" y="101"/>
      <point x="366" y="101" type="qcurve"/>
      <point x="418" y="101"/>
      <point x="493" y="137"/>
      <point x="541" y="199"/>
      <point x="563" y="282"/>
    </contour>
  </outline>
</glyph>
<glyph name="one" format="1">
  <advance width="516"/>
  <unicode hex="0031"/>
  <outline>
    <contour>
      <point x="578" y="-31" type="line"/>
      <point x="-17" y="-29" type="line"/>
      <point x="212" y="74" type="line"/>
      <point x="190" y="593" type="line"/>
      <point x="-72" y="647" type="line"/>
      <point x="379" y="745" type="line"/>
      <point x="358" y="72" type="line"/>
    </contour>
  </outline>
</glyph>
<glyph name="two" format="1">
  <advance width="654"/>
  <unicode hex="0032"/>
  <outline>
    <contour>
      <point x="624" y="515" type="qcurve"/>
      <point x="624" y="458"/>
      <point x="584" y="379"/>
      <point x="518" y="322"/>
      <point x="433" y="279"/>
      <point x="389" y="259" type="qcurve"/>
      <point x="360" y="246"/>
      <point x="304" y="215"/>
      <point x="254" y="176"/>
      <point x="213" y="129"/>
      <point x="198" y="99" type="qcurve"/>
      <point x="487" y="109" type="line"/>
      <point x="615" y="361" type="line"/>
      <point x="594" y="-34" type="line"/>
      <point x="-10" y="-9" type="line"/>
      <point x="-9" y="-3"/>
      <point x="-8" y="10"/>
      <point x="-7" y="17" type="qcurve"/>
      <point x="-1" y="69"/>
      <point x="62" y="165"/>
      <point x="151" y="246"/>
      <point x="255" y="310"/>
      <point x="301" y="330" type="qcurve"/>
      <point x="335" y="345"/>
      <point x="396" y="376"/>
      <point x="441" y="419"/>
      <point x="467" y="477"/>
      <point x="467" y="518" type="qcurve"/>
      <point x="467" y="545"/>
      <point x="445" y="587"/>
      <point x="409" y="615"/>
      <point x="362" y="630"/>
      <point x="338" y="630" type="qcurve"/>
      <point x="283" y="630"/>
      <point x="198" y="564"/>
      <point x="138" y="467"/>
      <point x="102" y="357"/>
      <point x="95" y="313" type="qcurve"/>
      <point x="78" y="438"/>
      <point x="45" y="683"/>
      <point x="29" y="808" type="qcurve"/>
      <point x="143" y="653" type="line"/>
      <point x="186" y="694"/>
      <point x="297" y="736"/>
      <point x="355" y="736" type="qcurve"/>
      <point x="401" y="736"/>
      <point x="497" y="705"/>
      <point x="575" y="648"/>
      <point x="624" y="566"/>
    </contour>
  </outline>
</glyph>
<glyph name="three" format="1">
  <advance width="635"/>
  <unicode hex="0033"/>
  <outline>
    <contour>
      <point x="614" y="111"/>
      <point x="573" y="53"/>
      <point x="515" y="14" type="curve" smooth="yes"/>
      <point x="457" y="-25"/>
      <point x="380" y="-44"/>
      <point x="312" y="-44" type="curve" smooth="yes"/>
      <point x="232" y="-44"/>
      <point x="154" y="-12"/>
      <point x="97" y="44" type="curve"/>
      <point x="-20" y="-110" type="line"/>
      <point x="80" y="293" type="line"/>
      <point x="88" y="238"/>
      <point x="111" y="181"/>
      <point x="147" y="137" type="curve" smooth="yes"/>
      <point x="183" y="93"/>
      <point x="233" y="62"/>
      <point x="293" y="62" type="curve" smooth="yes"/>
      <point x="324" y="62"/>
      <point x="357" y="72"/>
      <point x="382" y="91" type="curve" smooth="yes"/>
      <point x="407" y="110"/>
      <point x="425" y="137"/>
      <point x="425" y="172" type="curve" smooth="yes"/>
      <point x="425" y="215"/>
      <point x="404" y="244"/>
      <point x="375" y="262" type="curve" smooth="yes"/>
      <point x="346" y="280"/>
      <point x="307" y="287"/>
      <point x="271" y="287" type="curve" smooth="yes"/>
      <point x="251" y="287"/>
      <point x="230" y="285"/>
      <point x="211" y="284" type="curve"/>
      <point x="213" y="393" type="line"/>
      <point x="244" y="388"/>
      <point x="272" y="382"/>
      <point x="303" y="382" type="curve" smooth="yes"/>
      <point x="338" y="382"/>
      <point x="372" y="391"/>
      <point x="397" y="410" type="curve" smooth="yes"/>
      <point x="421" y="429"/>
      <point x="438" y="457"/>
      <point x="438" y="496" type="curve" smooth="yes"/>
      <point x="438" y="529"/>
      <point x="420" y="559"/>
      <point x="395" y="580" type="curve" smooth="yes"/>
      <point x="370" y="600"/>
      <point x="336" y="613"/>
      <point x="304" y="613" type="curve" smooth="yes"/>
      <point x="244" y="613"/>
      <point x="193" y="586"/>
      <point x="157" y="544" type="curve" smooth="yes"/>
      <point x="120" y="502"/>
      <point x="95" y="447"/>
      <point x="84" y="392" type="curve"/>
      <point x="-2" y="797" type="line"/>
      <point x="110" y="639" type="line"/>
      <point x="165" y="688"/>
      <point x="231" y="720"/>
      <point x="306" y="720" type="curve" smooth="yes"/>
      <point x="369" y="720"/>
      <point x="441" y="703"/>
      <point x="497" y="667" type="curve" smooth="yes"/>
      <point x="553" y="631"/>
      <point x="593" y="576"/>
      <point x="593" y="503" type="curve" smooth="yes"/>
      <point x="593" y="439"/>
      <point x="573" y="392"/>
      <point x="525" y="352" type="curve"/>
      <point x="581" y="319"/>
      <point x="614" y="252"/>
      <point x="614" y="188" type="curve" smooth="yes"/>
    </contour>
  </outline>
</glyph>
<glyph name="four" format="1">
  <advance width="621"/>
  <unicode hex="0034"/>
  <outline>
    <contour>
      <point x="610" y="-66" type="line"/>
      <point x="92" y="-69" type="line"/>
      <point x="321" y="22" type="line"/>
      <point x="314" y="173" type="line"/>
      <point x="-51" y="167" type="line"/>
      <point x="475" y="792" type="line"/>
      <point x="462" y="256" type="line"/>
      <point x="507" y="257" type="line"/>
      <point x="598" y="421" type="line"/>
      <point x="585" y="11" type="line"/>
      <point x="513" y="176" type="line"/>
      <point x="459" y="175" type="line"/>
      <point x="454" y="19" type="line"/>
    </contour>
    <contour>
      <point x="311" y="254" type="line"/>
      <point x="309" y="427" type="line"/>
      <point x="152" y="251" type="line"/>
    </contour>
  </outline>
</glyph>
<glyph name="five" format="1">
  <advance width="625"/>
  <unicode hex="0035"/>
  <outline>
    <contour>
      <point x="594" y="167"/>
      <point x="565" y="98"/>
      <point x="517" y="48" type="curve" smooth="yes"/>
      <point x="469" y="-2"/>
      <point x="401" y="-33"/>
      <point x="324" y="-33" type="curve" smooth="yes"/>
      <point x="237" y="-33"/>
      <point x="173" y="-10"/>
      <point x="112" y="50" type="curve"/>
      <point x="12" y="-50" type="line"/>
      <point x="57" y="245" type="line"/>
      <point x="77" y="206"/>
      <point x="109" y="169"/>
      <point x="146" y="141" type="curve" smooth="yes"/>
      <point x="183" y="113"/>
      <point x="228" y="95"/>
      <point x="273" y="95" type="curve" smooth="yes"/>
      <point x="316" y="95"/>
      <point x="351" y="111"/>
      <point x="376" y="136" type="curve" smooth="yes"/>
      <point x="401" y="161"/>
      <point x="415" y="197"/>
      <point x="415" y="240" type="curve" smooth="yes"/>
      <point x="415" y="281"/>
      <point x="393" y="316"/>
      <point x="361" y="339" type="curve" smooth="yes"/>
      <point x="329" y="362"/>
      <point x="288" y="375"/>
      <point x="251" y="375" type="curve" smooth="yes"/>
      <point x="175" y="375"/>
      <point x="123" y="338"/>
      <point x="68" y="294" type="curve"/>
      <point x="0" y="672" type="line"/>
      <point x="584" y="757" type="line"/>
      <point x="543" y="433" type="line"/>
      <point x="532" y="465"/>
      <point x="521" y="496"/>
      <point x="511" y="527" type="curve" smooth="yes"/>
      <point x="500" y="558"/>
      <point x="489" y="588"/>
      <point x="476" y="618" type="curve"/>
      <point x="163" y="584" type="line"/>
      <point x="165" y="564"/>
      <point x="166" y="544"/>
      <point x="167" y="524" type="curve" smooth="yes"/>
      <point x="168" y="504"/>
      <point x="169" y="484"/>
      <point x="170" y="465" type="curve"/>
      <point x="214" y="474"/>
      <point x="258" y="481"/>
      <point x="302" y="481" type="curve" smooth="yes"/>
      <point x="373" y="481"/>
      <point x="446" y="462"/>
      <point x="502" y="423" type="curve" smooth="yes"/>
      <point x="557" y="383"/>
      <point x="594" y="324"/>
      <point x="594" y="244" type="curve" smooth="yes"/>
    </contour>
  </outline>
</glyph>
<glyph name="six" format="1">
  <advance width="634"/>
  <unicode hex="0036"/>
  <outline>
    <contour>
      <point x="631" y="120"/>
      <point x="597" y="49"/>
      <point x="541" y="1" type="curve" smooth="yes"/>
      <point x="484" y="-47"/>
      <point x="406" y="-72"/>
      <point x="318" y="-72" type="curve" smooth="yes"/>
      <point x="215" y="-72"/>
      <point x="137" y="-41"/>
      <point x="83" y="16" type="curve" smooth="yes"/>
      <point x="29" y="72"/>
      <point x="0" y="154"/>
      <point x="0" y="255" type="curve" smooth="yes"/>
      <point x="0" y="312"/>
      <point x="11" y="382"/>
      <point x="32" y="450" type="curve" smooth="yes"/>
      <point x="53" y="518"/>
      <point x="86" y="584"/>
      <point x="131" y="633" type="curve" smooth="yes"/>
      <point x="176" y="681"/>
      <point x="234" y="713"/>
      <point x="305" y="713" type="curve" smooth="yes"/>
      <point x="362" y="713"/>
      <point x="416" y="687"/>
      <point x="460" y="652" type="curve"/>
      <point x="531" y="852" type="line"/>
      <point x="580" y="429" type="line"/>
      <point x="555" y="465"/>
      <point x="518" y="504"/>
      <point x="476" y="533" type="curve" smooth="yes"/>
      <point x="434" y="562"/>
      <point x="386" y="583"/>
      <point x="339" y="583" type="curve" smooth="yes"/>
      <point x="300" y="583"/>
      <point x="272" y="566"/>
      <point x="251" y="540" type="curve" smooth="yes"/>
      <point x="230" y="514"/>
      <point x="218" y="478"/>
      <point x="211" y="445" type="curve"/>
      <point x="251" y="462"/>
      <point x="297" y="466"/>
      <point x="341" y="466" type="curve" smooth="yes"/>
      <point x="424" y="466"/>
      <point x="496" y="447"/>
      <point x="548" y="406" type="curve" smooth="yes"/>
      <point x="600" y="365"/>
      <point x="631" y="301"/>
      <point x="631" y="212" type="curve" smooth="yes"/>
    </contour>
    <contour>
      <point x="474" y="241"/>
      <point x="463" y="285"/>
      <point x="440" y="320" type="curve" smooth="yes"/>
      <point x="417" y="355"/>
      <point x="383" y="379"/>
      <point x="338" y="379" type="curve" smooth="yes"/>
      <point x="290" y="379"/>
      <point x="249" y="359"/>
      <point x="221" y="327" type="curve" smooth="yes"/>
      <point x="193" y="295"/>
      <point x="176" y="252"/>
      <point x="176" y="205" type="curve" smooth="yes"/>
      <point x="176" y="162"/>
      <point x="185" y="114"/>
      <point x="208" y="78" type="curve" smooth="yes"/>
      <point x="231" y="41"/>
      <point x="264" y="15"/>
      <point x="315" y="15" type="curve" smooth="yes"/>
      <point x="372" y="15"/>
      <point x="412" y="36"/>
      <point x="437" y="70" type="curve" smooth="yes"/>
      <point x="462" y="104"/>
      <point x="474" y="150"/>
      <point x="474" y="201" type="curve" smooth="yes"/>
    </contour>
  </outline>
</glyph>
<glyph name="seven" format="1">
  <advance width="613"/>
  <unicode hex="0037"/>
  <outline>
    <contour>
      <point x="668" y="702" type="line"/>
      <point x="408" y="60" type="line"/>
      <point x="627" y="-55" type="line"/>
      <point x="66" y="-37" type="line"/>
      <point x="284" y="73" type="line"/>
      <point x="415" y="597" type="line"/>
      <point x="172" y="613" type="line"/>
      <point x="112" y="374" type="line"/>
      <point x="0" y="733" type="line"/>
    </contour>
  </outline>
</glyph>
<glyph name="eight" format="1">
  <advance width="658"/>
  <unicode hex="0038"/>
  <outline>
    <contour>
      <point x="665" y="151" type="qcurve"/>
      <point x="665" y="85"/>
      <point x="602" y="-8"/>
      <point x="505" y="-66"/>
      <point x="387" y="-93"/>
      <point x="332" y="-93" type="qcurve"/>
      <point x="275" y="-93"/>
      <point x="157" y="-67"/>
      <point x="61" y="-9"/>
      <point x="0" y="82"/>
      <point x="0" y="147" type="qcurve"/>
      <point x="0" y="151" type="line"/>
      <point x="0" y="178"/>
      <point x="19" y="233"/>
      <point x="52" y="282"/>
      <point x="95" y="323"/>
      <point x="119" y="336" type="qcurve"/>
      <point x="81" y="368"/>
      <point x="48" y="447"/>
      <point x="48" y="497" type="qcurve"/>
      <point x="48" y="552"/>
      <point x="100" y="638"/>
      <point x="181" y="695"/>
      <point x="282" y="725"/>
      <point x="332" y="725" type="qcurve"/>
      <point x="381" y="725"/>
      <point x="482" y="695"/>
      <point x="564" y="638"/>
      <point x="616" y="552"/>
      <point x="616" y="497" type="qcurve"/>
      <point x="616" y="446"/>
      <point x="583" y="368"/>
      <point x="545" y="336" type="qcurve"/>
      <point x="569" y="322"/>
      <point x="612" y="282"/>
      <point x="645" y="233"/>
      <point x="665" y="178"/>
    </contour>
    <contour>
      <point x="450" y="494" type="line"/>
      <point x="450" y="520"/>
      <point x="435" y="570"/>
      <point x="405" y="610"/>
      <point x="361" y="635"/>
      <point x="332" y="635" type="qcurve"/>
      <point x="303" y="635"/>
      <point x="259" y="610"/>
      <point x="230" y="569"/>
      <point x="215" y="518"/>
      <point x="215" y="493" type="qcurve"/>
      <point x="215" y="489" type="line"/>
      <point x="215" y="435"/>
      <point x="274" y="359"/>
      <point x="332" y="359" type="qcurve"/>
      <point x="389" y="359"/>
      <point x="450" y="434"/>
      <point x="450" y="490" type="qcurve"/>
    </contour>
    <contour>
      <point x="470" y="142" type="qcurve"/>
      <point x="470" y="170"/>
      <point x="448" y="218"/>
      <point x="410" y="253"/>
      <point x="360" y="272"/>
      <point x="332" y="272" type="qcurve"/>
      <point x="304" y="272"/>
      <point x="254" y="253"/>
      <point x="216" y="218"/>
      <point x="193" y="170"/>
      <point x="193" y="142" type="qcurve"/>
      <point x="193" y="115"/>
      <point x="215" y="63"/>
      <point x="253" y="21"/>
      <point x="303" y="-4"/>
      <point x="332" y="-4" type="qcurve"/>
      <point x="361" y="-4"/>
      <point x="411" y="21"/>
      <point x="449" y="62"/>
      <point x="470" y="115"/>
    </contour>
  </outline>
</glyph>
<glyph name="nine" format="1">
  <advance width="625"/>
  <unicode hex="0039"/>
  <outline>
    <contour>
      <point x="620" y="401" type="qcurve"/>
      <point x="620" y="350"/>
      <point x="606" y="250"/>
      <point x="591" y="202" type="qcurve"/>
      <point x="576" y="157"/>
      <point x="527" y="68"/>
      <point x="460" y="-1"/>
      <point x="374" y="-44"/>
      <point x="322" y="-44" type="qcurve"/>
      <point x="275" y="-44"/>
      <point x="208" y="-16"/>
      <point x="170" y="10" type="qcurve"/>
      <point x="100" y="-143" type="line"/>
      <point x="51" y="232" type="line"/>
      <point x="70" y="206"/>
      <point x="123" y="152"/>
      <point x="186" y="108"/>
      <point x="256" y="80"/>
      <point x="291" y="80" type="qcurve"/>
      <point x="320" y="80"/>
      <point x="369" y="109"/>
      <point x="406" y="154"/>
      <point x="431" y="208"/>
      <point x="436" y="233" type="qcurve"/>
      <point x="416" y="224"/>
      <point x="383" y="211"/>
      <point x="349" y="202"/>
      <point x="313" y="197"/>
      <point x="290" y="197" type="qcurve"/>
      <point x="234" y="197"/>
      <point x="130" y="232"/>
      <point x="49" y="298"/>
      <point x="0" y="392"/>
      <point x="0" y="451" type="qcurve"/>
      <point x="0" y="520"/>
      <point x="48" y="625"/>
      <point x="132" y="697"/>
      <point x="246" y="733"/>
      <point x="312" y="733" type="qcurve"/>
      <point x="383" y="733"/>
      <point x="497" y="680"/>
      <point x="577" y="590"/>
      <point x="620" y="469"/>
    </contour>
    <contour>
      <point x="447" y="469" type="qcurve"/>
      <point x="447" y="499"/>
      <point x="433" y="560"/>
      <point x="403" y="610"/>
      <point x="354" y="642"/>
      <point x="319" y="642" type="qcurve"/>
      <point x="280" y="642"/>
      <point x="225" y="615"/>
      <point x="190" y="569"/>
      <point x="174" y="507"/>
      <point x="174" y="472" type="qcurve"/>
      <point x="174" y="445"/>
      <point x="190" y="388"/>
      <point x="221" y="340"/>
      <point x="268" y="310"/>
      <point x="299" y="310" type="qcurve"/>
      <point x="332" y="310"/>
      <point x="386" y="336"/>
      <point x="425" y="379"/>
      <point x="447" y="437"/>
    </contour>
  </outline>
</glyph>
<glyph name="colon" format="1">
  <advance width="229"/>
  <unicode hex="003A"/>
  <outline>
    <contour>
      <point x="212" y="257" type="qcurve"/>
      <point x="212" y="236"/>
      <point x="194" y="205"/>
      <point x="165" y="184"/>
      <point x="128" y="173"/>
      <point x="109" y="173" type="qcurve"/>
      <point x="90" y="173"/>
      <point x="51" y="183"/>
      <point x="20" y="204"/>
      <point x="0" y="235"/>
      <point x="0" y="256" type="qcurve"/>
      <point x="0" y="278"/>
      <point x="19" y="311"/>
      <point x="49" y="334"/>
      <point x="88" y="346"/>
      <point x="108" y="346" type="qcurve"/>
      <point x="126" y="346"/>
      <point x="163" y="333"/>
      <point x="193" y="309"/>
      <point x="212" y="276"/>
    </contour>
    <contour>
      <point x="212" y="-4" type="qcurve"/>
      <point x="212" y="-25"/>
      <point x="194" y="-57"/>
      <point x="165" y="-78"/>
      <point x="128" y="-89"/>
      <point x="109" y="-89" type="qcurve"/>
      <point x="90" y="-89"/>
      <point x="51" y="-79"/>
      <point x="20" y="-58"/>
      <point x="0" y="-27"/>
      <point x="0" y="-6" type="qcurve"/>
      <point x="0" y="16"/>
      <point x="19" y="50"/>
      <point x="49" y="73"/>
      <point x="88" y="85"/>
      <point x="108" y="85" type="qcurve"/>
      <point x="126" y="85"/>
      <point x="163" y="72"/>
      <point x="193" y="48"/>
      <point x="212" y="15"/>
    </contour>
  </outline>
</glyph>
<glyph name="semicolon" format="1">
  <advance width="234"/>
  <unicode hex="003B"/>
  <outline>
    <contour>
      <point x="214" y="230"/>
      <point x="201" y="209"/>
      <point x="182" y="195" type="curve" smooth="yes"/>
      <point x="163" y="181"/>
      <point x="138" y="173"/>
      <point x="113" y="173" type="curve" smooth="yes"/>
      <point x="88" y="173"/>
      <point x="60" y="180"/>
      <point x="40" y="194" type="curve" smooth="yes"/>
      <point x="19" y="208"/>
      <point x="4" y="228"/>
      <point x="4" y="256" type="curve" smooth="yes"/>
      <point x="4" y="285"/>
      <point x="18" y="307"/>
      <point x="39" y="323" type="curve" smooth="yes"/>
      <point x="59" y="338"/>
      <point x="86" y="346"/>
      <point x="113" y="346" type="curve" smooth="yes"/>
      <point x="136" y="346"/>
      <point x="161" y="337"/>
      <point x="181" y="321" type="curve" smooth="yes"/>
      <point x="200" y="305"/>
      <point x="214" y="282"/>
      <point x="214" y="257" type="curve" smooth="yes"/>
    </contour>
    <contour>
      <point x="212" y="-56"/>
      <point x="199" y="-92"/>
      <point x="179" y="-123" type="curve" smooth="yes"/>
      <point x="158" y="-155"/>
      <point x="128" y="-180"/>
      <point x="93" y="-196" type="curve" smooth="yes"/>
      <point x="40" y="-219" type="line"/>
      <point x="49" y="-198"/>
      <point x="59" y="-178"/>
      <point x="69" y="-157" type="curve"/>
      <point x="78" y="-136"/>
      <point x="85" y="-115"/>
      <point x="90" y="-92" type="curve"/>
      <point x="67" y="-91"/>
      <point x="45" y="-86"/>
      <point x="28" y="-74" type="curve" smooth="yes"/>
      <point x="11" y="-62"/>
      <point x="0" y="-45"/>
      <point x="0" y="-18" type="curve" smooth="yes"/>
      <point x="0" y="11"/>
      <point x="14" y="34"/>
      <point x="34" y="50" type="curve" smooth="yes"/>
      <point x="54" y="66"/>
      <point x="81" y="74"/>
      <point x="108" y="74" type="curve" smooth="yes"/>
      <point x="132" y="74"/>
      <point x="158" y="64"/>
      <point x="178" y="48" type="curve" smooth="yes"/>
      <point x="198" y="32"/>
      <point x="212" y="10"/>
      <point x="212" y="-17" type="curve" smooth="yes"/>
    </contour>
  </outline>
</glyph>
<glyph name="less" format="1">
  <advance width="577"/>
  <unicode hex="003C"/>
  <outline>
    <contour>
      <point x="609" y="496" type="line"/>
      <point x="263" y="316" type="line"/>
      <point x="567" y="74" type="line"/>
      <point x="553" y="-6" type="line"/>
      <point x="0" y="344" type="line"/>
      <point x="561" y="675" type="line"/>
    </contour>
  </outline>
</glyph>
<glyph name="equal" format="1">
  <advance width="544"/>
  <unicode hex="003D"/>
  <outline>
    <contour>
      <point x="536" y="451" type="line"/>
      <point x="527" y="319" type="line"/>
      <point x="1" y="303" type="line"/>
      <point x="5" y="477" type="line"/>
    </contour>
    <contour>
      <point x="535" y="258" type="line"/>
      <point x="529" y="84" type="line"/>
      <point x="0" y="111" type="line"/>
      <point x="7" y="243" type="line"/>
    </contour>
  </outline>
</glyph>
<glyph name="greater" format="1">
  <advance width="590"/>
  <unicode hex="003E"/>
  <outline>
    <contour>
      <point x="609" y="344" type="line"/>
      <point x="55" y="-7" type="line"/>
      <point x="45" y="74" type="line"/>
      <point x="347" y="316" type="line"/>
      <point x="0" y="496" type="line"/>
      <point x="49" y="675" type="line"/>
    </contour>
  </outline>
</glyph>
<glyph name="question" format="1">
  <advance width="607"/>
  <unicode hex="003F"/>
  <outline>
    <contour>
      <point x="602" y="556" type="qcurve"/>
      <point x="602" y="497"/>
      <point x="556" y="411"/>
      <point x="480" y="355"/>
      <point x="381" y="329"/>
      <point x="328" y="329" type="qcurve"/>
      <point x="320" y="329"/>
      <point x="308" y="329"/>
      <point x="301" y="330" type="qcurve"/>
      <point x="236" y="176" type="line"/>
      <point x="114" y="208" type="line"/>
      <point x="146" y="451" type="line"/>
      <point x="178" y="438"/>
      <point x="237" y="419"/>
      <point x="271" y="419" type="qcurve"/>
      <point x="303" y="419"/>
      <point x="363" y="440"/>
      <point x="410" y="479"/>
      <point x="438" y="534"/>
      <point x="438" y="568" type="qcurve"/>
      <point x="438" y="607"/>
      <point x="397" y="668"/>
      <point x="335" y="711"/>
      <point x="261" y="733"/>
      <point x="227" y="733" type="qcurve"/>
      <point x="181" y="733"/>
      <point x="116" y="704"/>
      <point x="65" y="655"/>
      <point x="23" y="592"/>
      <point x="0" y="559" type="qcurve"/>
      <point x="74" y="898" type="line"/>
      <point x="133" y="797" type="line"/>
      <point x="167" y="805"/>
      <point x="238" y="809"/>
      <point x="273" y="809" type="qcurve"/>
      <point x="330" y="809"/>
      <point x="447" y="780"/>
      <point x="542" y="718"/>
      <point x="602" y="623"/>
    </contour>
    <contour>
      <point x="246" y="48" type="qcurve"/>
      <point x="246" y="28"/>
      <point x="228" y="-2"/>
      <point x="199" y="-22"/>
      <point x="163" y="-31"/>
      <point x="145" y="-31" type="qcurve"/>
      <point x="126" y="-31"/>
      <point x="82" y="-19"/>
      <point x="44" y="3"/>
      <point x="19" y="37"/>
      <point x="19" y="59" type="qcurve"/>
      <point x="19" y="80"/>
      <point x="37" y="110"/>
      <point x="67" y="131"/>
      <point x="103" y="141"/>
      <point x="121" y="141" type="qcurve"/>
      <point x="142" y="141"/>
      <point x="186" y="130"/>
      <point x="222" y="107"/>
      <point x="246" y="72"/>
    </contour>
  </outline>
</glyph>
<glyph name="at" format="1">
  <advance width="812"/>
  <unicode hex="0040"/>
  <outline>
    <contour>
      <point x="839" y="251"/>
      <point x="820" y="175"/>
      <point x="781" y="116" type="curve" smooth="yes"/>
      <point x="741" y="56"/>
      <point x="684" y="13"/>
      <point x="608" y="13" type="curve" smooth="yes"/>
      <point x="576" y="13"/>
      <point x="545" y="23"/>
      <point x="520" y="41" type="curve" smooth="yes"/>
      <point x="495" y="59"/>
      <point x="475" y="85"/>
      <point x="470" y="118" type="curve"/>
      <point x="439" y="110"/>
      <point x="407" y="103"/>
      <point x="374" y="103" type="curve" smooth="yes"/>
      <point x="341" y="103"/>
      <point x="303" y="110"/>
      <point x="273" y="127" type="curve" smooth="yes"/>
      <point x="243" y="144"/>
      <point x="220" y="170"/>
      <point x="220" y="210" type="curve" smooth="yes"/>
      <point x="220" y="254"/>
      <point x="241" y="284"/>
      <point x="270" y="303" type="curve" smooth="yes"/>
      <point x="299" y="322"/>
      <point x="338" y="330"/>
      <point x="377" y="330" type="curve" smooth="yes"/>
      <point x="416" y="330"/>
      <point x="456" y="324"/>
      <point x="495" y="319" type="curve"/>
      <point x="497" y="335"/>
      <point x="498" y="350"/>
      <point x="498" y="365" type="curve" smooth="yes"/>
      <point x="498" y="390"/>
      <point x="495" y="419"/>
      <point x="484" y="442" type="curve" smooth="yes"/>
      <point x="473" y="465"/>
      <point x="454" y="480"/>
      <point x="422" y="480" type="curve" smooth="yes"/>
      <point x="393" y="480"/>
      <point x="365" y="471"/>
      <point x="348" y="446" type="curve"/>
      <point x="359" y="435"/>
      <point x="369" y="421"/>
      <point x="369" y="402" type="curve" smooth="yes"/>
      <point x="369" y="367"/>
      <point x="337" y="341"/>
      <point x="302" y="341" type="curve" smooth="yes"/>
      <point x="266" y="341"/>
      <point x="241" y="366"/>
      <point x="241" y="401" type="curve" smooth="yes"/>
      <point x="241" y="449"/>
      <point x="267" y="484"/>
      <point x="304" y="508" type="curve" smooth="yes"/>
      <point x="340" y="532"/>
      <point x="387" y="543"/>
      <point x="427" y="543" type="curve" smooth="yes"/>
      <point x="552" y="543"/>
      <point x="610" y="484"/>
      <point x="610" y="359" type="curve" smooth="yes"/>
      <point x="610" y="321"/>
      <point x="607" y="283"/>
      <point x="601" y="245" type="curve" smooth="yes"/>
      <point x="595" y="207"/>
      <point x="592" y="169"/>
      <point x="592" y="130" type="curve" smooth="yes"/>
      <point x="592" y="121"/>
      <point x="594" y="108"/>
      <point x="599" y="98" type="curve" smooth="yes"/>
      <point x="604" y="88"/>
      <point x="613" y="79"/>
      <point x="625" y="79" type="curve" smooth="yes"/>
      <point x="648" y="79"/>
      <point x="665" y="100"/>
      <point x="677" y="131" type="curve" smooth="yes"/>
      <point x="689" y="162"/>
      <point x="697" y="201"/>
      <point x="701" y="237" type="curve" smooth="yes"/>
      <point x="705" y="272"/>
      <point x="707" y="304"/>
      <point x="707" y="319" type="curve" smooth="yes"/>
      <point x="707" y="402"/>
      <point x="685" y="474"/>
      <point x="641" y="526" type="curve" smooth="yes"/>
      <point x="597" y="578"/>
      <point x="531" y="610"/>
      <point x="444" y="610" type="curve" smooth="yes"/>
      <point x="359" y="610"/>
      <point x="279" y="582"/>
      <point x="222" y="532" type="curve" smooth="yes"/>
      <point x="165" y="482"/>
      <point x="129" y="407"/>
      <point x="129" y="318" type="curve" smooth="yes"/>
      <point x="129" y="206"/>
      <point x="171" y="128"/>
      <point x="237" y="77" type="curve" smooth="yes"/>
      <point x="303" y="25"/>
      <point x="394" y="0"/>
      <point x="497" y="-7" type="curve"/>
      <point x="498" y="-7"/>
      <point x="502" y="-7"/>
      <point x="508" y="-8" type="curve" smooth="yes"/>
      <point x="514" y="-9"/>
      <point x="520" y="-9"/>
      <point x="527" y="-10" type="curve" smooth="yes"/>
      <point x="533" y="-11"/>
      <point x="539" y="-12"/>
      <point x="544" y="-13" type="curve" smooth="yes"/>
      <point x="549" y="-14"/>
      <point x="552" y="-16"/>
      <point x="552" y="-18" type="curve" smooth="yes"/>
      <point x="552" y="-21"/>
      <point x="549" y="-23"/>
      <point x="544" y="-25" type="curve" smooth="yes"/>
      <point x="533" y="-29"/>
      <point x="519" y="-32"/>
      <point x="507" y="-33" type="curve"/>
      <point x="501" y="-34"/>
      <point x="497" y="-34"/>
      <point x="495" y="-34" type="curve"/>
      <point x="468" y="-37"/>
      <point x="441" y="-38"/>
      <point x="414" y="-38" type="curve" smooth="yes"/>
      <point x="299" y="-38"/>
      <point x="196" y="-15"/>
      <point x="121" y="41" type="curve" smooth="yes"/>
      <point x="46" y="96"/>
      <point x="0" y="182"/>
      <point x="0" y="310" type="curve" smooth="yes"/>
      <point x="0" y="435"/>
      <point x="54" y="530"/>
      <point x="136" y="594" type="curve" smooth="yes"/>
      <point x="218" y="657"/>
      <point x="328" y="688"/>
      <point x="443" y="688" type="curve" smooth="yes"/>
      <point x="550" y="688"/>
      <point x="649" y="650"/>
      <point x="721" y="585" type="curve" smooth="yes"/>
      <point x="793" y="520"/>
      <point x="839" y="427"/>
      <point x="839" y="316" type="curve" smooth="yes"/>
    </contour>
    <contour>
      <point x="486" y="266" type="line"/>
      <point x="474" y="267"/>
      <point x="462" y="269"/>
      <point x="449" y="271" type="curve"/>
      <point x="436" y="272"/>
      <point x="424" y="273"/>
      <point x="412" y="273" type="curve" smooth="yes"/>
      <point x="376" y="273"/>
      <point x="345" y="257"/>
      <point x="345" y="217" type="curve" smooth="yes"/>
      <point x="345" y="186"/>
      <point x="373" y="167"/>
      <point x="400" y="167" type="curve" smooth="yes"/>
      <point x="425" y="167"/>
      <point x="452" y="170"/>
      <point x="476" y="174" type="curve"/>
    </contour>
  </outline>
</glyph>
<glyph name="A" format="1">
  <advance width="807"/>
  <unicode hex="0041"/>
  <outline>
    <contour>
      <point x="1012" y="-98" type="line"/>
      <point x="478" y="-231" type="line"/>
      <point x="616" y="-87" type="line"/>
      <point x="590" y="-26"/>
      <point x="537" y="96"/>
      <point x="509" y="157" type="qcurve"/>
      <point x="437" y="152"/>
      <point x="294" y="151"/>
      <point x="222" y="146" type="qcurve"/>
      <point x="208" y="120"/>
      <point x="181" y="69"/>
      <point x="167" y="43" type="qcurve"/>
      <point x="349" y="-76" type="line"/>
      <point x="-164" y="-42" type="line"/>
      <point x="82" y="62" type="line"/>
      <point x="337" y="549" type="line"/>
      <point x="68" y="686" type="line"/>
      <point x="452" y="670" type="line"/>
      <point x="798" y="-35" type="line"/>
    </contour>
    <contour>
      <point x="473" y="244" type="line"/>
      <point x="450" y="294"/>
      <point x="402" y="392"/>
      <point x="379" y="442" type="qcurve"/>
      <point x="353" y="394"/>
      <point x="302" y="301"/>
      <point x="276" y="253" type="qcurve"/>
    </contour>
  </outline>
</glyph>
<glyph name="B" format="1">
  <advance width="793"/>
  <unicode hex="0042"/>
  <outline>
    <contour>
      <point x="793" y="465" type="qcurve"/>
      <point x="793" y="432"/>
      <point x="756" y="372"/>
      <point x="700" y="324"/>
      <point x="634" y="290"/>
      <point x="606" y="283" type="qcurve"/>
      <point x="634" y="274"/>
      <point x="690" y="244"/>
      <point x="735" y="202"/>
      <point x="762" y="148"/>
      <point x="762" y="115" type="qcurve"/>
      <point x="762" y="75"/>
      <point x="713" y="17"/>
      <point x="634" y="-25"/>
      <point x="537" y="-52"/>
      <point x="440" y="-69"/>
      <point x="354" y="-79"/>
      <point x="327" y="-82" type="qcurve"/>
      <point x="-81" y="-126" type="line"/>
      <point x="147" y="9" type="line"/>
      <point x="100" y="555" type="line"/>
      <point x="-113" y="681" type="line"/>
      <point x="385" y="671" type="line"/>
      <point x="415" y="670"/>
      <point x="500" y="662"/>
      <point x="590" y="645"/>
      <point x="679" y="615"/>
      <point x="750" y="570"/>
      <point x="793" y="507"/>
    </contour>
    <contour>
      <point x="626" y="465" type="qcurve"/>
      <point x="626" y="488"/>
      <point x="598" y="521"/>
      <point x="552" y="545"/>
      <point x="497" y="560"/>
      <point x="441" y="569"/>
      <point x="393" y="572"/>
      <point x="378" y="572" type="qcurve"/>
      <point x="354" y="572"/>
      <point x="306" y="569"/>
      <point x="283" y="567" type="qcurve"/>
      <point x="289" y="357" type="line"/>
      <point x="310" y="355"/>
      <point x="353" y="352"/>
      <point x="374" y="352" type="qcurve"/>
      <point x="398" y="352"/>
      <point x="482" y="361"/>
      <point x="565" y="385"/>
      <point x="626" y="429"/>
    </contour>
    <contour>
      <point x="572" y="134" type="qcurve"/>
      <point x="572" y="157"/>
      <point x="541" y="192"/>
      <point x="493" y="217"/>
      <point x="433" y="233"/>
      <point x="374" y="242"/>
      <point x="323" y="246"/>
      <point x="307" y="246" type="qcurve"/>
      <point x="304" y="246" type="line"/>
      <point x="312" y="8" type="line"/>
      <point x="327" y="9"/>
      <point x="378" y="16"/>
      <point x="436" y="29"/>
      <point x="495" y="50"/>
      <point x="542" y="77"/>
      <point x="572" y="112"/>
    </contour>
  </outline>
</glyph>
<glyph name="C" format="1">
  <advance width="785"/>
  <unicode hex="0043"/>
  <outline>
    <contour>
      <point x="776" y="772" type="line"/>
      <point x="708" y="355" type="line"/>
      <point x="691" y="412"/>
      <point x="662" y="473"/>
      <point x="621" y="518" type="curve" smooth="yes"/>
      <point x="580" y="562"/>
      <point x="526" y="593"/>
      <point x="459" y="593" type="curve" smooth="yes"/>
      <point x="383" y="593"/>
      <point x="321" y="564"/>
      <point x="278" y="517" type="curve" smooth="yes"/>
      <point x="234" y="469"/>
      <point x="211" y="403"/>
      <point x="211" y="330" type="curve" smooth="yes"/>
      <point x="211" y="250"/>
      <point x="233" y="180"/>
      <point x="277" y="129" type="curve" smooth="yes"/>
      <point x="321" y="77"/>
      <point x="385" y="47"/>
      <point x="469" y="47" type="curve" smooth="yes"/>
      <point x="602" y="47"/>
      <point x="679" y="125"/>
      <point x="698" y="254" type="curve"/>
      <point x="766" y="-81" type="line"/>
      <point x="685" y="35" type="line"/>
      <point x="654" y="0"/>
      <point x="613" y="-22"/>
      <point x="568" y="-37" type="curve" smooth="yes"/>
      <point x="523" y="-52"/>
      <point x="474" y="-58"/>
      <point x="430" y="-58" type="curve" smooth="yes"/>
      <point x="314" y="-58"/>
      <point x="213" y="-19"/>
      <point x="139" y="50" type="curve" smooth="yes"/>
      <point x="65" y="119"/>
      <point x="20" y="217"/>
      <point x="20" y="336" type="curve" smooth="yes"/>
      <point x="20" y="453"/>
      <point x="66" y="545"/>
      <point x="141" y="608" type="curve" smooth="yes"/>
      <point x="216" y="671"/>
      <point x="318" y="703"/>
      <point x="429" y="703" type="curve" smooth="yes"/>
      <point x="468" y="703"/>
      <point x="511" y="696"/>
      <point x="552" y="681" type="curve" smooth="yes"/>
      <point x="593" y="666"/>
      <point x="630" y="644"/>
      <point x="657" y="615" type="curve"/>
    </contour>
  </outline>
</glyph>
<glyph name="D" format="1">
  <advance width="854"/>
  <unicode hex="0044"/>
  <outline>
    <contour>
      <point x="854" y="231"/>
      <point x="818" y="141"/>
      <point x="753" y="81" type="curve" smooth="yes"/>
      <point x="688" y="21"/>
      <point x="593" y="-9"/>
      <point x="474" y="-9" type="curve" smooth="yes"/>
      <point x="434" y="-9"/>
      <point x="395" y="-10"/>
      <point x="356" y="-13" type="curve" smooth="yes"/>
      <point x="317" y="-16"/>
      <point x="277" y="-18"/>
      <point x="238" y="-20" type="curve" smooth="yes"/>
      <point x="-18" y="-34" type="line"/>
      <point x="201" y="83" type="line"/>
      <point x="201" y="89" type="line" smooth="yes"/>
      <point x="201" y="170"/>
      <point x="197" y="249"/>
      <point x="189" y="328" type="curve" smooth="yes"/>
      <point x="181" y="407"/>
      <point x="174" y="486"/>
      <point x="169" y="565" type="curve"/>
      <point x="-113" y="688" type="line"/>
      <point x="-60" y="687"/>
      <point x="-8" y="685"/>
      <point x="44" y="684" type="curve" smooth="yes"/>
      <point x="96" y="683"/>
      <point x="148" y="682"/>
      <point x="201" y="682" type="curve" smooth="yes"/>
      <point x="243" y="682"/>
      <point x="285" y="682"/>
      <point x="326" y="683" type="curve" smooth="yes"/>
      <point x="367" y="684"/>
      <point x="408" y="684"/>
      <point x="449" y="684" type="curve" smooth="yes"/>
      <point x="550" y="684"/>
      <point x="652" y="657"/>
      <point x="728" y="602" type="curve" smooth="yes"/>
      <point x="804" y="547"/>
      <point x="854" y="464"/>
      <point x="854" y="352" type="curve" smooth="yes"/>
    </contour>
    <contour>
      <point x="679" y="410"/>
      <point x="664" y="472"/>
      <point x="629" y="516" type="curve" smooth="yes"/>
      <point x="594" y="559"/>
      <point x="540" y="585"/>
      <point x="463" y="585" type="curve" smooth="yes"/>
      <point x="448" y="585"/>
      <point x="433" y="585"/>
      <point x="418" y="585" type="curve"/>
      <point x="403" y="584"/>
      <point x="387" y="584"/>
      <point x="372" y="585" type="curve"/>
      <point x="346" y="82" type="line"/>
      <point x="361" y="82"/>
      <point x="376" y="82"/>
      <point x="390" y="82" type="curve"/>
      <point x="404" y="81"/>
      <point x="418" y="81"/>
      <point x="433" y="81" type="curve"/>
      <point x="433" y="83" type="line"/>
      <point x="452" y="82"/>
      <point x="467" y="81"/>
      <point x="484" y="81" type="curve" smooth="yes"/>
      <point x="563" y="81"/>
      <point x="612" y="112"/>
      <point x="641" y="160" type="curve" smooth="yes"/>
      <point x="669" y="207"/>
      <point x="679" y="271"/>
      <point x="679" y="338" type="curve" smooth="yes"/>
    </contour>
  </outline>
</glyph>
<glyph name="E" format="1">
  <advance width="800"/>
  <unicode hex="0045"/>
  <outline>
    <contour>
      <point x="759" y="740" type="line"/>
      <point x="743" y="384" type="line"/>
      <point x="623" y="645" type="line"/>
      <point x="342" y="622" type="line"/>
      <point x="336" y="356" type="line"/>
      <point x="429" y="361" type="line"/>
      <point x="538" y="568" type="line"/>
      <point x="527" y="94" type="line"/>
      <point x="423" y="250" type="line"/>
      <point x="334" y="256" type="line"/>
      <point x="329" y="63" type="line"/>
      <point x="629" y="65" type="line"/>
      <point x="728" y="357" type="line"/>
      <point x="731" y="-18" type="line"/>
      <point x="-65" y="-24" type="line"/>
      <point x="-5" y="0"/>
      <point x="113" y="51"/>
      <point x="173" y="72" type="qcurve"/>
      <point x="155" y="595" type="line"/>
      <point x="92" y="614"/>
      <point x="-30" y="656"/>
      <point x="-92" y="677" type="qcurve"/>
      <point x="728" y="738" type="line"/>
    </contour>
  </outline>
</glyph>
<glyph name="F" format="1">
  <advance width="749"/>
  <unicode hex="0046"/>
  <outline>
    <contour>
      <point x="714" y="326" type="line"/>
      <point x="595" y="641" type="line"/>
      <point x="335" y="617" type="line"/>
      <point x="329" y="358" type="line"/>
      <point x="415" y="364" type="line"/>
      <point x="518" y="547" type="line"/>
      <point x="509" y="79" type="line"/>
      <point x="408" y="253" type="line"/>
      <point x="327" y="259" type="line"/>
      <point x="323" y="37" type="line"/>
      <point x="544" y="-57" type="line"/>
      <point x="-50" y="-55" type="line"/>
      <point x="-15" y="-40"/>
      <point x="21" y="-24"/>
      <point x="56" y="-8" type="curve" smooth="yes"/>
      <point x="91" y="8"/>
      <point x="127" y="23"/>
      <point x="164" y="37" type="curve"/>
      <point x="148" y="592" type="line"/>
      <point x="109" y="603"/>
      <point x="71" y="616"/>
      <point x="33" y="630" type="curve" smooth="yes"/>
      <point x="-5" y="644"/>
      <point x="-43" y="658"/>
      <point x="-82" y="671" type="curve"/>
      <point x="52" y="682"/>
      <point x="185" y="693"/>
      <point x="318" y="704" type="curve" smooth="yes"/>
      <point x="451" y="715"/>
      <point x="584" y="726"/>
      <point x="718" y="735" type="curve"/>
    </contour>
  </outline>
</glyph>
<glyph name="G" format="1">
  <advance width="848"/>
  <unicode hex="0047"/>
  <outline>
    <contour>
      <point x="940" y="344" type="line"/>
      <point x="753" y="262" type="line"/>
      <point x="781" y="-41" type="line"/>
      <point x="671" y="58" type="line"/>
      <point x="647" y="29"/>
      <point x="582" y="-9"/>
      <point x="509" y="-31"/>
      <point x="433" y="-41"/>
      <point x="397" y="-41" type="qcurve"/>
      <point x="313" y="-41"/>
      <point x="174" y="15"/>
      <point x="75" y="116"/>
      <point x="20" y="256"/>
      <point x="20" y="339" type="qcurve"/>
      <point x="21" y="433"/>
      <point x="89" y="571"/>
      <point x="203" y="663"/>
      <point x="356" y="708"/>
      <point x="443" y="708" type="qcurve"/>
      <point x="490" y="708"/>
      <point x="592" y="679"/>
      <point x="631" y="655" type="qcurve"/>
      <point x="761" y="781" type="line"/>
      <point x="726" y="357" type="line"/>
      <point x="684" y="436" type="line"/>
      <point x="667" y="468"/>
      <point x="619" y="527"/>
      <point x="560" y="572"/>
      <point x="492" y="598"/>
      <point x="455" y="598" type="qcurve"/>
      <point x="395" y="598"/>
      <point x="307" y="555"/>
      <point x="248" y="481"/>
      <point x="219" y="384"/>
      <point x="219" y="329" type="qcurve"/>
      <point x="219" y="279"/>
      <point x="248" y="181"/>
      <point x="304" y="104"/>
      <point x="388" y="56"/>
      <point x="444" y="56" type="qcurve"/>
      <point x="516" y="56"/>
      <point x="600" y="128"/>
      <point x="600" y="201" type="qcurve"/>
      <point x="600" y="214"/>
      <point x="598" y="240"/>
      <point x="596" y="252" type="qcurve"/>
      <point x="351" y="346" type="line"/>
    </contour>
  </outline>
</glyph>
<glyph name="H" format="1">
  <advance width="817"/>
  <unicode hex="0048"/>
  <outline>
    <contour>
      <point x="909" y="1" type="line"/>
      <point x="353" y="1" type="line"/>
      <point x="549" y="80" type="line"/>
      <point x="545" y="250" type="line"/>
      <point x="273" y="222" type="line"/>
      <point x="270" y="-6" type="line"/>
      <point x="502" y="-85" type="line"/>
      <point x="-94" y="-85" type="line"/>
      <point x="-60" y="-72"/>
      <point x="-25" y="-58"/>
      <point x="10" y="-44" type="curve" smooth="yes"/>
      <point x="45" y="-30"/>
      <point x="80" y="-17"/>
      <point x="114" y="-6" type="curve"/>
      <point x="98" y="547" type="line"/>
      <point x="64" y="560"/>
      <point x="31" y="575"/>
      <point x="-2" y="592" type="curve" smooth="yes"/>
      <point x="-35" y="608"/>
      <point x="-69" y="624"/>
      <point x="-102" y="639" type="curve"/>
      <point x="453" y="633" type="line"/>
      <point x="280" y="552" type="line"/>
      <point x="275" y="330" type="line"/>
      <point x="542" y="330" type="line"/>
      <point x="534" y="628" type="line"/>
      <point x="330" y="719" type="line"/>
      <point x="890" y="713" type="line"/>
      <point x="715" y="632" type="line"/>
      <point x="700" y="80" type="line"/>
    </contour>
  </outline>
</glyph>
<glyph name="I" format="1">
  <advance width="456"/>
  <unicode hex="0049"/>
  <outline>
    <contour>
      <point x="549" y="699" type="line"/>
      <point x="334" y="611" type="line"/>
      <point x="317" y="-2" type="line"/>
      <point x="540" y="-89" type="line"/>
      <point x="-48" y="-89" type="line"/>
      <point x="172" y="-2" type="line"/>
      <point x="148" y="605" type="line"/>
      <point x="-92" y="706" type="line"/>
    </contour>
  </outline>
</glyph>
<glyph name="J" format="1">
  <advance width="736"/>
  <unicode hex="004A"/>
  <outline>
    <contour>
      <point x="849" y="760" type="line"/>
      <point x="609" y="630" type="line"/>
      <point x="612" y="596"/>
      <point x="617" y="562"/>
      <point x="622" y="528" type="curve" smooth="yes"/>
      <point x="632" y="460"/>
      <point x="642" y="392"/>
      <point x="650" y="324" type="curve" smooth="yes"/>
      <point x="653" y="290"/>
      <point x="655" y="256"/>
      <point x="655" y="222" type="curve" smooth="yes"/>
      <point x="655" y="113"/>
      <point x="629" y="25"/>
      <point x="576" y="-35" type="curve" smooth="yes"/>
      <point x="523" y="-95"/>
      <point x="439" y="-128"/>
      <point x="326" y="-128" type="curve" smooth="yes"/>
      <point x="181" y="-128"/>
      <point x="83" y="-46"/>
      <point x="59" y="97" type="curve"/>
      <point x="-113" y="185" type="line"/>
      <point x="334" y="185" type="line"/>
      <point x="286" y="158"/>
      <point x="239" y="132"/>
      <point x="188" y="105" type="curve"/>
      <point x="189" y="65"/>
      <point x="202" y="29"/>
      <point x="226" y="2" type="curve" smooth="yes"/>
      <point x="249" y="-25"/>
      <point x="283" y="-41"/>
      <point x="326" y="-41" type="curve" smooth="yes"/>
      <point x="394" y="-41"/>
      <point x="434" y="-7"/>
      <point x="458" y="41" type="curve" smooth="yes"/>
      <point x="481" y="88"/>
      <point x="487" y="148"/>
      <point x="487" y="203" type="curve" smooth="yes"/>
      <point x="487" y="271"/>
      <point x="479" y="337"/>
      <point x="468" y="403" type="curve" smooth="yes"/>
      <point x="463" y="436"/>
      <point x="457" y="468"/>
      <point x="451" y="501" type="curve" smooth="yes"/>
      <point x="444" y="534"/>
      <point x="438" y="567"/>
      <point x="432" y="600" type="curve"/>
      <point x="84" y="644" type="line"/>
    </contour>
  </outline>
</glyph>
<glyph name="K" format="1">
  <advance width="957"/>
  <unicode hex="004B"/>
  <outline>
    <contour>
      <point x="1152" y="-85" type="line"/>
      <point x="499" y="-83" type="line"/>
      <point x="702" y="2" type="line"/>
      <point x="442" y="372" type="line"/>
      <point x="327" y="308" type="line"/>
      <point x="324" y="91" type="line"/>
      <point x="597" y="-4" type="line"/>
      <point x="-29" y="-3" type="line"/>
      <point x="174" y="90" type="line"/>
      <point x="145" y="648" type="line"/>
      <point x="-72" y="728" type="line"/>
      <point x="563" y="753" type="line"/>
      <point x="340" y="659" type="line"/>
      <point x="332" y="409" type="line"/>
      <point x="673" y="612" type="line"/>
      <point x="489" y="689" type="line"/>
      <point x="1067" y="689" type="line"/>
      <point x="810" y="593" type="line"/>
      <point x="554" y="431" type="line"/>
      <point x="899" y="12" type="line"/>
    </contour>
  </outline>
</glyph>
<glyph name="L" format="1">
  <advance width="730"/>
  <unicode hex="004C"/>
  <outline>
    <contour>
      <point x="721" y="41" type="line"/>
      <point x="-52" y="7" type="line"/>
      <point x="186" y="122" type="line"/>
      <point x="155" y="709" type="line"/>
      <point x="-92" y="803" type="line"/>
      <point x="579" y="805" type="line"/>
      <point x="352" y="708" type="line"/>
      <point x="342" y="124" type="line"/>
      <point x="586" y="116" type="line"/>
      <point x="721" y="463" type="line"/>
    </contour>
  </outline>
</glyph>
<glyph name="M" format="1">
  <advance width="1058"/>
  <unicode hex="004D"/>
  <outline>
    <contour>
      <point x="1140" y="-5" type="line"/>
      <point x="572" y="6" type="line"/>
      <point x="731" y="80" type="line"/>
      <point x="730" y="489" type="line"/>
      <point x="511" y="47" type="line"/>
      <point x="272" y="463" type="line"/>
      <point x="287" y="60" type="line"/>
      <point x="578" y="-26" type="line"/>
      <point x="-76" y="-26" type="line"/>
      <point x="189" y="59" type="line"/>
      <point x="147" y="628" type="line"/>
      <point x="-82" y="727" type="line"/>
      <point x="349" y="723" type="line"/>
      <point x="538" y="340" type="line"/>
      <point x="760" y="743" type="line"/>
      <point x="1136" y="729" type="line"/>
      <point x="931" y="647" type="line"/>
      <point x="903" y="79" type="line"/>
    </contour>
  </outline>
</glyph>
<glyph name="N" format="1">
  <advance width="861"/>
  <unicode hex="004E"/>
  <outline>
    <contour>
      <point x="974" y="746" type="line"/>
      <point x="753" y="640" type="line"/>
      <point x="739" y="-54" type="line"/>
      <point x="255" y="510" type="line"/>
      <point x="266" y="124" type="line"/>
      <point x="586" y="5" type="line"/>
      <point x="-92" y="8" type="line"/>
      <point x="158" y="121" type="line"/>
      <point x="158" y="615" type="line"/>
      <point x="-84" y="727" type="line"/>
      <point x="330" y="721" type="line"/>
      <point x="656" y="316" type="line"/>
      <point x="653" y="625" type="line"/>
      <point x="384" y="735" type="line"/>
    </contour>
  </outline>
</glyph>
<glyph name="O" format="1">
  <advance width="828"/>
  <unicode hex="004F"/>
  <outline>
    <contour>
      <point x="808" y="312" type="qcurve"/>
      <point x="808" y="230"/>
      <point x="736" y="109"/>
      <point x="622" y="28"/>
      <point x="478" y="-12"/>
      <point x="406" y="-12" type="qcurve"/>
      <point x="334" y="-12"/>
      <point x="195" y="30"/>
      <point x="86" y="111"/>
      <point x="20" y="232"/>
      <point x="20" y="312" type="qcurve"/>
      <point x="20" y="400"/>
      <point x="90" y="522"/>
      <point x="206" y="597"/>
      <point x="354" y="631"/>
      <point x="431" y="631" type="qcurve"/>
      <point x="503" y="631"/>
      <point x="638" y="590"/>
      <point x="744" y="510"/>
      <point x="808" y="390"/>
    </contour>
    <contour>
      <point x="617" y="314" type="qcurve"/>
      <point x="617" y="355"/>
      <point x="592" y="434"/>
      <point x="545" y="495"/>
      <point x="476" y="532"/>
      <point x="431" y="532" type="qcurve"/>
      <point x="384" y="532"/>
      <point x="303" y="500"/>
      <point x="243" y="443"/>
      <point x="209" y="364"/>
      <point x="209" y="318" type="qcurve"/>
      <point x="209" y="275"/>
      <point x="232" y="192"/>
      <point x="279" y="126"/>
      <point x="351" y="86"/>
      <point x="400" y="86" type="qcurve"/>
      <point x="454" y="86"/>
      <point x="536" y="119"/>
      <point x="590" y="179"/>
      <point x="617" y="263"/>
    </contour>
  </outline>
</glyph>
<glyph name="P" format="1">
  <advance width="764"/>
  <unicode hex="0050"/>
  <outline>
    <contour>
      <point x="774" y="465" type="qcurve"/>
      <point x="774" y="428"/>
      <point x="722" y="373"/>
      <point x="639" y="332"/>
      <point x="538" y="304"/>
      <point x="439" y="286"/>
      <point x="354" y="277"/>
      <point x="329" y="276" type="qcurve"/>
      <point x="337" y="72" type="line"/>
      <point x="569" y="-24" type="line"/>
      <point x="-62" y="-32" type="line"/>
      <point x="153" y="81" type="line"/>
      <point x="144" y="550" type="line"/>
      <point x="-92" y="657" type="line"/>
      <point x="389" y="644" type="line"/>
      <point x="416" y="643"/>
      <point x="495" y="637"/>
      <point x="580" y="622"/>
      <point x="665" y="597"/>
      <point x="732" y="558"/>
      <point x="774" y="503"/>
    </contour>
    <contour>
      <point x="636" y="465" type="qcurve"/>
      <point x="636" y="483"/>
      <point x="608" y="510"/>
      <point x="564" y="529"/>
      <point x="510" y="542"/>
      <point x="458" y="549"/>
      <point x="415" y="552"/>
      <point x="403" y="552" type="qcurve"/>
      <point x="380" y="552"/>
      <point x="332" y="550"/>
      <point x="309" y="548" type="qcurve"/>
      <point x="314" y="364" type="line"/>
      <point x="327" y="362"/>
      <point x="350" y="362"/>
      <point x="362" y="362" type="qcurve"/>
      <point x="376" y="362"/>
      <point x="427" y="365"/>
      <point x="488" y="374"/>
      <point x="551" y="389"/>
      <point x="603" y="412"/>
      <point x="636" y="444"/>
    </contour>
  </outline>
</glyph>
<glyph name="Q" format="1">
  <advance width="808"/>
  <unicode hex="0051"/>
  <outline>
    <contour>
      <point x="926" y="-121" type="line"/>
      <point x="256" y="-309" type="line"/>
      <point x="451" y="-142" type="line"/>
      <point x="410" y="20" type="line"/>
      <point x="311" y="19"/>
      <point x="218" y="46"/>
      <point x="147" y="102" type="curve" smooth="yes"/>
      <point x="76" y="157"/>
      <point x="31" y="238"/>
      <point x="31" y="345" type="curve" smooth="yes"/>
      <point x="31" y="458"/>
      <point x="78" y="539"/>
      <point x="150" y="590" type="curve" smooth="yes"/>
      <point x="222" y="641"/>
      <point x="319" y="664"/>
      <point x="422" y="664" type="curve" smooth="yes"/>
      <point x="517" y="664"/>
      <point x="606" y="635"/>
      <point x="673" y="581" type="curve" smooth="yes"/>
      <point x="740" y="527"/>
      <point x="782" y="446"/>
      <point x="782" y="345" type="curve" smooth="yes"/>
      <point x="782" y="272"/>
      <point x="759" y="209"/>
      <point x="719" y="158" type="curve" smooth="yes"/>
      <point x="679" y="107"/>
      <point x="623" y="69"/>
      <point x="555" y="46" type="curve"/>
      <point x="574" y="3"/>
      <point x="599" y="-37"/>
      <point x="623" y="-77" type="curve"/>
    </contour>
    <contour>
      <point x="601" y="399"/>
      <point x="585" y="454"/>
      <point x="555" y="495" type="curve" smooth="yes"/>
      <point x="525" y="536"/>
      <point x="479" y="565"/>
      <point x="422" y="565" type="curve" smooth="yes"/>
      <point x="361" y="565"/>
      <point x="308" y="542"/>
      <point x="271" y="503" type="curve" smooth="yes"/>
      <point x="234" y="464"/>
      <point x="211" y="411"/>
      <point x="211" y="351" type="curve" smooth="yes"/>
      <point x="211" y="295"/>
      <point x="225" y="237"/>
      <point x="255" y="193" type="curve" smooth="yes"/>
      <point x="285" y="149"/>
      <point x="329" y="119"/>
      <point x="393" y="119" type="curve" smooth="yes"/>
      <point x="465" y="119"/>
      <point x="517" y="143"/>
      <point x="551" y="184" type="curve" smooth="yes"/>
      <point x="585" y="224"/>
      <point x="601" y="280"/>
      <point x="601" y="347" type="curve" smooth="yes"/>
    </contour>
  </outline>
</glyph>
<glyph name="R" format="1">
  <advance width="846"/>
  <unicode hex="0052"/>
  <outline>
    <contour>
      <point x="1122" y="-15" type="line"/>
      <point x="516" y="-257" type="line"/>
      <point x="667" y="-90" type="line"/>
      <point x="458" y="294" type="line"/>
      <point x="428" y="290"/>
      <point x="369" y="284"/>
      <point x="339" y="282" type="qcurve"/>
      <point x="347" y="77" type="line"/>
      <point x="580" y="-18" type="line"/>
      <point x="-52" y="-27" type="line"/>
      <point x="163" y="86" type="line"/>
      <point x="155" y="555" type="line"/>
      <point x="-82" y="663" type="line"/>
      <point x="399" y="649" type="line"/>
      <point x="426" y="648"/>
      <point x="505" y="642"/>
      <point x="590" y="628"/>
      <point x="675" y="602"/>
      <point x="742" y="563"/>
      <point x="784" y="508"/>
      <point x="784" y="470" type="qcurve"/>
      <point x="784" y="453"/>
      <point x="768" y="423"/>
      <point x="741" y="396"/>
      <point x="708" y="373"/>
      <point x="690" y="363" type="qcurve"/>
      <point x="649" y="340"/>
      <point x="597" y="322" type="qcurve"/>
      <point x="826" y="-11" type="line"/>
    </contour>
    <contour>
      <point x="646" y="470" type="qcurve"/>
      <point x="646" y="488"/>
      <point x="618" y="515"/>
      <point x="573" y="535"/>
      <point x="518" y="548"/>
      <point x="466" y="555"/>
      <point x="423" y="558"/>
      <point x="411" y="558" type="qcurve"/>
      <point x="388" y="558"/>
      <point x="342" y="556"/>
      <point x="319" y="554" type="qcurve"/>
      <point x="325" y="369" type="line"/>
      <point x="337" y="368"/>
      <point x="360" y="368"/>
      <point x="373" y="368" type="qcurve"/>
      <point x="386" y="368"/>
      <point x="437" y="371"/>
      <point x="498" y="380"/>
      <point x="561" y="394"/>
      <point x="613" y="417"/>
      <point x="646" y="449"/>
    </contour>
  </outline>
</glyph>
<glyph name="S" format="1">
  <advance width="677"/>
  <unicode hex="0053"/>
  <outline>
    <contour>
      <point x="667" y="104"/>
      <point x="621" y="51"/>
      <point x="558" y="18" type="curve" smooth="yes"/>
      <point x="495" y="-15"/>
      <point x="417" y="-30"/>
      <point x="353" y="-30" type="curve" smooth="yes"/>
      <point x="273" y="-30"/>
      <point x="188" y="-5"/>
      <point x="123" y="42" type="curve"/>
      <point x="44" y="-119" type="line"/>
      <point x="80" y="254" type="line"/>
      <point x="97" y="194"/>
      <point x="133" y="145"/>
      <point x="178" y="110" type="curve" smooth="yes"/>
      <point x="223" y="75"/>
      <point x="279" y="56"/>
      <point x="342" y="56" type="curve" smooth="yes"/>
      <point x="365" y="56"/>
      <point x="399" y="60"/>
      <point x="428" y="72" type="curve" smooth="yes"/>
      <point x="456" y="84"/>
      <point x="479" y="104"/>
      <point x="479" y="133" type="curve" smooth="yes"/>
      <point x="479" y="170"/>
      <point x="444" y="198"/>
      <point x="403" y="218" type="curve" smooth="yes"/>
      <point x="362" y="237"/>
      <point x="313" y="249"/>
      <point x="286" y="254" type="curve" smooth="yes"/>
      <point x="231" y="265"/>
      <point x="163" y="282"/>
      <point x="108" y="314" type="curve" smooth="yes"/>
      <point x="52" y="345"/>
      <point x="10" y="391"/>
      <point x="10" y="460" type="curve" smooth="yes"/>
      <point x="10" y="540"/>
      <point x="52" y="593"/>
      <point x="110" y="625" type="curve" smooth="yes"/>
      <point x="168" y="657"/>
      <point x="241" y="669"/>
      <point x="308" y="669" type="curve" smooth="yes"/>
      <point x="404" y="669"/>
      <point x="473" y="647"/>
      <point x="557" y="600" type="curve"/>
      <point x="657" y="722" type="line"/>
      <point x="620" y="393" type="line"/>
      <point x="587" y="446"/>
      <point x="541" y="494"/>
      <point x="488" y="530" type="curve" smooth="yes"/>
      <point x="435" y="565"/>
      <point x="373" y="587"/>
      <point x="309" y="587" type="curve" smooth="yes"/>
      <point x="286" y="587"/>
      <point x="254" y="581"/>
      <point x="226" y="569" type="curve" smooth="yes"/>
      <point x="198" y="556"/>
      <point x="176" y="536"/>
      <point x="176" y="507" type="curve" smooth="yes"/>
      <point x="176" y="479"/>
      <point x="203" y="460"/>
      <point x="236" y="448" type="curve"/>
      <point x="268" y="435"/>
      <point x="305" y="427"/>
      <point x="325" y="423" type="curve" smooth="yes"/>
      <point x="385" y="410"/>
      <point x="470" y="388"/>
      <point x="541" y="351" type="curve" smooth="yes"/>
      <point x="612" y="314"/>
      <point x="667" y="260"/>
      <point x="667" y="183" type="curve" smooth="yes"/>
    </contour>
  </outline>
</glyph>
<glyph name="T" format="1">
  <advance width="773"/>
  <unicode hex="0054"/>
  <outline>
    <contour>
      <point x="732" y="678" type="line"/>
      <point x="690" y="326" type="line"/>
      <point x="605" y="592" type="line"/>
      <point x="472" y="594" type="line"/>
      <point x="456" y="90" type="line"/>
      <point x="682" y="-19" type="line"/>
      <point x="81" y="-13" type="line"/>
      <point x="300" y="95" type="line"/>
      <point x="286" y="596" type="line"/>
      <point x="162" y="597" type="line"/>
      <point x="71" y="328" type="line"/>
      <point x="41" y="688" type="line"/>
    </contour>
  </outline>
</glyph>
<glyph name="U" format="1">
  <advance width="743"/>
  <unicode hex="0055"/>
  <outline>
    <contour>
      <point x="825" y="667" type="line"/>
      <point x="687" y="589" type="line"/>
      <point x="673" y="246" type="line"/>
      <point x="670" y="174"/>
      <point x="625" y="70"/>
      <point x="544" y="4"/>
      <point x="431" y="-27"/>
      <point x="361" y="-27" type="qcurve"/>
      <point x="299" y="-27"/>
      <point x="194" y="11"/>
      <point x="119" y="83"/>
      <point x="77" y="185"/>
      <point x="77" y="249" type="qcurve"/>
      <point x="77" y="330"/>
      <point x="84" y="495"/>
      <point x="87" y="577" type="qcurve"/>
      <point x="-92" y="659" type="line"/>
      <point x="410" y="624" type="line"/>
      <point x="272" y="566" type="line"/>
      <point x="270" y="488"/>
      <point x="267" y="331"/>
      <point x="267" y="253" type="qcurve"/>
      <point x="267" y="220"/>
      <point x="285" y="155"/>
      <point x="322" y="104"/>
      <point x="378" y="72"/>
      <point x="416" y="72" type="qcurve"/>
      <point x="456" y="72"/>
      <point x="521" y="99"/>
      <point x="565" y="147"/>
      <point x="588" y="214"/>
      <point x="587" y="253" type="qcurve"/>
      <point x="587" y="255"/>
      <point x="587" y="252"/>
      <point x="587" y="261"/>
      <point x="585" y="293"/>
      <point x="582" y="367"/>
      <point x="577" y="493"/>
      <point x="573" y="591" type="qcurve"/>
      <point x="416" y="674" type="line"/>
    </contour>
  </outline>
</glyph>
<glyph name="V" format="1">
  <advance width="805"/>
  <unicode hex="0056"/>
  <outline>
    <contour>
      <point x="938" y="607" type="line"/>
      <point x="725" y="546" type="line"/>
      <point x="399" y="-82" type="line"/>
      <point x="81" y="573" type="line"/>
      <point x="-143" y="605" type="line"/>
      <point x="442" y="741" type="line"/>
      <point x="258" y="612" type="line"/>
      <point x="445" y="191" type="line"/>
      <point x="640" y="564" type="line"/>
      <point x="460" y="683" type="line"/>
    </contour>
  </outline>
</glyph>
<glyph name="W" format="1">
  <advance width="1051"/>
  <unicode hex="0057"/>
  <outline>
    <contour>
      <point x="1204" y="600" type="line"/>
      <point x="984" y="538" type="line"/>
      <point x="734" y="-104" type="line"/>
      <point x="543" y="296" type="line"/>
      <point x="351" y="-106" type="line"/>
      <point x="69" y="560" type="line"/>
      <point x="-143" y="624" type="line"/>
      <point x="472" y="672" type="line"/>
      <point x="261" y="563" type="line"/>
      <point x="380" y="243" type="line"/>
      <point x="555" y="621" type="line"/>
      <point x="771" y="227" type="line"/>
      <point x="894" y="549" type="line"/>
      <point x="642" y="668" type="line"/>
    </contour>
  </outline>
</glyph>
<glyph name="X" format="1">
  <advance width="881"/>
  <unicode hex="0058"/>
  <outline>
    <contour>
      <point x="973" y="-29" type="line"/>
      <point x="390" y="-52" type="line"/>
      <point x="551" y="36" type="line"/>
      <point x="402" y="221" type="line"/>
      <point x="237" y="87" type="line"/>
      <point x="372" y="1" type="line"/>
      <point x="-102" y="15" type="line"/>
      <point x="122" y="111" type="line"/>
      <point x="345" y="301" type="line"/>
      <point x="161" y="531" type="line"/>
      <point x="-48" y="589" type="line"/>
      <point x="517" y="634" type="line"/>
      <point x="343" y="549" type="line"/>
      <point x="466" y="400" type="line"/>
      <point x="593" y="509" type="line"/>
      <point x="482" y="573" type="line"/>
      <point x="934" y="595" type="line"/>
      <point x="705" y="488" type="line"/>
      <point x="530" y="336" type="line"/>
      <point x="745" y="63" type="line"/>
    </contour>
  </outline>
</glyph>
<glyph name="Y" format="1">
  <advance width="869"/>
  <unicode hex="0059"/>
  <outline>
    <contour>
      <point x="941" y="585" type="line"/>
      <point x="719" y="492" type="line"/>
      <point x="519" y="272" type="line"/>
      <point x="543" y="22" type="line"/>
      <point x="801" y="-67" type="line"/>
      <point x="171" y="-71" type="line"/>
      <point x="369" y="15" type="line"/>
      <point x="379" y="260" type="line"/>
      <point x="127" y="547" type="line"/>
      <point x="-133" y="642" type="line"/>
      <point x="424" y="669" type="line"/>
      <point x="294" y="588" type="line"/>
      <point x="488" y="355" type="line"/>
      <point x="644" y="511" type="line"/>
      <point x="493" y="602" type="line"/>
    </contour>
  </outline>
</glyph>
<glyph name="Z" format="1">
  <advance width="702"/>
  <unicode hex="005A"/>
  <outline>
    <contour>
      <point x="737" y="627" type="line"/>
      <point x="334" y="113" type="line"/>
      <point x="552" y="104" type="line"/>
      <point x="691" y="359" type="line"/>
      <point x="672" y="16" type="line"/>
      <point x="10" y="22" type="line"/>
      <point x="439" y="527" type="line"/>
      <point x="151" y="517" type="line"/>
      <point x="105" y="276" type="line"/>
      <point x="15" y="608" type="line"/>
    </contour>
  </outline>
</glyph>
<glyph name="bracketleft" format="1">
  <advance width="390"/>
  <unicode hex="005B"/>
  <outline>
    <contour>
      <point x="462" y="830" type="line"/>
      <point x="228" y="719" type="line"/>
      <point x="216" y="-13" type="line"/>
      <point x="430" y="-123" type="line"/>
      <point x="88" y="-121" type="line"/>
      <point x="61" y="842" type="line"/>
    </contour>
  </outline>
</glyph>
<glyph name="backslash" format="1">
  <advance width="697"/>
  <unicode hex="005C"/>
  <outline>
    <contour>
      <point x="687" y="-2" type="line"/>
      <point x="558" y="-79" type="line"/>
      <point x="10" y="806" type="line"/>
      <point x="164" y="905" type="line"/>
    </contour>
  </outline>
</glyph>
<glyph name="bracketright" format="1">
  <advance width="380"/>
  <unicode hex="005D"/>
  <outline>
    <contour>
      <point x="339" y="842" type="line"/>
      <point x="312" y="-121" type="line"/>
      <point x="-30" y="-123" type="line"/>
      <point x="185" y="-13" type="line"/>
      <point x="173" y="719" type="line"/>
      <point x="-61" y="830" type="line"/>
    </contour>
  </outline>
</glyph>
<glyph name="asciicircum" format="1">
  <advance width="688"/>
  <unicode hex="005E"/>
  <outline>
    <contour>
      <point x="689" y="343" type="line"/>
      <point x="599" y="331" type="line"/>
      <point x="360" y="629" type="line"/>
      <point x="182" y="286" type="line"/>
      <point x="-10" y="337" type="line"/>
      <point x="330" y="912" type="line"/>
    </contour>
  </outline>
</glyph>
<glyph name="underscore" format="1">
  <advance width="861"/>
  <unicode hex="005F"/>
  <outline>
    <contour>
      <point x="861" y="-111" type="line"/>
      <point x="0" y="-96" type="line"/>
      <point x="0" y="68" type="line"/>
      <point x="855" y="80" type="line"/>
    </contour>
  </outline>
</glyph>
<glyph name="grave" format="1">
  <advance width="724"/>
  <unicode hex="0060"/>
  <outline>
    <contour>
      <point x="507" y="638" type="line"/>
      <point x="405" y="594" type="line"/>
      <point x="298" y="791" type="line"/>
      <point x="434" y="852" type="line"/>
    </contour>
  </outline>
</glyph>
<glyph name="a" format="1">
  <advance width="586"/>
  <unicode hex="0061"/>
  <outline>
    <contour>
      <point x="657" y="-10" type="qcurve"/>
      <point x="340" y="-23" type="line"/>
      <point x="347" y="33" type="line"/>
      <point x="315" y="29"/>
      <point x="251" y="28"/>
      <point x="219" y="28" type="qcurve"/>
      <point x="190" y="28"/>
      <point x="120" y="42"/>
      <point x="60" y="73"/>
      <point x="20" y="123"/>
      <point x="20" y="159" type="qcurve"/>
      <point x="20" y="199"/>
      <point x="58" y="255"/>
      <point x="117" y="289"/>
      <point x="189" y="305"/>
      <point x="223" y="305" type="qcurve"/>
      <point x="265" y="305"/>
      <point x="345" y="297"/>
      <point x="386" y="294" type="qcurve"/>
      <point x="388" y="307"/>
      <point x="390" y="334"/>
      <point x="390" y="348" type="qcurve"/>
      <point x="390" y="375"/>
      <point x="381" y="427"/>
      <point x="358" y="468"/>
      <point x="317" y="492"/>
      <point x="285" y="492" type="qcurve"/>
      <point x="255" y="492"/>
      <point x="206" y="473"/>
      <point x="187" y="450" type="qcurve"/>
      <point x="201" y="439"/>
      <point x="211" y="412"/>
      <point x="211" y="395" type="qcurve"/>
      <point x="211" y="389" type="line"/>
      <point x="196" y="319"/>
      <point x="123" y="319" type="qcurve"/>
      <point x="90" y="319"/>
      <point x="48" y="366"/>
      <point x="48" y="398" type="qcurve"/>
      <point x="48" y="442"/>
      <point x="98" y="506"/>
      <point x="171" y="548"/>
      <point x="256" y="568"/>
      <point x="292" y="568" type="qcurve"/>
      <point x="407" y="568"/>
      <point x="536" y="462"/>
      <point x="536" y="342" type="qcurve"/>
      <point x="536" y="329"/>
      <point x="535" y="303"/>
      <point x="534" y="290" type="qcurve"/>
      <point x="510" y="60" type="line"/>
      <point x="548" y="43"/>
      <point x="620" y="7"/>
    </contour>
    <contour>
      <point x="375" y="227" type="line"/>
      <point x="349" y="230"/>
      <point x="297" y="237"/>
      <point x="271" y="237" type="qcurve"/>
      <point x="254" y="237"/>
      <point x="221" y="230"/>
      <point x="194" y="214"/>
      <point x="178" y="187"/>
      <point x="178" y="167" type="qcurve"/>
      <point x="178" y="152"/>
      <point x="192" y="129"/>
      <point x="215" y="113"/>
      <point x="242" y="105"/>
      <point x="255" y="105" type="qcurve"/>
      <point x="281" y="105"/>
      <point x="334" y="111"/>
      <point x="359" y="114" type="qcurve"/>
    </contour>
  </outline>
</glyph>
<glyph name="b" format="1">
  <advance width="741"/>
  <unicode hex="0062"/>
  <outline>
    <contour>
      <point x="731" y="45"/>
      <point x="685" y="-12"/>
      <point x="623" y="-52" type="curve" smooth="yes"/>
      <point x="561" y="-93"/>
      <point x="482" y="-117"/>
      <point x="419" y="-122" type="curve" smooth="yes"/>
      <point x="-29" y="-160" type="line"/>
      <point x="136" y="-27" type="line"/>
      <point x="109" y="628" type="line"/>
      <point x="-143" y="710" type="line"/>
      <point x="299" y="768" type="line"/>
      <point x="280" y="288" type="line"/>
      <point x="339" y="305"/>
      <point x="402" y="311"/>
      <point x="463" y="311" type="curve" smooth="yes"/>
      <point x="524" y="311"/>
      <point x="591" y="299"/>
      <point x="643" y="270" type="curve" smooth="yes"/>
      <point x="695" y="241"/>
      <point x="731" y="193"/>
      <point x="731" y="120" type="curve" smooth="yes"/>
    </contour>
    <contour>
      <point x="554" y="136"/>
      <point x="537" y="169"/>
      <point x="510" y="191" type="curve" smooth="yes"/>
      <point x="482" y="213"/>
      <point x="444" y="224"/>
      <point x="403" y="224" type="curve" smooth="yes"/>
      <point x="366" y="224"/>
      <point x="310" y="213"/>
      <point x="275" y="196" type="curve"/>
      <point x="265" y="-42" type="line"/>
      <point x="274" y="-43"/>
      <point x="282" y="-44"/>
      <point x="291" y="-44" type="curve" smooth="yes"/>
      <point x="299" y="-44"/>
      <point x="307" y="-44"/>
      <point x="315" y="-44" type="curve" smooth="yes"/>
      <point x="362" y="-44"/>
      <point x="421" y="-40"/>
      <point x="469" y="-21" type="curve" smooth="yes"/>
      <point x="517" y="-2"/>
      <point x="554" y="32"/>
      <point x="554" y="92" type="curve" smooth="yes"/>
    </contour>
  </outline>
</glyph>
<glyph name="c" format="1">
  <advance width="604"/>
  <unicode hex="0063"/>
  <outline>
    <contour>
      <point x="595" y="119"/>
      <point x="570" y="51"/>
      <point x="523" y="6" type="curve" smooth="yes"/>
      <point x="475" y="-39"/>
      <point x="407" y="-63"/>
      <point x="324" y="-63" type="curve" smooth="yes"/>
      <point x="243" y="-63"/>
      <point x="169" y="-35"/>
      <point x="117" y="14" type="curve" smooth="yes"/>
      <point x="64" y="63"/>
      <point x="31" y="132"/>
      <point x="31" y="216" type="curve" smooth="yes"/>
      <point x="31" y="304"/>
      <point x="68" y="377"/>
      <point x="127" y="428" type="curve" smooth="yes"/>
      <point x="186" y="479"/>
      <point x="265" y="507"/>
      <point x="349" y="507" type="curve" smooth="yes"/>
      <point x="394" y="507"/>
      <point x="452" y="492"/>
      <point x="500" y="464" type="curve" smooth="yes"/>
      <point x="547" y="436"/>
      <point x="582" y="395"/>
      <point x="582" y="340" type="curve" smooth="yes"/>
      <point x="582" y="289"/>
      <point x="549" y="256"/>
      <point x="498" y="256" type="curve" smooth="yes"/>
      <point x="447" y="256"/>
      <point x="406" y="286"/>
      <point x="406" y="338" type="curve" smooth="yes"/>
      <point x="406" y="355"/>
      <point x="409" y="376"/>
      <point x="418" y="391" type="curve"/>
      <point x="395" y="410"/>
      <point x="368" y="417"/>
      <point x="340" y="417" type="curve" smooth="yes"/>
      <point x="289" y="417"/>
      <point x="255" y="389"/>
      <point x="233" y="352" type="curve" smooth="yes"/>
      <point x="211" y="315"/>
      <point x="202" y="265"/>
      <point x="202" y="224" type="curve" smooth="yes"/>
      <point x="202" y="172"/>
      <point x="218" y="128"/>
      <point x="249" y="97" type="curve" smooth="yes"/>
      <point x="280" y="65"/>
      <point x="322" y="46"/>
      <point x="377" y="46" type="curve" smooth="yes"/>
      <point x="425" y="46"/>
      <point x="468" y="67"/>
      <point x="504" y="97" type="curve" smooth="yes"/>
      <point x="540" y="127"/>
      <point x="570" y="165"/>
      <point x="594" y="204" type="curve"/>
    </contour>
  </outline>
</glyph>
<glyph name="d" format="1">
  <advance width="731"/>
  <unicode hex="0064"/>
  <outline>
    <contour>
      <point x="834" y="-121" type="line"/>
      <point x="488" y="-169" type="line"/>
      <point x="493" y="-82" type="line"/>
      <point x="454" y="-91"/>
      <point x="414" y="-95"/>
      <point x="374" y="-95" type="curve" smooth="yes"/>
      <point x="295" y="-95"/>
      <point x="212" y="-78"/>
      <point x="149" y="-38" type="curve" smooth="yes"/>
      <point x="85" y="2"/>
      <point x="41" y="65"/>
      <point x="41" y="157" type="curve" smooth="yes"/>
      <point x="41" y="232"/>
      <point x="76" y="292"/>
      <point x="128" y="334" type="curve" smooth="yes"/>
      <point x="180" y="376"/>
      <point x="249" y="399"/>
      <point x="318" y="399" type="curve" smooth="yes"/>
      <point x="386" y="399"/>
      <point x="457" y="385"/>
      <point x="517" y="357" type="curve"/>
      <point x="535" y="702" type="line"/>
      <point x="314" y="807" type="line"/>
      <point x="726" y="778" type="line"/>
      <point x="618" y="-70" type="line"/>
    </contour>
    <contour>
      <point x="511" y="264" type="line"/>
      <point x="472" y="291"/>
      <point x="408" y="302"/>
      <point x="361" y="302" type="curve" smooth="yes"/>
      <point x="313" y="302"/>
      <point x="271" y="285"/>
      <point x="243" y="256" type="curve" smooth="yes"/>
      <point x="214" y="227"/>
      <point x="197" y="185"/>
      <point x="197" y="137" type="curve" smooth="yes"/>
      <point x="197" y="85"/>
      <point x="225" y="47"/>
      <point x="265" y="23" type="curve" smooth="yes"/>
      <point x="305" y="-2"/>
      <point x="356" y="-13"/>
      <point x="400" y="-13" type="curve" smooth="yes"/>
      <point x="433" y="-13"/>
      <point x="466" y="-6"/>
      <point x="499" y="7" type="curve"/>
    </contour>
  </outline>
</glyph>
<glyph name="e" format="1">
  <advance width="608"/>
  <unicode hex="0065"/>
  <outline>
    <contour>
      <point x="598" y="182" type="qcurve"/>
      <point x="598" y="175"/>
      <point x="597" y="161"/>
      <point x="597" y="154" type="qcurve"/>
      <point x="190" y="146" type="line"/>
      <point x="203" y="87"/>
      <point x="295" y="31"/>
      <point x="353" y="31" type="qcurve"/>
      <point x="381" y="31"/>
      <point x="439" y="39"/>
      <point x="495" y="57"/>
      <point x="545" y="86"/>
      <point x="565" y="106" type="qcurve"/>
      <point x="554" y="64"/>
      <point x="502" y="0"/>
      <point x="431" y="-42"/>
      <point x="348" y="-63"/>
      <point x="307" y="-63" type="qcurve"/>
      <point x="251" y="-63"/>
      <point x="150" y="-23"/>
      <point x="75" y="47"/>
      <point x="31" y="145"/>
      <point x="31" y="203" type="qcurve"/>
      <point x="31" y="264"/>
      <point x="81" y="364"/>
      <point x="163" y="435"/>
      <point x="271" y="473"/>
      <point x="330" y="473" type="qcurve"/>
      <point x="392" y="473"/>
      <point x="491" y="427"/>
      <point x="561" y="347"/>
      <point x="598" y="242"/>
    </contour>
    <contour>
      <point x="445" y="233" type="line"/>
      <point x="443" y="260"/>
      <point x="425" y="310"/>
      <point x="393" y="348"/>
      <point x="348" y="371"/>
      <point x="318" y="371" type="qcurve"/>
      <point x="288" y="371"/>
      <point x="244" y="349"/>
      <point x="214" y="312"/>
      <point x="195" y="263"/>
      <point x="190" y="237" type="qcurve"/>
    </contour>
  </outline>
</glyph>
<glyph name="f" format="1">
  <advance width="520"/>
  <unicode hex="0066"/>
  <outline>
    <contour>
      <point x="582" y="786" type="qcurve"/>
      <point x="582" y="754"/>
      <point x="538" y="711"/>
      <point x="506" y="711" type="qcurve"/>
      <point x="474" y="711"/>
      <point x="425" y="753"/>
      <point x="425" y="787" type="qcurve"/>
      <point x="425" y="821"/>
      <point x="452" y="843" type="qcurve"/>
      <point x="445" y="866"/>
      <point x="411" y="897"/>
      <point x="386" y="897" type="qcurve"/>
      <point x="354" y="897"/>
      <point x="317" y="854"/>
      <point x="299" y="793"/>
      <point x="295" y="727"/>
      <point x="295" y="705" type="qcurve"/>
      <point x="295" y="657"/>
      <point x="303" y="562"/>
      <point x="308" y="514" type="qcurve"/>
      <point x="504" y="514" type="line"/>
      <point x="504" y="423" type="line"/>
      <point x="323" y="423" type="line"/>
      <point x="376" y="-35" type="line"/>
      <point x="378" y="-58"/>
      <point x="383" y="-105"/>
      <point x="383" y="-128" type="qcurve"/>
      <point x="383" y="-180"/>
      <point x="355" y="-281"/>
      <point x="298" y="-360"/>
      <point x="211" y="-409"/>
      <point x="153" y="-409" type="qcurve"/>
      <point x="113" y="-409"/>
      <point x="40" y="-380"/>
      <point x="-17" y="-328"/>
      <point x="-51" y="-257"/>
      <point x="-51" y="-216" type="qcurve"/>
      <point x="-51" y="-183"/>
      <point x="-7" y="-141"/>
      <point x="25" y="-141" type="qcurve"/>
      <point x="40" y="-141"/>
      <point x="69" y="-152"/>
      <point x="92" y="-172"/>
      <point x="105" y="-199"/>
      <point x="105" y="-215" type="qcurve"/>
      <point x="105" y="-247"/>
      <point x="81" y="-271" type="qcurve"/>
      <point x="88" y="-293"/>
      <point x="122" y="-324"/>
      <point x="145" y="-324" type="qcurve"/>
      <point x="172" y="-324"/>
      <point x="207" y="-291"/>
      <point x="227" y="-244"/>
      <point x="234" y="-191"/>
      <point x="234" y="-171" type="qcurve"/>
      <point x="234" y="-133"/>
      <point x="225" y="-57"/>
      <point x="219" y="-19" type="qcurve"/>
      <point x="218" y="-18" type="line"/>
      <point x="164" y="423" type="line"/>
      <point x="15" y="423" type="line"/>
      <point x="15" y="514" type="line"/>
      <point x="154" y="514" type="line"/>
      <point x="149" y="552"/>
      <point x="144" y="626"/>
      <point x="144" y="664" type="qcurve"/>
      <point x="144" y="720"/>
      <point x="166" y="834"/>
      <point x="220" y="925"/>
      <point x="309" y="983"/>
      <point x="376" y="983" type="qcurve"/>
      <point x="417" y="983"/>
      <point x="491" y="953"/>
      <point x="548" y="900"/>
      <point x="582" y="828"/>
    </contour>
  </outline>
</glyph>
<glyph name="g" format="1">
  <advance width="621"/>
  <unicode hex="0067"/>
  <outline>
    <contour>
      <point x="672" y="540" type="qcurve"/>
      <point x="672" y="522"/>
      <point x="658" y="488"/>
      <point x="634" y="461"/>
      <point x="602" y="444"/>
      <point x="584" y="444" type="qcurve"/>
      <point x="547" y="444"/>
      <point x="502" y="496"/>
      <point x="502" y="531" type="qcurve"/>
      <point x="502" y="535" type="line"/>
      <point x="497" y="536"/>
      <point x="486" y="521"/>
      <point x="475" y="501"/>
      <point x="466" y="482"/>
      <point x="464" y="478" type="qcurve"/>
      <point x="524" y="444"/>
      <point x="595" y="331"/>
      <point x="595" y="262" type="qcurve"/>
      <point x="595" y="208"/>
      <point x="550" y="114"/>
      <point x="475" y="45"/>
      <point x="377" y="6"/>
      <point x="324" y="6" type="qcurve"/>
      <point x="304" y="6"/>
      <point x="264" y="9"/>
      <point x="244" y="14" type="qcurve"/>
      <point x="230" y="5"/>
      <point x="230" y="-7" type="qcurve"/>
      <point x="230" y="-19"/>
      <point x="269" y="-32"/>
      <point x="318" y="-38"/>
      <point x="365" y="-40"/>
      <point x="373" y="-40" type="qcurve"/>
      <point x="427" y="-43"/>
      <point x="529" y="-75"/>
      <point x="608" y="-136"/>
      <point x="655" y="-226"/>
      <point x="655" y="-286" type="qcurve"/>
      <point x="655" y="-349"/>
      <point x="591" y="-435"/>
      <point x="494" y="-487"/>
      <point x="379" y="-510"/>
      <point x="328" y="-510" type="qcurve"/>
      <point x="276" y="-510"/>
      <point x="161" y="-487"/>
      <point x="64" y="-435"/>
      <point x="0" y="-349"/>
      <point x="0" y="-286" type="qcurve"/>
      <point x="0" y="-223"/>
      <point x="70" y="-141"/>
      <point x="123" y="-113" type="qcurve"/>
      <point x="97" y="-102"/>
      <point x="59" y="-66"/>
      <point x="59" y="-36" type="qcurve"/>
      <point x="59" y="-18"/>
      <point x="74" y="11"/>
      <point x="99" y="32"/>
      <point x="130" y="47"/>
      <point x="145" y="52" type="qcurve"/>
      <point x="91" y="87"/>
      <point x="25" y="196"/>
      <point x="25" y="262" type="qcurve"/>
      <point x="25" y="319"/>
      <point x="73" y="414"/>
      <point x="153" y="482"/>
      <point x="256" y="520"/>
      <point x="310" y="520" type="qcurve"/>
      <point x="346" y="520"/>
      <point x="384" y="511" type="qcurve"/>
      <point x="395" y="535"/>
      <point x="425" y="582"/>
      <point x="463" y="620"/>
      <point x="511" y="644"/>
      <point x="540" y="644" type="qcurve"/>
      <point x="562" y="644"/>
      <point x="609" y="630"/>
      <point x="647" y="603"/>
      <point x="672" y="565"/>
    </contour>
    <contour>
      <point x="443" y="262" type="qcurve"/>
      <point x="443" y="290"/>
      <point x="427" y="355"/>
      <point x="394" y="409"/>
      <point x="344" y="445"/>
      <point x="310" y="445" type="qcurve"/>
      <point x="276" y="445"/>
      <point x="226" y="409"/>
      <point x="192" y="355"/>
      <point x="175" y="291"/>
      <point x="175" y="262" type="qcurve"/>
      <point x="175" y="233"/>
      <point x="192" y="168"/>
      <point x="225" y="114"/>
      <point x="276" y="78"/>
      <point x="310" y="78" type="qcurve"/>
      <point x="344" y="78"/>
      <point x="394" y="114"/>
      <point x="427" y="169"/>
      <point x="443" y="233"/>
    </contour>
    <contour>
      <point x="499" y="-286" type="qcurve"/>
      <point x="499" y="-249"/>
      <point x="471" y="-195"/>
      <point x="423" y="-159"/>
      <point x="361" y="-142"/>
      <point x="328" y="-142" type="qcurve"/>
      <point x="295" y="-142"/>
      <point x="233" y="-159"/>
      <point x="186" y="-195"/>
      <point x="158" y="-249"/>
      <point x="158" y="-286" type="qcurve"/>
      <point x="158" y="-323"/>
      <point x="186" y="-377"/>
      <point x="233" y="-412"/>
      <point x="295" y="-429"/>
      <point x="328" y="-429" type="qcurve"/>
      <point x="361" y="-429"/>
      <point x="423" y="-412"/>
      <point x="471" y="-377"/>
      <point x="499" y="-323"/>
    </contour>
  </outline>
</glyph>
<glyph name="h" format="1">
  <advance width="695"/>
  <unicode hex="0068"/>
  <outline>
    <contour>
      <point x="787" y="-71" type="line"/>
      <point x="368" y="-59" type="line"/>
      <point x="510" y="18" type="line"/>
      <point x="510" y="201" type="line" smooth="yes"/>
      <point x="510" y="284"/>
      <point x="467" y="331"/>
      <point x="384" y="331" type="curve" smooth="yes"/>
      <point x="349" y="331"/>
      <point x="301" y="324"/>
      <point x="270" y="308" type="curve"/>
      <point x="266" y="232"/>
      <point x="263" y="157"/>
      <point x="260" y="81" type="curve"/>
      <point x="387" y="5" type="line"/>
      <point x="-32" y="-12" type="line"/>
      <point x="129" y="77" type="line"/>
      <point x="103" y="749" type="line"/>
      <point x="-143" y="814" type="line"/>
      <point x="295" y="879" type="line"/>
      <point x="274" y="399" type="line"/>
      <point x="307" y="410"/>
      <point x="342" y="413"/>
      <point x="377" y="413" type="curve" smooth="yes"/>
      <point x="381" y="413" type="line" smooth="yes"/>
      <point x="438" y="413"/>
      <point x="510" y="403"/>
      <point x="567" y="376" type="curve" smooth="yes"/>
      <point x="623" y="348"/>
      <point x="665" y="302"/>
      <point x="665" y="230" type="curve" smooth="yes"/>
      <point x="665" y="205"/>
      <point x="660" y="165"/>
      <point x="653" y="125" type="curve" smooth="yes"/>
      <point x="646" y="85"/>
      <point x="637" y="46"/>
      <point x="632" y="22" type="curve"/>
    </contour>
  </outline>
</glyph>
<glyph name="i" format="1">
  <advance width="403"/>
  <unicode hex="0069"/>
  <outline>
    <contour>
      <point x="339" y="678"/>
      <point x="327" y="651"/>
      <point x="308" y="632" type="curve" smooth="yes"/>
      <point x="288" y="612"/>
      <point x="261" y="600"/>
      <point x="232" y="600" type="curve" smooth="yes"/>
      <point x="203" y="600"/>
      <point x="177" y="612"/>
      <point x="158" y="632" type="curve"/>
      <point x="138" y="651"/>
      <point x="126" y="678"/>
      <point x="126" y="707" type="curve" smooth="yes"/>
      <point x="126" y="736"/>
      <point x="138" y="762"/>
      <point x="158" y="782" type="curve" smooth="yes"/>
      <point x="177" y="801"/>
      <point x="203" y="813"/>
      <point x="232" y="813" type="curve" smooth="yes"/>
      <point x="261" y="813"/>
      <point x="288" y="801"/>
      <point x="308" y="782" type="curve"/>
      <point x="327" y="762"/>
      <point x="339" y="736"/>
      <point x="339" y="707" type="curve" smooth="yes"/>
    </contour>
    <contour>
      <point x="456" y="-2" type="line"/>
      <point x="8" y="6" type="line"/>
      <point x="174" y="109" type="line"/>
      <point x="160" y="441" type="line"/>
      <point x="-31" y="531" type="line"/>
      <point x="336" y="531" type="line"/>
      <point x="303" y="102" type="line"/>
    </contour>
  </outline>
</glyph>
<glyph name="j" format="1">
  <advance width="395"/>
  <unicode hex="006A"/>
  <outline>
    <contour>
      <point x="276" y="644" type="qcurve"/>
      <point x="276" y="622"/>
      <point x="259" y="584"/>
      <point x="231" y="555"/>
      <point x="192" y="539"/>
      <point x="170" y="539" type="qcurve"/>
      <point x="148" y="539"/>
      <point x="109" y="555"/>
      <point x="80" y="584"/>
      <point x="63" y="622"/>
      <point x="63" y="644" type="qcurve"/>
      <point x="63" y="666"/>
      <point x="80" y="705"/>
      <point x="109" y="734"/>
      <point x="148" y="751"/>
      <point x="170" y="751" type="qcurve"/>
      <point x="192" y="751"/>
      <point x="231" y="734"/>
      <point x="259" y="705"/>
      <point x="276" y="666"/>
    </contour>
    <contour>
      <point x="355" y="-94" type="qcurve"/>
      <point x="355" y="-153"/>
      <point x="331" y="-247"/>
      <point x="278" y="-313"/>
      <point x="192" y="-349"/>
      <point x="130" y="-349" type="qcurve"/>
      <point x="93" y="-349"/>
      <point x="21" y="-324"/>
      <point x="-36" y="-279"/>
      <point x="-72" y="-215"/>
      <point x="-72" y="-175" type="qcurve"/>
      <point x="-72" y="-141"/>
      <point x="-30" y="-97"/>
      <point x="5" y="-97" type="qcurve"/>
      <point x="37" y="-97"/>
      <point x="86" y="-139"/>
      <point x="86" y="-173" type="qcurve"/>
      <point x="86" y="-190"/>
      <point x="71" y="-218"/>
      <point x="58" y="-228" type="qcurve"/>
      <point x="69" y="-250"/>
      <point x="102" y="-273"/>
      <point x="127" y="-273" type="qcurve"/>
      <point x="153" y="-273"/>
      <point x="186" y="-255"/>
      <point x="205" y="-225"/>
      <point x="212" y="-185"/>
      <point x="212" y="-162" type="qcurve"/>
      <point x="212" y="-141"/>
      <point x="208" y="-98"/>
      <point x="206" y="-78" type="qcurve"/>
      <point x="193" y="37"/>
      <point x="168" y="262"/>
      <point x="153" y="376" type="qcurve"/>
      <point x="-36" y="455" type="line"/>
      <point x="302" y="495" type="line"/>
      <point x="344" y="75" type="line"/>
      <point x="349" y="32"/>
      <point x="355" y="-52"/>
    </contour>
  </outline>
</glyph>
<glyph name="k" format="1">
  <advance width="767"/>
  <unicode hex="006B"/>
  <outline>
    <contour>
      <point x="890" y="-2" type="line"/>
      <point x="407" y="-105" type="line"/>
      <point x="567" y="15" type="line"/>
      <point x="364" y="326" type="line"/>
      <point x="285" y="273" type="line"/>
      <point x="281" y="90" type="line"/>
      <point x="481" y="10" type="line"/>
      <point x="-52" y="-11" type="line"/>
      <point x="145" y="89" type="line"/>
      <point x="103" y="738" type="line"/>
      <point x="-133" y="793" type="line"/>
      <point x="301" y="826" type="line"/>
      <point x="289" y="381" type="line"/>
      <point x="501" y="561" type="line"/>
      <point x="343" y="655" type="line"/>
      <point x="857" y="655" type="line"/>
      <point x="627" y="547" type="line"/>
      <point x="461" y="421" type="line"/>
      <point x="686" y="50" type="line"/>
    </contour>
  </outline>
</glyph>
<glyph name="l" format="1">
  <advance width="378"/>
  <unicode hex="006C"/>
  <outline>
    <contour>
      <point x="429" y="-61" type="line"/>
      <point x="-26" y="-78" type="line"/>
      <point x="145" y="31" type="line"/>
      <point x="112" y="787" type="line"/>
      <point x="-123" y="874" type="line"/>
      <point x="300" y="879" type="line"/>
      <point x="270" y="36" type="line"/>
    </contour>
  </outline>
</glyph>
<glyph name="m" format="1">
  <advance width="1014"/>
  <unicode hex="006D"/>
  <outline>
    <contour>
      <point x="1096" y="106" type="line"/>
      <point x="685" y="124" type="line"/>
      <point x="819" y="189" type="line"/>
      <point x="821" y="220"/>
      <point x="824" y="281"/>
      <point x="824" y="312" type="qcurve"/>
      <point x="824" y="338"/>
      <point x="816" y="379"/>
      <point x="796" y="408"/>
      <point x="759" y="424"/>
      <point x="731" y="424" type="qcurve"/>
      <point x="707" y="424"/>
      <point x="669" y="402"/>
      <point x="642" y="367"/>
      <point x="627" y="324"/>
      <point x="625" y="302" type="qcurve"/>
      <point x="620" y="260"/>
      <point x="612" y="174"/>
      <point x="608" y="132" type="qcurve"/>
      <point x="741" y="66" type="line"/>
      <point x="307" y="63" type="line"/>
      <point x="494" y="135" type="line"/>
      <point x="494" y="315" type="line"/>
      <point x="494" y="341"/>
      <point x="476" y="390"/>
      <point x="459" y="408" type="qcurve"/>
      <point x="444" y="422"/>
      <point x="407" y="431"/>
      <point x="387" y="431" type="qcurve"/>
      <point x="360" y="431"/>
      <point x="299" y="413"/>
      <point x="284" y="388" type="qcurve"/>
      <point x="262" y="194" type="line"/>
      <point x="394" y="121" type="line"/>
      <point x="-17" y="119" type="line"/>
      <point x="151" y="188" type="line"/>
      <point x="121" y="429" type="line"/>
      <point x="92" y="437"/>
      <point x="16" y="458"/>
      <point x="-19" y="469" type="qcurve"/>
      <point x="-59" y="481"/>
      <point x="-102" y="494" type="qcurve"/>
      <point x="295" y="560" type="line"/>
      <point x="290" y="499" type="line"/>
      <point x="329" y="524"/>
      <point x="412" y="542"/>
      <point x="454" y="542" type="qcurve"/>
      <point x="497" y="542"/>
      <point x="565" y="507"/>
      <point x="595" y="478" type="qcurve"/>
      <point x="639" y="501"/>
      <point x="739" y="537"/>
      <point x="790" y="537" type="qcurve"/>
      <point x="834" y="537"/>
      <point x="899" y="509"/>
      <point x="941" y="458"/>
      <point x="962" y="389"/>
      <point x="962" y="347" type="qcurve"/>
      <point x="962" y="328"/>
      <point x="957" y="275"/>
      <point x="954" y="249" type="qcurve"/>
      <point x="950" y="219"/>
      <point x="947" y="187" type="qcurve"/>
    </contour>
  </outline>
</glyph>
<glyph name="n" format="1">
  <advance width="659"/>
  <unicode hex="006E"/>
  <outline>
    <contour>
      <point x="741" y="66" type="line"/>
      <point x="307" y="63" type="line"/>
      <point x="494" y="135" type="line"/>
      <point x="494" y="315" type="line"/>
      <point x="494" y="368"/>
      <point x="441" y="431"/>
      <point x="387" y="431" type="qcurve"/>
      <point x="360" y="431"/>
      <point x="299" y="413"/>
      <point x="284" y="388" type="qcurve"/>
      <point x="262" y="194" type="line"/>
      <point x="272" y="186"/>
      <point x="315" y="162"/>
      <point x="338" y="150" type="qcurve"/>
      <point x="364" y="136"/>
      <point x="394" y="121" type="qcurve"/>
      <point x="-17" y="119" type="line"/>
      <point x="151" y="188" type="line"/>
      <point x="121" y="429" type="line"/>
      <point x="92" y="437"/>
      <point x="16" y="458"/>
      <point x="-19" y="469" type="qcurve"/>
      <point x="-59" y="481"/>
      <point x="-102" y="494" type="qcurve"/>
      <point x="295" y="560" type="line"/>
      <point x="290" y="499" type="line"/>
      <point x="325" y="513"/>
      <point x="405" y="541"/>
      <point x="443" y="541" type="qcurve"/>
      <point x="534" y="541"/>
      <point x="634" y="443"/>
      <point x="634" y="351" type="qcurve"/>
      <point x="634" y="328"/>
      <point x="629" y="271"/>
      <point x="621" y="213"/>
      <point x="612" y="156"/>
      <point x="608" y="132" type="qcurve"/>
    </contour>
  </outline>
</glyph>
<glyph name="o" format="1">
  <advance width="722"/>
  <unicode hex="006F"/>
  <outline>
    <contour>
      <point x="712" y="242" type="qcurve"/>
      <point x="712" y="173"/>
      <point x="643" y="78"/>
      <point x="536" y="19"/>
      <point x="410" y="-8"/>
      <point x="353" y="-8" type="qcurve"/>
      <point x="297" y="-8"/>
      <point x="176" y="20"/>
      <point x="75" y="80"/>
      <point x="10" y="175"/>
      <point x="10" y="242" type="qcurve"/>
      <point x="10" y="315"/>
      <point x="80" y="411"/>
      <point x="187" y="467"/>
      <point x="316" y="489"/>
      <point x="376" y="489" type="qcurve"/>
      <point x="431" y="489"/>
      <point x="550" y="461"/>
      <point x="649" y="402"/>
      <point x="712" y="308"/>
    </contour>
    <contour>
      <point x="547" y="244" type="qcurve"/>
      <point x="547" y="280"/>
      <point x="520" y="340"/>
      <point x="473" y="384"/>
      <point x="411" y="408"/>
      <point x="376" y="408" type="qcurve"/>
      <point x="340" y="408"/>
      <point x="268" y="387"/>
      <point x="210" y="347"/>
      <point x="174" y="286"/>
      <point x="174" y="247" type="qcurve"/>
      <point x="174" y="208"/>
      <point x="199" y="144"/>
      <point x="246" y="98"/>
      <point x="310" y="73"/>
      <point x="349" y="73" type="qcurve"/>
      <point x="391" y="73"/>
      <point x="463" y="92"/>
      <point x="517" y="134"/>
      <point x="547" y="199"/>
    </contour>
  </outline>
</glyph>
<glyph name="p" format="1">
  <advance width="741"/>
  <unicode hex="0070"/>
  <outline>
    <contour>
      <point x="731" y="259" type="qcurve"/>
      <point x="731" y="203"/>
      <point x="684" y="115"/>
      <point x="607" y="55"/>
      <point x="508" y="23"/>
      <point x="456" y="23" type="qcurve"/>
      <point x="413" y="23"/>
      <point x="328" y="36"/>
      <point x="288" y="51" type="qcurve"/>
      <point x="291" y="-144" type="line"/>
      <point x="498" y="-228" type="line"/>
      <point x="-73" y="-251" type="line"/>
      <point x="150" y="-151" type="line"/>
      <point x="148" y="-114"/>
      <point x="143" y="-23"/>
      <point x="137" y="75"/>
      <point x="131" y="175"/>
      <point x="128" y="222" type="qcurve"/>
      <point x="121" y="331"/>
      <point x="114" y="445" type="qcurve"/>
      <point x="-123" y="526" type="line"/>
      <point x="286" y="571" type="line"/>
      <point x="286" y="473" type="line"/>
      <point x="357" y="493"/>
      <point x="429" y="493" type="qcurve"/>
      <point x="483" y="493"/>
      <point x="590" y="467"/>
      <point x="677" y="411"/>
      <point x="731" y="322"/>
    </contour>
    <contour>
      <point x="579" y="267" type="qcurve"/>
      <point x="579" y="306"/>
      <point x="545" y="360"/>
      <point x="491" y="395"/>
      <point x="424" y="411"/>
      <point x="391" y="411" type="qcurve"/>
      <point x="364" y="411"/>
      <point x="311" y="398"/>
      <point x="287" y="387" type="qcurve"/>
      <point x="287" y="141" type="line"/>
      <point x="316" y="127"/>
      <point x="386" y="113"/>
      <point x="418" y="113" type="qcurve"/>
      <point x="453" y="113"/>
      <point x="512" y="134"/>
      <point x="555" y="174"/>
      <point x="579" y="231"/>
    </contour>
  </outline>
</glyph>
<glyph name="q" format="1">
  <advance width="699"/>
  <unicode hex="0071"/>
  <outline>
    <contour>
      <point x="833" y="580" type="line"/>
      <point x="626" y="480" type="line"/>
      <point x="589" y="-128" type="line"/>
      <point x="820" y="-228" type="line"/>
      <point x="244" y="-205" type="line"/>
      <point x="447" y="-121" type="line"/>
      <point x="451" y="73" type="line"/>
      <point x="411" y="57"/>
      <point x="327" y="44"/>
      <point x="285" y="44" type="qcurve"/>
      <point x="233" y="44"/>
      <point x="134" y="76"/>
      <point x="57" y="137"/>
      <point x="10" y="225"/>
      <point x="10" y="281" type="qcurve"/>
      <point x="10" y="344"/>
      <point x="64" y="432"/>
      <point x="149" y="488"/>
      <point x="256" y="513"/>
      <point x="310" y="513" type="qcurve"/>
      <point x="345" y="513"/>
      <point x="418" y="504"/>
      <point x="453" y="494" type="qcurve"/>
      <point x="453" y="575" type="line"/>
    </contour>
    <contour>
      <point x="453" y="408" type="line"/>
      <point x="402" y="431"/>
      <point x="349" y="431" type="qcurve"/>
      <point x="317" y="431"/>
      <point x="251" y="416"/>
      <point x="197" y="382"/>
      <point x="163" y="329"/>
      <point x="163" y="291" type="qcurve"/>
      <point x="163" y="218"/>
      <point x="250" y="136"/>
      <point x="323" y="136" type="qcurve"/>
      <point x="352" y="136"/>
      <point x="425" y="148"/>
      <point x="452" y="164" type="qcurve"/>
    </contour>
  </outline>
</glyph>
<glyph name="r" format="1">
  <advance width="610"/>
  <unicode hex="0072"/>
  <outline>
    <contour>
      <point x="641" y="433"/>
      <point x="605" y="394"/>
      <point x="549" y="394" type="curve" smooth="yes"/>
      <point x="508" y="394"/>
      <point x="488" y="412"/>
      <point x="473" y="432" type="curve"/>
      <point x="457" y="451"/>
      <point x="445" y="469"/>
      <point x="417" y="469" type="curve" smooth="yes"/>
      <point x="368" y="469"/>
      <point x="340" y="433"/>
      <point x="325" y="390" type="curve"/>
      <point x="324" y="389"/>
      <point x="324" y="382"/>
      <point x="324" y="371" type="curve"/>
      <point x="323" y="360"/>
      <point x="323" y="345"/>
      <point x="322" y="328" type="curve" smooth="yes"/>
      <point x="321" y="311"/>
      <point x="321" y="292"/>
      <point x="320" y="271" type="curve" smooth="yes"/>
      <point x="319" y="230"/>
      <point x="317" y="191"/>
      <point x="316" y="163" type="curve" smooth="yes"/>
      <point x="315" y="148"/>
      <point x="315" y="139"/>
      <point x="315" y="134" type="curve"/>
      <point x="558" y="46" type="line"/>
      <point x="-20" y="-13" type="line"/>
      <point x="49" y="31"/>
      <point x="119" y="74"/>
      <point x="188" y="117" type="curve"/>
      <point x="151" y="466" type="line"/>
      <point x="-72" y="526" type="line"/>
      <point x="331" y="614" type="line"/>
      <point x="329" y="522" type="line"/>
      <point x="385" y="561"/>
      <point x="442" y="592"/>
      <point x="514" y="592" type="curve" smooth="yes"/>
      <point x="538" y="592"/>
      <point x="564" y="587"/>
      <point x="587" y="576" type="curve" smooth="yes"/>
      <point x="610" y="565"/>
      <point x="628" y="547"/>
      <point x="636" y="522" type="curve"/>
      <point x="639" y="510"/>
      <point x="641" y="499"/>
      <point x="641" y="488" type="curve" smooth="yes"/>
    </contour>
  </outline>
</glyph>
<glyph name="s" format="1">
  <advance width="546"/>
  <unicode hex="0073"/>
  <outline>
    <contour>
      <point x="546" y="169" type="qcurve"/>
      <point x="546" y="119"/>
      <point x="500" y="55"/>
      <point x="430" y="18"/>
      <point x="344" y="3"/>
      <point x="304" y="3" type="qcurve"/>
      <point x="281" y="3"/>
      <point x="226" y="10"/>
      <point x="172" y="24"/>
      <point x="121" y="44"/>
      <point x="101" y="58" type="qcurve"/>
      <point x="20" y="-37" type="line"/>
      <point x="51" y="269" type="line"/>
      <point x="68" y="232"/>
      <point x="121" y="166"/>
      <point x="189" y="116"/>
      <point x="267" y="87"/>
      <point x="309" y="87" type="qcurve"/>
      <point x="320" y="87"/>
      <point x="349" y="90"/>
      <point x="376" y="100"/>
      <point x="394" y="118"/>
      <point x="394" y="133" type="qcurve"/>
      <point x="394" y="150"/>
      <point x="358" y="179"/>
      <point x="310" y="200"/>
      <point x="262" y="215"/>
      <point x="250" y="219" type="qcurve"/>
      <point x="216" y="229"/>
      <point x="135" y="264"/>
      <point x="66" y="313"/>
      <point x="20" y="380"/>
      <point x="20" y="424" type="qcurve"/>
      <point x="20" y="466"/>
      <point x="61" y="532"/>
      <point x="125" y="577"/>
      <point x="204" y="600"/>
      <point x="242" y="600" type="qcurve"/>
      <point x="302" y="600"/>
      <point x="409" y="557"/>
      <point x="453" y="517" type="qcurve"/>
      <point x="515" y="637" type="line"/>
      <point x="502" y="321" type="line"/>
      <point x="484" y="355"/>
      <point x="430" y="424"/>
      <point x="364" y="480"/>
      <point x="288" y="514"/>
      <point x="247" y="514" type="qcurve"/>
      <point x="235" y="514"/>
      <point x="204" y="509"/>
      <point x="177" y="497"/>
      <point x="158" y="476"/>
      <point x="158" y="460" type="qcurve"/>
      <point x="158" y="441"/>
      <point x="187" y="413"/>
      <point x="228" y="392"/>
      <point x="271" y="377"/>
      <point x="285" y="373" type="qcurve"/>
      <point x="321" y="361"/>
      <point x="411" y="329"/>
      <point x="491" y="283"/>
      <point x="546" y="216"/>
    </contour>
  </outline>
</glyph>
<glyph name="t" format="1">
  <advance width="433"/>
  <unicode hex="0074"/>
  <outline>
    <contour>
      <point x="459" y="646" type="line"/>
      <point x="450" y="552" type="line"/>
      <point x="417" y="555"/>
      <point x="385" y="557"/>
      <point x="353" y="560" type="curve" smooth="yes"/>
      <point x="321" y="562"/>
      <point x="289" y="565"/>
      <point x="256" y="568" type="curve"/>
      <point x="251" y="505"/>
      <point x="245" y="442"/>
      <point x="239" y="379" type="curve" smooth="yes"/>
      <point x="233" y="316"/>
      <point x="227" y="253"/>
      <point x="221" y="190" type="curve"/>
      <point x="221" y="187"/>
      <point x="221" y="183"/>
      <point x="220" y="180" type="curve" smooth="yes"/>
      <point x="219" y="177"/>
      <point x="219" y="173"/>
      <point x="219" y="170" type="curve" smooth="yes"/>
      <point x="219" y="151"/>
      <point x="223" y="131"/>
      <point x="232" y="116" type="curve" smooth="yes"/>
      <point x="241" y="100"/>
      <point x="256" y="89"/>
      <point x="279" y="89" type="curve" smooth="yes"/>
      <point x="323" y="89"/>
      <point x="356" y="112"/>
      <point x="379" y="144" type="curve" smooth="yes"/>
      <point x="402" y="176"/>
      <point x="415" y="217"/>
      <point x="419" y="256" type="curve"/>
      <point x="427" y="225"/>
      <point x="431" y="194"/>
      <point x="431" y="163" type="curve" smooth="yes"/>
      <point x="431" y="104"/>
      <point x="411" y="57"/>
      <point x="378" y="23" type="curve" smooth="yes"/>
      <point x="345" y="-11"/>
      <point x="297" y="-31"/>
      <point x="241" y="-31" type="curve" smooth="yes"/>
      <point x="182" y="-31"/>
      <point x="138" y="-10"/>
      <point x="110" y="26" type="curve" smooth="yes"/>
      <point x="81" y="61"/>
      <point x="67" y="110"/>
      <point x="67" y="165" type="curve" smooth="yes"/>
      <point x="67" y="170"/>
      <point x="67" y="175"/>
      <point x="67" y="180" type="curve" smooth="yes"/>
      <point x="67" y="185"/>
      <point x="67" y="190"/>
      <point x="68" y="195" type="curve"/>
      <point x="79" y="324"/>
      <point x="89" y="449"/>
      <point x="97" y="578" type="curve"/>
      <point x="61" y="581"/>
      <point x="26" y="584"/>
      <point x="-10" y="588" type="curve"/>
      <point x="-6" y="667" type="line"/>
      <point x="22" y="668"/>
      <point x="54" y="677"/>
      <point x="83" y="690" type="curve" smooth="yes"/>
      <point x="111" y="703"/>
      <point x="137" y="722"/>
      <point x="153" y="746" type="curve" smooth="yes"/>
      <point x="168" y="770"/>
      <point x="181" y="798"/>
      <point x="191" y="829" type="curve" smooth="yes"/>
      <point x="201" y="860"/>
      <point x="207" y="890"/>
      <point x="210" y="918" type="curve"/>
      <point x="292" y="916" type="line"/>
      <point x="266" y="666" type="line"/>
    </contour>
  </outline>
</glyph>
<glyph name="u" format="1">
  <advance width="629"/>
  <unicode hex="0075"/>
  <outline>
    <contour>
      <point x="711" y="3" type="line"/>
      <point x="437" y="-48" type="line"/>
      <point x="440" y="42" type="line"/>
      <point x="429" y="28"/>
      <point x="395" y="7"/>
      <point x="356" y="-6"/>
      <point x="316" y="-12"/>
      <point x="298" y="-12" type="qcurve"/>
      <point x="173" y="-12"/>
      <point x="63" y="108"/>
      <point x="63" y="229" type="qcurve"/>
      <point x="63" y="276"/>
      <point x="65" y="366"/>
      <point x="66" y="412" type="qcurve"/>
      <point x="27" y="435"/>
      <point x="-53" y="479"/>
      <point x="-92" y="502" type="qcurve"/>
      <point x="232" y="504" type="line"/>
      <point x="225" y="432"/>
      <point x="206" y="273"/>
      <point x="206" y="202" type="qcurve"/>
      <point x="206" y="139"/>
      <point x="262" y="81"/>
      <point x="325" y="81" type="qcurve"/>
      <point x="357" y="81"/>
      <point x="421" y="117"/>
      <point x="440" y="142" type="qcurve"/>
      <point x="453" y="398" type="line"/>
      <point x="274" y="485" type="line"/>
      <point x="618" y="488" type="line"/>
      <point x="550" y="62" type="line"/>
    </contour>
  </outline>
</glyph>
<glyph name="v" format="1">
  <advance width="655"/>
  <unicode hex="0076"/>
  <outline>
    <contour>
      <point x="778" y="449" type="line"/>
      <point x="573" y="365" type="line"/>
      <point x="348" y="-85" type="line"/>
      <point x="52" y="434" type="line"/>
      <point x="-133" y="485" type="line"/>
      <point x="374" y="565" type="line"/>
      <point x="219" y="459" type="line"/>
      <point x="366" y="159" type="line"/>
      <point x="480" y="378" type="line"/>
      <point x="304" y="484" type="line"/>
    </contour>
  </outline>
</glyph>
<glyph name="w" format="1">
  <advance width="825"/>
  <unicode hex="0077"/>
  <outline>
    <contour>
      <point x="979" y="538" type="line"/>
      <point x="784" y="469" type="line"/>
      <point x="560" y="-20" type="line"/>
      <point x="418" y="268" type="line"/>
      <point x="289" y="-17" type="line"/>
      <point x="55" y="467" type="line"/>
      <point x="-133" y="545" type="line"/>
      <point x="392" y="569" type="line"/>
      <point x="223" y="498" type="line"/>
      <point x="327" y="265" type="line"/>
      <point x="451" y="552" type="line"/>
      <point x="583" y="258" type="line"/>
      <point x="685" y="479" type="line"/>
      <point x="540" y="557" type="line"/>
    </contour>
  </outline>
</glyph>
<glyph name="x" format="1">
  <advance width="735"/>
  <unicode hex="0078"/>
  <outline>
    <contour>
      <point x="848" y="11" type="line"/>
      <point x="322" y="-46" type="line"/>
      <point x="474" y="43" type="line"/>
      <point x="352" y="178" type="line"/>
      <point x="274" y="108" type="line"/>
      <point x="415" y="30" type="line"/>
      <point x="-61" y="57" type="line"/>
      <point x="151" y="127" type="line"/>
      <point x="289" y="247" type="line"/>
      <point x="103" y="462" type="line"/>
      <point x="-113" y="505" type="line"/>
      <point x="469" y="579" type="line"/>
      <point x="276" y="493" type="line"/>
      <point x="399" y="349" type="line"/>
      <point x="486" y="425" type="line"/>
      <point x="341" y="488" type="line"/>
      <point x="826" y="500" type="line"/>
      <point x="611" y="409" type="line"/>
      <point x="447" y="284" type="line"/>
      <point x="614" y="72" type="line"/>
    </contour>
  </outline>
</glyph>
<glyph name="y" format="1">
  <advance width="671"/>
  <unicode hex="0079"/>
  <outline>
    <contour>
      <point x="640" y="472" type="line"/>
      <point x="615" y="-124" type="line"/>
      <point x="612" y="-199"/>
      <point x="570" y="-323"/>
      <point x="491" y="-412"/>
      <point x="372" y="-460"/>
      <point x="293" y="-460" type="qcurve"/>
      <point x="249" y="-460"/>
      <point x="159" y="-434"/>
      <point x="86" y="-383"/>
      <point x="40" y="-309"/>
      <point x="40" y="-260" type="qcurve"/>
      <point x="40" y="-222"/>
      <point x="88" y="-173"/>
      <point x="126" y="-173" type="qcurve"/>
      <point x="158" y="-173"/>
      <point x="202" y="-221"/>
      <point x="202" y="-252" type="qcurve"/>
      <point x="202" y="-272"/>
      <point x="177" y="-306"/>
      <point x="160" y="-314" type="qcurve"/>
      <point x="182" y="-343"/>
      <point x="252" y="-373"/>
      <point x="287" y="-373" type="qcurve"/>
      <point x="339" y="-373"/>
      <point x="402" y="-321"/>
      <point x="436" y="-243"/>
      <point x="449" y="-152"/>
      <point x="452" y="-112" type="qcurve"/>
      <point x="454" y="-71"/>
      <point x="455" y="8"/>
      <point x="457" y="48" type="qcurve"/>
      <point x="410" y="36"/>
      <point x="329" y="19"/>
      <point x="281" y="19" type="qcurve"/>
      <point x="232" y="19"/>
      <point x="143" y="41"/>
      <point x="76" y="89"/>
      <point x="36" y="165"/>
      <point x="36" y="219" type="qcurve"/>
      <point x="36" y="234"/>
      <point x="47" y="285"/>
      <point x="62" y="339"/>
      <point x="78" y="389"/>
      <point x="82" y="402" type="qcurve"/>
      <point x="-61" y="560" type="line"/>
      <point x="282" y="442" type="line"/>
      <point x="276" y="425"/>
      <point x="255" y="361"/>
      <point x="233" y="292"/>
      <point x="217" y="229"/>
      <point x="217" y="214" type="qcurve"/>
      <point x="217" y="189"/>
      <point x="241" y="153"/>
      <point x="278" y="129"/>
      <point x="323" y="118"/>
      <point x="345" y="118" type="qcurve"/>
      <point x="371" y="118"/>
      <point x="436" y="128"/>
      <point x="461" y="139" type="qcurve"/>
      <point x="463" y="388" type="line"/>
      <point x="273" y="511" type="line"/>
    </contour>
  </outline>
</glyph>
<glyph name="z" format="1">
  <advance width="563"/>
  <unicode hex="007A"/>
  <outline>
    <contour>
      <point x="604" y="536" type="line"/>
      <point x="278" y="95" type="line"/>
      <point x="433" y="79" type="line"/>
      <point x="530" y="296" type="line"/>
      <point x="547" y="-19" type="line"/>
      <point x="10" y="18" type="line"/>
      <point x="349" y="443" type="line"/>
      <point x="144" y="436" type="line"/>
      <point x="75" y="211" type="line"/>
      <point x="14" y="521" type="line"/>
    </contour>
  </outline>
</glyph>
<glyph name="braceleft" format="1">
  <advance width="725"/>
  <unicode hex="007B"/>
  <outline>
    <contour>
      <point x="653" y="830" type="line"/>
      <point x="419" y="719" type="line"/>
      <point x="407" y="-13" type="line"/>
      <point x="622" y="-123" type="line"/>
      <point x="280" y="-121" type="line"/>
      <point x="268" y="290" type="line"/>
      <point x="72" y="348" type="line"/>
      <point x="263" y="411" type="line"/>
      <point x="253" y="842" type="line"/>
    </contour>
  </outline>
</glyph>
<glyph name="bar" format="1">
  <advance width="312"/>
  <unicode hex="007C"/>
  <outline>
    <contour>
      <point x="241" y="859" type="line"/>
      <point x="227" y="-76" type="line"/>
      <point x="83" y="-76" type="line"/>
      <point x="72" y="852" type="line"/>
    </contour>
  </outline>
</glyph>
<glyph name="braceright" format="1">
  <advance width="530"/>
  <unicode hex="007D"/>
  <outline>
    <contour>
      <point x="571" y="348" type="line"/>
      <point x="375" y="290" type="line"/>
      <point x="364" y="-121" type="line"/>
      <point x="22" y="-123" type="line"/>
      <point x="237" y="-13" type="line"/>
      <point x="224" y="719" type="line"/>
      <point x="-10" y="830" type="line"/>
      <point x="390" y="842" type="line"/>
      <point x="379" y="411" type="line"/>
    </contour>
  </outline>
</glyph>
<glyph name="asciitilde" format="1">
  <advance width="478"/>
  <unicode hex="007E"/>
  <outline>
    <contour>
      <point x="478" y="261" type="line"/>
      <point x="445" y="247"/>
      <point x="381" y="228"/>
      <point x="345" y="228" type="qcurve"/>
      <point x="313" y="228"/>
      <point x="254" y="244"/>
      <point x="199" y="262"/>
      <point x="150" y="278"/>
      <point x="129" y="278" type="qcurve"/>
      <point x="115" y="278"/>
      <point x="79" y="263"/>
      <point x="43" y="242"/>
      <point x="11" y="220"/>
      <point x="0" y="214" type="qcurve"/>
      <point x="0" y="383" type="line"/>
      <point x="32" y="394"/>
      <point x="99" y="415"/>
      <point x="134" y="415" type="qcurve"/>
      <point x="165" y="415"/>
      <point x="224" y="400"/>
      <point x="277" y="382"/>
      <point x="323" y="367"/>
      <point x="342" y="367" type="qcurve"/>
      <point x="357" y="367"/>
      <point x="394" y="381"/>
      <point x="432" y="401"/>
      <point x="466" y="422"/>
      <point x="478" y="429" type="qcurve"/>
    </contour>
  </outline>
</glyph>
<glyph name="exclamdown" format="1">
  <advance width="313"/>
  <unicode hex="00A1"/>
  <outline>
    <contour>
      <point x="313" y="481" type="qcurve"/>
      <point x="313" y="459"/>
      <point x="294" y="428"/>
      <point x="263" y="409"/>
      <point x="225" y="400"/>
      <point x="207" y="400" type="qcurve"/>
      <point x="190" y="400"/>
      <point x="157" y="413"/>
      <point x="132" y="436"/>
      <point x="117" y="467"/>
      <point x="117" y="485" type="qcurve"/>
      <point x="117" y="504"/>
      <point x="134" y="532"/>
      <point x="160" y="550"/>
      <point x="193" y="558"/>
      <point x="209" y="558" type="qcurve"/>
      <point x="225" y="558"/>
      <point x="262" y="548"/>
      <point x="293" y="528"/>
      <point x="313" y="500"/>
    </contour>
    <contour>
      <point x="252" y="349" type="line"/>
      <point x="224" y="-317" type="line"/>
      <point x="10" y="-302" type="line"/>
      <point x="132" y="362" type="line"/>
    </contour>
  </outline>
</glyph>
<glyph name="cent" format="1">
  <advance width="428"/>
  <unicode hex="00A2"/>
  <outline>
    <contour>
      <point x="439" y="275" type="line" smooth="yes"/>
      <point x="439" y="232"/>
      <point x="425" y="188"/>
      <point x="399" y="151" type="curve" smooth="yes"/>
      <point x="373" y="114"/>
      <point x="335" y="85"/>
      <point x="291" y="74" type="curve"/>
      <point x="298" y="13"/>
      <point x="299" y="-46"/>
      <point x="302" y="-106" type="curve"/>
      <point x="162" y="-106" type="line"/>
      <point x="165" y="-47"/>
      <point x="167" y="11"/>
      <point x="174" y="71" type="curve"/>
      <point x="114" y="83"/>
      <point x="69" y="116"/>
      <point x="38" y="160" type="curve" smooth="yes"/>
      <point x="6" y="204"/>
      <point x="-10" y="259"/>
      <point x="-10" y="318" type="curve" smooth="yes"/>
      <point x="-10" y="377"/>
      <point x="7" y="432"/>
      <point x="38" y="477" type="curve" smooth="yes"/>
      <point x="69" y="521"/>
      <point x="115" y="556"/>
      <point x="172" y="572" type="curve"/>
      <point x="168" y="625"/>
      <point x="165" y="678"/>
      <point x="162" y="731" type="curve"/>
      <point x="302" y="731" type="line"/>
      <point x="299" y="680"/>
      <point x="296" y="629"/>
      <point x="292" y="578" type="curve"/>
      <point x="321" y="571"/>
      <point x="355" y="553"/>
      <point x="382" y="528" type="curve" smooth="yes"/>
      <point x="409" y="503"/>
      <point x="428" y="469"/>
      <point x="428" y="436" type="curve" smooth="yes"/>
      <point x="428" y="401"/>
      <point x="402" y="375"/>
      <point x="367" y="375" type="curve" smooth="yes"/>
      <point x="328" y="375"/>
      <point x="297" y="401"/>
      <point x="297" y="440" type="curve" smooth="yes"/>
      <point x="297" y="457"/>
      <point x="301" y="471"/>
      <point x="309" y="483" type="curve"/>
      <point x="292" y="506"/>
      <point x="264" y="514"/>
      <point x="237" y="514" type="curve" smooth="yes"/>
      <point x="190" y="514"/>
      <point x="160" y="485"/>
      <point x="142" y="447" type="curve" smooth="yes"/>
      <point x="124" y="409"/>
      <point x="117" y="362"/>
      <point x="117" y="326" type="curve" smooth="yes"/>
      <point x="117" y="279"/>
      <point x="128" y="237"/>
      <point x="152" y="205" type="curve" smooth="yes"/>
      <point x="175" y="173"/>
      <point x="210" y="153"/>
      <point x="259" y="153" type="curve" smooth="yes"/>
      <point x="262" y="153" type="line" smooth="yes"/>
      <point x="301" y="153"/>
      <point x="337" y="169"/>
      <point x="367" y="193" type="curve" smooth="yes"/>
      <point x="397" y="217"/>
      <point x="422" y="249"/>
      <point x="439" y="281" type="curve"/>
    </contour>
  </outline>
</glyph>
<glyph name="sterling" format="1">
  <advance width="674"/>
  <unicode hex="00A3"/>
  <outline>
    <contour>
      <point x="684" y="325" type="qcurve"/>
      <point x="664" y="-45" type="line"/>
      <point x="69" y="-20" type="line"/>
      <point x="101" y="17"/>
      <point x="161" y="112"/>
      <point x="177" y="160" type="qcurve"/>
      <point x="0" y="167" type="line"/>
      <point x="6" y="260" type="line"/>
      <point x="186" y="264" type="line"/>
      <point x="182" y="281"/>
      <point x="168" y="309"/>
      <point x="160" y="324" type="qcurve"/>
      <point x="0" y="319" type="line"/>
      <point x="5" y="443" type="line"/>
      <point x="113" y="439" type="line"/>
      <point x="112" y="447"/>
      <point x="112" y="461"/>
      <point x="112" y="468" type="qcurve"/>
      <point x="112" y="516"/>
      <point x="158" y="593"/>
      <point x="230" y="646"/>
      <point x="319" y="675"/>
      <point x="362" y="675" type="qcurve"/>
      <point x="417" y="675"/>
      <point x="521" y="635"/>
      <point x="560" y="597" type="qcurve"/>
      <point x="668" y="741" type="line"/>
      <point x="610" y="297" type="line"/>
      <point x="602" y="335"/>
      <point x="574" y="413"/>
      <point x="533" y="484"/>
      <point x="476" y="542"/>
      <point x="439" y="559" type="qcurve"/>
      <point x="427" y="565"/>
      <point x="393" y="575"/>
      <point x="379" y="575" type="qcurve"/>
      <point x="351" y="575"/>
      <point x="309" y="554"/>
      <point x="281" y="519"/>
      <point x="267" y="473"/>
      <point x="267" y="447" type="qcurve"/>
      <point x="267" y="443"/>
      <point x="268" y="437"/>
      <point x="268" y="433" type="qcurve"/>
      <point x="487" y="424" type="line"/>
      <point x="481" y="331" type="line"/>
      <point x="294" y="327" type="line"/>
      <point x="299" y="312"/>
      <point x="306" y="283"/>
      <point x="309" y="267" type="qcurve"/>
      <point x="487" y="271" type="line"/>
      <point x="482" y="147" type="line"/>
      <point x="299" y="155" type="line"/>
      <point x="294" y="135"/>
      <point x="279" y="97"/>
      <point x="269" y="80" type="qcurve"/>
      <point x="346" y="82"/>
      <point x="498" y="86"/>
      <point x="574" y="88" type="qcurve"/>
      <point x="603" y="146"/>
      <point x="657" y="265"/>
    </contour>
  </outline>
</glyph>
<glyph name="currency" format="1">
  <advance width="367"/>
  <unicode hex="00A4"/>
  <outline>
    <contour>
      <point x="239" y="396"/>
      <point x="216" y="418"/>
      <point x="188" y="418" type="curve" smooth="yes"/>
      <point x="161" y="418"/>
      <point x="139" y="396"/>
      <point x="139" y="369" type="curve" smooth="yes"/>
      <point x="139" y="342"/>
      <point x="165" y="323"/>
      <point x="188" y="323" type="curve" smooth="yes"/>
      <point x="213" y="323"/>
      <point x="239" y="342"/>
      <point x="239" y="369" type="curve" smooth="yes"/>
    </contour>
    <contour>
      <point x="367" y="464" type="line"/>
      <point x="315" y="417" type="line"/>
      <point x="321" y="402"/>
      <point x="324" y="386"/>
      <point x="324" y="371" type="curve" smooth="yes"/>
      <point x="324" y="348"/>
      <point x="317" y="328"/>
      <point x="308" y="309" type="curve"/>
      <point x="364" y="249" type="line"/>
      <point x="298" y="190" type="line"/>
      <point x="239" y="246" type="line"/>
      <point x="223" y="239"/>
      <point x="207" y="236"/>
      <point x="188" y="236" type="curve" smooth="yes"/>
      <point x="170" y="236"/>
      <point x="151" y="240"/>
      <point x="132" y="249" type="curve"/>
      <point x="62" y="184" type="line"/>
      <point x="4" y="251" type="line"/>
      <point x="66" y="315" type="line"/>
      <point x="57" y="332"/>
      <point x="53" y="351"/>
      <point x="53" y="371" type="curve" smooth="yes"/>
      <point x="53" y="384"/>
      <point x="56" y="399"/>
      <point x="61" y="415" type="curve"/>
      <point x="0" y="473" type="line"/>
      <point x="84" y="553" type="line"/>
      <point x="137" y="496" type="line"/>
      <point x="154" y="503"/>
      <point x="171" y="507"/>
      <point x="188" y="507" type="curve" smooth="yes"/>
      <point x="207" y="507"/>
      <point x="222" y="504"/>
      <point x="238" y="497" type="curve"/>
      <point x="288" y="549" type="line"/>
    </contour>
  </outline>
</glyph>
<glyph name="yen" format="1">
  <advance width="816"/>
  <unicode hex="00A5"/>
  <outline>
    <contour>
      <point x="847" y="602" type="line"/>
      <point x="631" y="519" type="line"/>
      <point x="437" y="322" type="line"/>
      <point x="439" y="310" type="line"/>
      <point x="587" y="306" type="line"/>
      <point x="577" y="248" type="line"/>
      <point x="447" y="245" type="line"/>
      <point x="450" y="214" type="line"/>
      <point x="586" y="217" type="line"/>
      <point x="580" y="137" type="line"/>
      <point x="459" y="141" type="line"/>
      <point x="460" y="90" type="line"/>
      <point x="711" y="16" type="line"/>
      <point x="88" y="13" type="line"/>
      <point x="317" y="91" type="line"/>
      <point x="318" y="146" type="line"/>
      <point x="162" y="153" type="line"/>
      <point x="175" y="208" type="line"/>
      <point x="323" y="211" type="line"/>
      <point x="324" y="243" type="line"/>
      <point x="165" y="240" type="line"/>
      <point x="171" y="321" type="line"/>
      <point x="324" y="314" type="line"/>
      <point x="83" y="567" type="line"/>
      <point x="-133" y="628" type="line"/>
      <point x="345" y="678" type="line"/>
      <point x="218" y="605" type="line"/>
      <point x="408" y="396" type="line"/>
      <point x="558" y="536" type="line"/>
      <point x="411" y="617" type="line"/>
    </contour>
  </outline>
</glyph>
<glyph name="brokenbar" format="1">
  <advance width="312"/>
  <unicode hex="00A6"/>
  <outline>
    <contour>
      <point x="227" y="-76" type="line"/>
      <point x="83" y="-76" type="line"/>
      <point x="78" y="314" type="line"/>
      <point x="125" y="310"/>
      <point x="183" y="307"/>
      <point x="232" y="304" type="curve"/>
    </contour>
    <contour>
      <point x="241" y="859" type="line"/>
      <point x="236" y="499" type="line"/>
      <point x="209" y="498"/>
      <point x="181" y="496"/>
      <point x="152" y="494" type="curve" smooth="yes"/>
      <point x="123" y="492"/>
      <point x="98" y="490"/>
      <point x="76" y="489" type="curve"/>
      <point x="72" y="852" type="line"/>
    </contour>
  </outline>
</glyph>
<glyph name="section" format="1">
  <advance width="662"/>
  <unicode hex="00A7"/>
  <outline>
    <contour>
      <point x="622" y="-104"/>
      <point x="588" y="-154"/>
      <point x="537" y="-185" type="curve" smooth="yes"/>
      <point x="486" y="-217"/>
      <point x="420" y="-229"/>
      <point x="355" y="-229" type="curve" smooth="yes"/>
      <point x="315" y="-229"/>
      <point x="272" y="-222"/>
      <point x="231" y="-209" type="curve" smooth="yes"/>
      <point x="190" y="-197"/>
      <point x="152" y="-177"/>
      <point x="121" y="-152" type="curve"/>
      <point x="97" y="-199"/>
      <point x="75" y="-245"/>
      <point x="44" y="-286" type="curve"/>
      <point x="73" y="72" type="line"/>
      <point x="101" y="16"/>
      <point x="140" y="-37"/>
      <point x="189" y="-76" type="curve" smooth="yes"/>
      <point x="237" y="-116"/>
      <point x="294" y="-142"/>
      <point x="361" y="-142" type="curve" smooth="yes"/>
      <point x="385" y="-142"/>
      <point x="412" y="-138"/>
      <point x="433" y="-126" type="curve" smooth="yes"/>
      <point x="453" y="-115"/>
      <point x="469" y="-98"/>
      <point x="469" y="-70" type="curve" smooth="yes"/>
      <point x="469" y="-35"/>
      <point x="439" y="-8"/>
      <point x="403" y="12" type="curve" smooth="yes"/>
      <point x="366" y="32"/>
      <point x="323" y="47"/>
      <point x="296" y="56" type="curve" smooth="yes"/>
      <point x="239" y="77"/>
      <point x="175" y="107"/>
      <point x="126" y="149" type="curve" smooth="yes"/>
      <point x="77" y="191"/>
      <point x="41" y="245"/>
      <point x="41" y="314" type="curve" smooth="yes"/>
      <point x="41" y="394"/>
      <point x="80" y="451"/>
      <point x="144" y="496" type="curve"/>
      <point x="85" y="543"/>
      <point x="41" y="599"/>
      <point x="41" y="676" type="curve" smooth="yes"/>
      <point x="41" y="741"/>
      <point x="71" y="796"/>
      <point x="116" y="835" type="curve" smooth="yes"/>
      <point x="161" y="874"/>
      <point x="223" y="897"/>
      <point x="284" y="897" type="curve" smooth="yes"/>
      <point x="384" y="897"/>
      <point x="461" y="851"/>
      <point x="528" y="779" type="curve"/>
      <point x="585" y="928" type="line"/>
      <point x="572" y="582" type="line"/>
      <point x="544" y="633"/>
      <point x="506" y="689"/>
      <point x="459" y="733" type="curve" smooth="yes"/>
      <point x="411" y="776"/>
      <point x="354" y="807"/>
      <point x="290" y="807" type="curve" smooth="yes"/>
      <point x="265" y="807"/>
      <point x="238" y="801"/>
      <point x="216" y="788" type="curve" smooth="yes"/>
      <point x="194" y="775"/>
      <point x="178" y="753"/>
      <point x="178" y="724" type="curve" smooth="yes"/>
      <point x="178" y="688"/>
      <point x="202" y="661"/>
      <point x="233" y="641" type="curve" smooth="yes"/>
      <point x="264" y="621"/>
      <point x="302" y="608"/>
      <point x="330" y="597" type="curve" smooth="yes"/>
      <point x="359" y="585"/>
      <point x="391" y="572"/>
      <point x="425" y="559" type="curve" smooth="yes"/>
      <point x="493" y="531"/>
      <point x="554" y="493"/>
      <point x="593" y="438" type="curve" smooth="yes"/>
      <point x="612" y="411"/>
      <point x="622" y="378"/>
      <point x="622" y="339" type="curve" smooth="yes"/>
      <point x="622" y="246"/>
      <point x="587" y="198"/>
      <point x="503" y="159" type="curve"/>
      <point x="538" y="135"/>
      <point x="568" y="112"/>
      <point x="589" y="82" type="curve" smooth="yes"/>
      <point x="609" y="52"/>
      <point x="622" y="17"/>
      <point x="622" y="-28" type="curve" smooth="yes"/>
    </contour>
    <contour>
      <point x="469" y="332"/>
      <point x="427" y="363"/>
      <point x="379" y="386" type="curve" smooth="yes"/>
      <point x="354" y="397"/>
      <point x="329" y="407"/>
      <point x="304" y="416" type="curve" smooth="yes"/>
      <point x="278" y="425"/>
      <point x="258" y="432"/>
      <point x="243" y="438" type="curve"/>
      <point x="208" y="427"/>
      <point x="178" y="402"/>
      <point x="178" y="362" type="curve" smooth="yes"/>
      <point x="178" y="335"/>
      <point x="188" y="317"/>
      <point x="204" y="302" type="curve" smooth="yes"/>
      <point x="219" y="287"/>
      <point x="240" y="276"/>
      <point x="261" y="265" type="curve" smooth="yes"/>
      <point x="279" y="256"/>
      <point x="297" y="248"/>
      <point x="316" y="241" type="curve" smooth="yes"/>
      <point x="335" y="234"/>
      <point x="353" y="226"/>
      <point x="372" y="219" type="curve"/>
      <point x="393" y="220"/>
      <point x="417" y="225"/>
      <point x="437" y="237" type="curve" smooth="yes"/>
      <point x="456" y="249"/>
      <point x="469" y="267"/>
      <point x="469" y="292" type="curve" smooth="yes"/>
    </contour>
  </outline>
</glyph>
<glyph name="dieresis" format="1">
  <advance width="726"/>
  <unicode hex="00A8"/>
  <outline>
    <contour>
      <point x="517" y="872"/>
      <point x="489" y="842"/>
      <point x="454" y="842" type="curve" smooth="yes"/>
      <point x="419" y="842"/>
      <point x="391" y="872"/>
      <point x="391" y="907" type="curve" smooth="yes"/>
      <point x="391" y="942"/>
      <point x="419" y="968"/>
      <point x="454" y="968" type="curve" smooth="yes"/>
      <point x="489" y="968"/>
      <point x="517" y="942"/>
      <point x="517" y="907" type="curve" smooth="yes"/>
    </contour>
    <contour>
      <point x="335" y="872"/>
      <point x="307" y="842"/>
      <point x="272" y="842" type="curve" smooth="yes"/>
      <point x="236" y="842"/>
      <point x="209" y="872"/>
      <point x="209" y="907" type="curve" smooth="yes"/>
      <point x="209" y="942"/>
      <point x="236" y="968"/>
      <point x="272" y="968" type="curve" smooth="yes"/>
      <point x="307" y="968"/>
      <point x="335" y="942"/>
      <point x="335" y="907" type="curve" smooth="yes"/>
    </contour>
  </outline>
</glyph>
<glyph name="copyright" format="1">
  <advance width="717"/>
  <unicode hex="00A9"/>
  <outline>
    <contour>
      <point x="717" y="372" type="qcurve"/>
      <point x="717" y="295"/>
      <point x="656" y="174"/>
      <point x="554" y="90"/>
      <point x="421" y="46"/>
      <point x="349" y="46" type="qcurve"/>
      <point x="278" y="46"/>
      <point x="151" y="92"/>
      <point x="56" y="176"/>
      <point x="0" y="296"/>
      <point x="0" y="371" type="qcurve"/>
      <point x="0" y="454"/>
      <point x="59" y="575"/>
      <point x="160" y="653"/>
      <point x="296" y="691"/>
      <point x="373" y="691" type="qcurve"/>
      <point x="443" y="691"/>
      <point x="568" y="646"/>
      <point x="662" y="563"/>
      <point x="717" y="445"/>
    </contour>
    <contour>
      <point x="609" y="374" type="qcurve"/>
      <point x="609" y="423"/>
      <point x="574" y="509"/>
      <point x="513" y="573"/>
      <point x="428" y="609"/>
      <point x="378" y="609" type="qcurve"/>
      <point x="327" y="609"/>
      <point x="229" y="578"/>
      <point x="151" y="519"/>
      <point x="104" y="433"/>
      <point x="104" y="378" type="qcurve"/>
      <point x="104" y="326"/>
      <point x="136" y="234"/>
      <point x="198" y="166"/>
      <point x="285" y="126"/>
      <point x="341" y="126" type="qcurve"/>
      <point x="401" y="126"/>
      <point x="500" y="157"/>
      <point x="571" y="219"/>
      <point x="609" y="312"/>
    </contour>
    <contour>
      <point x="512" y="334" type="line"/>
      <point x="512" y="301"/>
      <point x="488" y="246"/>
      <point x="446" y="206"/>
      <point x="390" y="184"/>
      <point x="358" y="184" type="qcurve"/>
      <point x="320" y="184"/>
      <point x="258" y="213"/>
      <point x="214" y="262"/>
      <point x="190" y="328"/>
      <point x="190" y="365" type="qcurve"/>
      <point x="190" y="404"/>
      <point x="217" y="473"/>
      <point x="265" y="524"/>
      <point x="332" y="554"/>
      <point x="373" y="554" type="qcurve"/>
      <point x="393" y="554"/>
      <point x="439" y="539"/>
      <point x="478" y="512"/>
      <point x="504" y="473"/>
      <point x="504" y="450" type="qcurve"/>
      <point x="504" y="430"/>
      <point x="478" y="406"/>
      <point x="459" y="406" type="qcurve"/>
      <point x="439" y="406"/>
      <point x="410" y="432"/>
      <point x="410" y="453" type="qcurve"/>
      <point x="410" y="469"/>
      <point x="419" y="483" type="qcurve"/>
      <point x="409" y="495"/>
      <point x="381" y="505"/>
      <point x="367" y="505" type="qcurve"/>
      <point x="342" y="505"/>
      <point x="309" y="478"/>
      <point x="289" y="437"/>
      <point x="281" y="390"/>
      <point x="281" y="371" type="qcurve"/>
      <point x="281" y="348"/>
      <point x="294" y="303"/>
      <point x="320" y="268"/>
      <point x="359" y="247"/>
      <point x="385" y="247" type="qcurve"/>
      <point x="406" y="247"/>
      <point x="443" y="263"/>
      <point x="476" y="288"/>
      <point x="502" y="321"/>
      <point x="512" y="338" type="qcurve"/>
    </contour>
  </outline>
</glyph>
<glyph name="ordfeminine" format="1">
  <advance width="409"/>
  <unicode hex="00AA"/>
  <outline>
    <contour>
      <point x="451" y="409" type="line"/>
      <point x="206" y="393" type="line"/>
      <point x="210" y="431" type="line"/>
      <point x="186" y="428"/>
      <point x="160" y="428" type="qcurve"/>
      <point x="136" y="428"/>
      <point x="77" y="434"/>
      <point x="25" y="455"/>
      <point x="-10" y="492"/>
      <point x="-10" y="524" type="qcurve"/>
      <point x="-10" y="555"/>
      <point x="17" y="596"/>
      <point x="60" y="621"/>
      <point x="113" y="632"/>
      <point x="138" y="632" type="qcurve"/>
      <point x="163" y="632"/>
      <point x="213" y="627"/>
      <point x="238" y="625" type="qcurve"/>
      <point x="239" y="632"/>
      <point x="240" y="645"/>
      <point x="240" y="653" type="qcurve"/>
      <point x="240" y="669"/>
      <point x="235" y="700"/>
      <point x="222" y="725"/>
      <point x="197" y="741"/>
      <point x="178" y="741" type="qcurve"/>
      <point x="167" y="741"/>
      <point x="135" y="739"/>
      <point x="124" y="731" type="qcurve"/>
      <point x="139" y="716"/>
      <point x="139" y="695" type="qcurve"/>
      <point x="139" y="667"/>
      <point x="96" y="636"/>
      <point x="71" y="636" type="qcurve"/>
      <point x="45" y="636"/>
      <point x="8" y="668"/>
      <point x="8" y="694" type="qcurve"/>
      <point x="8" y="726"/>
      <point x="44" y="770"/>
      <point x="96" y="798"/>
      <point x="157" y="810"/>
      <point x="182" y="810" type="qcurve"/>
      <point x="265" y="810"/>
      <point x="356" y="735"/>
      <point x="356" y="648" type="qcurve"/>
      <point x="356" y="639"/>
      <point x="355" y="622"/>
      <point x="354" y="612" type="qcurve"/>
      <point x="340" y="463" type="line"/>
    </contour>
    <contour>
      <point x="228" y="564" type="line"/>
      <point x="214" y="566"/>
      <point x="185" y="569"/>
      <point x="171" y="569" type="qcurve"/>
      <point x="151" y="569"/>
      <point x="118" y="552"/>
      <point x="118" y="529" type="qcurve"/>
      <point x="118" y="515"/>
      <point x="146" y="497"/>
      <point x="160" y="497" type="qcurve"/>
      <point x="174" y="497"/>
      <point x="206" y="500"/>
      <point x="220" y="502" type="qcurve"/>
    </contour>
  </outline>
</glyph>
<glyph name="guillemotleft" format="1">
  <advance width="435"/>
  <unicode hex="00AB"/>
  <outline>
    <contour>
      <point x="425" y="46" type="line"/>
      <point x="391" y="-30" type="line"/>
      <point x="206" y="222" type="line"/>
      <point x="206" y="258" type="line"/>
      <point x="391" y="512" type="line"/>
      <point x="425" y="434" type="line"/>
      <point x="339" y="241" type="line"/>
    </contour>
    <contour>
      <point x="229" y="46" type="line"/>
      <point x="196" y="-30" type="line"/>
      <point x="10" y="222" type="line"/>
      <point x="10" y="258" type="line"/>
      <point x="196" y="512" type="line"/>
      <point x="229" y="434" type="line"/>
      <point x="144" y="241" type="line"/>
    </contour>
  </outline>
</glyph>
<glyph name="logicalnot" format="1">
  <advance width="555"/>
  <unicode hex="00AC"/>
  <outline>
    <contour>
      <point x="350" y="83" type="line"/>
      <point x="445" y="147" type="line"/>
      <point x="409" y="298" type="line"/>
      <point x="80" y="291" type="line"/>
      <point x="20" y="152" type="line"/>
      <point x="22" y="596" type="line"/>
      <point x="80" y="443" type="line"/>
      <point x="462" y="424" type="line"/>
      <point x="543" y="571" type="line"/>
      <point x="516" y="142" type="line"/>
      <point x="616" y="61" type="line"/>
    </contour>
  </outline>
</glyph>
<glyph name="sfthyphen" format="1">
  <advance width="543"/>
  <unicode hex="00AD"/>
  <outline>
    <contour>
      <point x="543" y="419" type="line"/>
      <point x="535" y="282" type="line"/>
      <point x="0" y="265" type="line"/>
      <point x="5" y="446" type="line"/>
    </contour>
  </outline>
</glyph>
<glyph name="registered" format="1">
  <advance width="717"/>
  <unicode hex="00AE"/>
  <outline>
    <contour>
      <point x="717" y="364" type="qcurve"/>
      <point x="717" y="287"/>
      <point x="656" y="166"/>
      <point x="554" y="82"/>
      <point x="421" y="38"/>
      <point x="349" y="38" type="qcurve"/>
      <point x="278" y="38"/>
      <point x="151" y="84"/>
      <point x="56" y="168"/>
      <point x="0" y="288"/>
      <point x="0" y="362" type="qcurve"/>
      <point x="0" y="446"/>
      <point x="59" y="567"/>
      <point x="160" y="645"/>
      <point x="296" y="682"/>
      <point x="373" y="682" type="qcurve"/>
      <point x="443" y="682"/>
      <point x="568" y="637"/>
      <point x="662" y="555"/>
      <point x="717" y="437"/>
    </contour>
    <contour>
      <point x="609" y="366" type="qcurve"/>
      <point x="609" y="415"/>
      <point x="574" y="501"/>
      <point x="513" y="565"/>
      <point x="428" y="601"/>
      <point x="378" y="601" type="qcurve"/>
      <point x="327" y="601"/>
      <point x="229" y="570"/>
      <point x="151" y="510"/>
      <point x="104" y="424"/>
      <point x="104" y="370" type="qcurve"/>
      <point x="104" y="317"/>
      <point x="136" y="225"/>
      <point x="198" y="157"/>
      <point x="285" y="118"/>
      <point x="341" y="118" type="qcurve"/>
      <point x="401" y="118"/>
      <point x="500" y="149"/>
      <point x="571" y="211"/>
      <point x="609" y="304"/>
    </contour>
    <contour>
      <point x="550" y="453" type="qcurve"/>
      <point x="550" y="430"/>
      <point x="522" y="400"/>
      <point x="499" y="400" type="qcurve"/>
      <point x="483" y="400"/>
      <point x="465" y="409"/>
      <point x="451" y="420"/>
      <point x="437" y="429"/>
      <point x="426" y="429" type="qcurve"/>
      <point x="405" y="429"/>
      <point x="381" y="404"/>
      <point x="375" y="386" type="qcurve"/>
      <point x="375" y="385"/>
      <point x="373" y="348"/>
      <point x="372" y="303"/>
      <point x="370" y="262"/>
      <point x="370" y="257" type="qcurve"/>
      <point x="504" y="208" type="line"/>
      <point x="212" y="186" type="line"/>
      <point x="234" y="202"/>
      <point x="277" y="233"/>
      <point x="300" y="248" type="qcurve"/>
      <point x="279" y="440" type="line"/>
      <point x="253" y="448"/>
      <point x="199" y="465"/>
      <point x="173" y="474" type="qcurve"/>
      <point x="224" y="485"/>
      <point x="326" y="512"/>
      <point x="379" y="522" type="qcurve"/>
      <point x="377" y="471" type="line"/>
      <point x="401" y="488"/>
      <point x="450" y="510"/>
      <point x="479" y="510" type="qcurve"/>
      <point x="506" y="510"/>
      <point x="550" y="484"/>
    </contour>
  </outline>
</glyph>
<glyph name="macron" format="1">
  <advance width="722"/>
  <unicode hex="00AF"/>
  <outline>
    <contour>
      <point x="543" y="741" type="line"/>
      <point x="259" y="741" type="line"/>
      <point x="259" y="875" type="line"/>
      <point x="543" y="875" type="line"/>
    </contour>
  </outline>
</glyph>
<glyph name="degree" format="1">
  <advance width="373"/>
  <unicode hex="00B0"/>
  <outline>
    <contour>
      <point x="322" y="560"/>
      <point x="306" y="526"/>
      <point x="282" y="502" type="curve" smooth="yes"/>
      <point x="257" y="477"/>
      <point x="222" y="461"/>
      <point x="186" y="461" type="curve" smooth="yes"/>
      <point x="150" y="461"/>
      <point x="117" y="477"/>
      <point x="92" y="502" type="curve" smooth="yes"/>
      <point x="67" y="526"/>
      <point x="51" y="560"/>
      <point x="51" y="596" type="curve" smooth="yes"/>
      <point x="51" y="632"/>
      <point x="67" y="667"/>
      <point x="92" y="692" type="curve" smooth="yes"/>
      <point x="117" y="716"/>
      <point x="150" y="732"/>
      <point x="186" y="732" type="curve" smooth="yes"/>
      <point x="222" y="732"/>
      <point x="257" y="716"/>
      <point x="282" y="692" type="curve"/>
      <point x="306" y="667"/>
      <point x="322" y="632"/>
      <point x="322" y="596" type="curve" smooth="yes"/>
    </contour>
    <contour>
      <point x="237" y="621"/>
      <point x="214" y="643"/>
      <point x="186" y="643" type="curve" smooth="yes"/>
      <point x="159" y="643"/>
      <point x="137" y="621"/>
      <point x="137" y="594" type="curve" smooth="yes"/>
      <point x="137" y="567"/>
      <point x="163" y="548"/>
      <point x="186" y="548" type="curve" smooth="yes"/>
      <point x="211" y="548"/>
      <point x="237" y="567"/>
      <point x="237" y="594" type="curve" smooth="yes"/>
    </contour>
  </outline>
</glyph>
<glyph name="plusminus" format="1">
  <advance width="622"/>
  <unicode hex="00B1"/>
  <outline>
    <contour>
      <point x="601" y="489" type="line"/>
      <point x="593" y="362" type="line"/>
      <point x="380" y="357" type="line"/>
      <point x="370" y="198" type="line"/>
      <point x="242" y="207" type="line"/>
      <point x="236" y="353" type="line"/>
      <point x="20" y="348" type="line"/>
      <point x="27" y="515" type="line"/>
      <point x="233" y="507" type="line"/>
      <point x="227" y="647" type="line"/>
      <point x="395" y="641" type="line"/>
      <point x="386" y="500" type="line"/>
    </contour>
    <contour>
      <point x="594" y="150" type="line"/>
      <point x="586" y="23" type="line"/>
      <point x="31" y="7" type="line"/>
      <point x="36" y="178" type="line"/>
    </contour>
  </outline>
</glyph>
<glyph name="twosuperior" format="1">
  <advance width="451"/>
  <unicode hex="00B2"/>
  <outline>
    <contour>
      <point x="440" y="658" type="qcurve"/>
      <point x="415" y="376" type="line"/>
      <point x="0" y="393" type="line"/>
      <point x="3" y="422" type="line"/>
      <point x="8" y="470"/>
      <point x="58" y="537"/>
      <point x="126" y="586"/>
      <point x="203" y="624"/>
      <point x="267" y="664"/>
      <point x="310" y="712"/>
      <point x="310" y="746" type="qcurve"/>
      <point x="310" y="775"/>
      <point x="265" y="808"/>
      <point x="238" y="808" type="qcurve"/>
      <point x="194" y="808"/>
      <point x="137" y="756"/>
      <point x="102" y="680"/>
      <point x="83" y="596"/>
      <point x="77" y="564" type="qcurve"/>
      <point x="38" y="926" type="line"/>
      <point x="57" y="907"/>
      <point x="96" y="870"/>
      <point x="113" y="850" type="qcurve"/>
      <point x="171" y="899"/>
      <point x="247" y="899" type="qcurve"/>
      <point x="279" y="899"/>
      <point x="346" y="878"/>
      <point x="400" y="837"/>
      <point x="435" y="780"/>
      <point x="435" y="744" type="qcurve"/>
      <point x="435" y="702"/>
      <point x="406" y="647"/>
      <point x="358" y="608"/>
      <point x="299" y="579"/>
      <point x="240" y="550"/>
      <point x="185" y="513"/>
      <point x="167" y="486" type="qcurve"/>
      <point x="329" y="490" type="line"/>
      <point x="355" y="534"/>
      <point x="411" y="616"/>
    </contour>
  </outline>
</glyph>
<glyph name="threesuperior" format="1">
  <advance width="453"/>
  <unicode hex="00B3"/>
  <outline>
    <contour>
      <point x="442" y="460"/>
      <point x="414" y="419"/>
      <point x="375" y="392" type="curve" smooth="yes"/>
      <point x="335" y="365"/>
      <point x="284" y="351"/>
      <point x="236" y="351" type="curve" smooth="yes"/>
      <point x="185" y="351"/>
      <point x="136" y="369"/>
      <point x="97" y="402" type="curve"/>
      <point x="70" y="371"/>
      <point x="41" y="341"/>
      <point x="10" y="310" type="curve"/>
      <point x="77" y="601" type="line"/>
      <point x="89" y="562" type="line" smooth="yes"/>
      <point x="98" y="533"/>
      <point x="115" y="503"/>
      <point x="139" y="480" type="curve" smooth="yes"/>
      <point x="162" y="457"/>
      <point x="191" y="442"/>
      <point x="223" y="442" type="curve" smooth="yes"/>
      <point x="240" y="442"/>
      <point x="259" y="448"/>
      <point x="273" y="458" type="curve" smooth="yes"/>
      <point x="287" y="468"/>
      <point x="297" y="483"/>
      <point x="297" y="502" type="curve" smooth="yes"/>
      <point x="297" y="526"/>
      <point x="285" y="543"/>
      <point x="268" y="552" type="curve" smooth="yes"/>
      <point x="251" y="561"/>
      <point x="229" y="565"/>
      <point x="209" y="565" type="curve" smooth="yes"/>
      <point x="190" y="565"/>
      <point x="175" y="564"/>
      <point x="158" y="563" type="curve"/>
      <point x="160" y="659" type="line"/>
      <point x="183" y="655"/>
      <point x="206" y="650"/>
      <point x="229" y="650" type="curve" smooth="yes"/>
      <point x="246" y="650"/>
      <point x="266" y="655"/>
      <point x="281" y="665" type="curve" smooth="yes"/>
      <point x="296" y="675"/>
      <point x="306" y="690"/>
      <point x="306" y="711" type="curve" smooth="yes"/>
      <point x="306" y="731"/>
      <point x="296" y="747"/>
      <point x="282" y="759" type="curve"/>
      <point x="268" y="770"/>
      <point x="247" y="777"/>
      <point x="230" y="777" type="curve" smooth="yes"/>
      <point x="198" y="777"/>
      <point x="170" y="761"/>
      <point x="146" y="738" type="curve" smooth="yes"/>
      <point x="122" y="714"/>
      <point x="104" y="685"/>
      <point x="92" y="657" type="curve" smooth="yes"/>
      <point x="78" y="623" type="line"/>
      <point x="17" y="925" type="line"/>
      <point x="48" y="890"/>
      <point x="78" y="857"/>
      <point x="105" y="822" type="curve"/>
      <point x="143" y="853"/>
      <point x="187" y="868"/>
      <point x="236" y="868" type="curve" smooth="yes"/>
      <point x="280" y="868"/>
      <point x="328" y="855"/>
      <point x="365" y="830" type="curve" smooth="yes"/>
      <point x="401" y="805"/>
      <point x="428" y="767"/>
      <point x="428" y="718" type="curve" smooth="yes"/>
      <point x="428" y="679"/>
      <point x="418" y="648"/>
      <point x="391" y="621" type="curve"/>
      <point x="423" y="594"/>
      <point x="442" y="554"/>
      <point x="442" y="513" type="curve" smooth="yes"/>
    </contour>
  </outline>
</glyph>
<glyph name="acute" format="1">
  <advance width="711"/>
  <unicode hex="00B4"/>
  <outline>
    <contour>
      <point x="494" y="941" type="line"/>
      <point x="391" y="752" type="line"/>
      <point x="296" y="793" type="line"/>
      <point x="366" y="999" type="line"/>
    </contour>
  </outline>
</glyph>
<glyph name="mu" format="1">
  <advance width="1024"/>
  <unicode hex="00B5"/>
  <outline>
    <contour>
      <point x="297" y="-269" type="line"/>
      <point x="169" y="-261" type="line"/>
      <point x="158" y="412" type="line"/>
      <point x="117" y="435"/>
      <point x="82" y="455"/>
      <point x="47" y="476" type="curve" smooth="yes"/>
      <point x="29" y="486"/>
      <point x="13" y="495"/>
      <point x="0" y="502" type="curve"/>
      <point x="325" y="504" type="line"/>
      <point x="320" y="456"/>
      <point x="314" y="406"/>
      <point x="308" y="353" type="curve" smooth="yes"/>
      <point x="301" y="300"/>
      <point x="298" y="249"/>
      <point x="298" y="202" type="curve" smooth="yes"/>
      <point x="298" y="118"/>
      <point x="333" y="81"/>
      <point x="417" y="81" type="curve" smooth="yes"/>
      <point x="460" y="81"/>
      <point x="507" y="109"/>
      <point x="532" y="142" type="curve"/>
      <point x="545" y="398" type="line"/>
      <point x="367" y="485" type="line"/>
      <point x="711" y="488" type="line"/>
      <point x="642" y="62" type="line"/>
      <point x="803" y="3" type="line"/>
      <point x="529" y="-48" type="line"/>
      <point x="532" y="42" type="line"/>
      <point x="517" y="23"/>
      <point x="494" y="9"/>
      <point x="468" y="1" type="curve" smooth="yes"/>
      <point x="442" y="-8"/>
      <point x="414" y="-12"/>
      <point x="390" y="-12" type="curve" smooth="yes"/>
      <point x="355" y="-12"/>
      <point x="324" y="-9"/>
      <point x="298" y="-2" type="curve"/>
    </contour>
  </outline>
</glyph>
<glyph name="paragraph" format="1">
  <advance width="801"/>
  <unicode hex="00B6"/>
  <outline>
    <contour>
      <point x="852" y="678" type="qcurve"/>
      <point x="613" y="570" type="line"/>
      <point x="606" y="101" type="line"/>
      <point x="813" y="-6" type="line"/>
      <point x="55" y="-38" type="line"/>
      <point x="305" y="48" type="line"/>
      <point x="308" y="307" type="line"/>
      <point x="287" y="309"/>
      <point x="222" y="321"/>
      <point x="149" y="341"/>
      <point x="76" y="369"/>
      <point x="17" y="407"/>
      <point x="-20" y="455"/>
      <point x="-20" y="484" type="qcurve"/>
      <point x="-20" y="522"/>
      <point x="22" y="577"/>
      <point x="89" y="617"/>
      <point x="173" y="642"/>
      <point x="258" y="657"/>
      <point x="337" y="663"/>
      <point x="364" y="664" type="qcurve"/>
      <point x="535" y="669" type="line"/>
      <point x="614" y="671"/>
      <point x="772" y="676"/>
    </contour>
    <contour>
      <point x="506" y="567" type="line"/>
      <point x="487" y="568"/>
      <point x="451" y="568"/>
      <point x="432" y="569" type="qcurve"/>
      <point x="425" y="383" type="line"/>
      <point x="444" y="383"/>
      <point x="480" y="383"/>
      <point x="500" y="384" type="qcurve"/>
    </contour>
    <contour>
      <point x="312" y="572" type="line"/>
      <point x="296" y="571"/>
      <point x="232" y="561"/>
      <point x="167" y="540"/>
      <point x="118" y="508"/>
      <point x="118" y="484" type="qcurve"/>
      <point x="118" y="459"/>
      <point x="165" y="424"/>
      <point x="228" y="400"/>
      <point x="292" y="388"/>
      <point x="310" y="386" type="qcurve"/>
    </contour>
    <contour>
      <point x="498" y="295" type="line"/>
      <point x="422" y="296" type="line"/>
      <point x="414" y="89" type="line"/>
      <point x="433" y="94"/>
      <point x="471" y="109"/>
      <point x="488" y="117" type="qcurve"/>
    </contour>
  </outline>
</glyph>
<glyph name="periodcentered" format="1">
  <advance width="232"/>
  <unicode hex="00B7"/>
  <outline>
    <contour>
      <point x="223" y="357"/>
      <point x="210" y="337"/>
      <point x="191" y="322" type="curve" smooth="yes"/>
      <point x="171" y="307"/>
      <point x="145" y="300"/>
      <point x="120" y="300" type="curve" smooth="yes"/>
      <point x="96" y="300"/>
      <point x="68" y="307"/>
      <point x="47" y="321" type="curve" smooth="yes"/>
      <point x="26" y="335"/>
      <point x="11" y="355"/>
      <point x="11" y="383" type="curve" smooth="yes"/>
      <point x="11" y="412"/>
      <point x="25" y="435"/>
      <point x="46" y="451" type="curve" smooth="yes"/>
      <point x="66" y="466"/>
      <point x="92" y="474"/>
      <point x="119" y="474" type="curve" smooth="yes"/>
      <point x="143" y="474"/>
      <point x="169" y="465"/>
      <point x="189" y="449" type="curve" smooth="yes"/>
      <point x="209" y="433"/>
      <point x="223" y="410"/>
      <point x="223" y="385" type="curve" smooth="yes"/>
    </contour>
  </outline>
</glyph>
<glyph name="cedilla" format="1">
  <advance width="799"/>
  <unicode hex="00B8"/>
  <outline>
    <contour>
      <point x="519" y="-103"/>
      <point x="507" y="-133"/>
      <point x="485" y="-155" type="curve" smooth="yes"/>
      <point x="463" y="-177"/>
      <point x="431" y="-190"/>
      <point x="395" y="-190" type="curve" smooth="yes"/>
      <point x="342" y="-190"/>
      <point x="315" y="-166"/>
      <point x="280" y="-130" type="curve"/>
      <point x="335" y="-69" type="line"/>
      <point x="350" y="-84"/>
      <point x="372" y="-108"/>
      <point x="393" y="-108" type="curve" smooth="yes"/>
      <point x="420" y="-108"/>
      <point x="435" y="-91"/>
      <point x="435" y="-67" type="curve" smooth="yes"/>
      <point x="435" y="-40"/>
      <point x="418" y="-29"/>
      <point x="395" y="-25" type="curve"/>
      <point x="376" y="-21"/>
      <point x="357" y="-18"/>
      <point x="338" y="-15" type="curve"/>
      <point x="319" y="-13"/>
      <point x="300" y="-10"/>
      <point x="281" y="-7" type="curve"/>
      <point x="370" y="129" type="line"/>
      <point x="440" y="129" type="line"/>
      <point x="433" y="117"/>
      <point x="428" y="104"/>
      <point x="425" y="91" type="curve" smooth="yes"/>
      <point x="422" y="78"/>
      <point x="417" y="65"/>
      <point x="410" y="53" type="curve"/>
      <point x="442" y="53"/>
      <point x="469" y="39"/>
      <point x="489" y="17" type="curve" smooth="yes"/>
      <point x="508" y="-5"/>
      <point x="519" y="-35"/>
      <point x="519" y="-67" type="curve" smooth="yes"/>
    </contour>
  </outline>
</glyph>
<glyph name="onesuperior" format="1">
  <advance width="400"/>
  <unicode hex="00B9"/>
  <outline>
    <contour>
      <point x="390" y="359" type="qcurve"/>
      <point x="45" y="361" type="line"/>
      <point x="77" y="383"/>
      <point x="141" y="426"/>
      <point x="174" y="445" type="qcurve"/>
      <point x="161" y="767" type="line"/>
      <point x="117" y="777"/>
      <point x="33" y="800"/>
      <point x="-10" y="811" type="qcurve"/>
      <point x="69" y="831"/>
      <point x="226" y="871"/>
      <point x="305" y="889" type="qcurve"/>
      <point x="292" y="443" type="line"/>
      <point x="318" y="426"/>
      <point x="367" y="381"/>
    </contour>
  </outline>
</glyph>
<glyph name="ordmasculine" format="1">
  <advance width="460"/>
  <unicode hex="00BA"/>
  <outline>
    <contour>
      <point x="470" y="609" type="qcurve"/>
      <point x="470" y="561"/>
      <point x="422" y="493"/>
      <point x="348" y="450"/>
      <point x="260" y="431"/>
      <point x="220" y="431" type="qcurve"/>
      <point x="180" y="431"/>
      <point x="95" y="451"/>
      <point x="25" y="494"/>
      <point x="-20" y="562"/>
      <point x="-20" y="609" type="qcurve"/>
      <point x="-20" y="660"/>
      <point x="28" y="727"/>
      <point x="102" y="768"/>
      <point x="192" y="784"/>
      <point x="234" y="784" type="qcurve"/>
      <point x="274" y="784"/>
      <point x="357" y="764"/>
      <point x="426" y="721"/>
      <point x="470" y="655"/>
    </contour>
    <contour>
      <point x="342" y="610" type="qcurve"/>
      <point x="342" y="656"/>
      <point x="279" y="713"/>
      <point x="234" y="713" type="qcurve"/>
      <point x="212" y="713"/>
      <point x="167" y="700"/>
      <point x="130" y="675"/>
      <point x="106" y="636"/>
      <point x="106" y="611" type="qcurve"/>
      <point x="106" y="563"/>
      <point x="168" y="502"/>
      <point x="217" y="502" type="qcurve"/>
      <point x="244" y="502"/>
      <point x="289" y="514"/>
      <point x="323" y="540"/>
      <point x="342" y="581"/>
    </contour>
  </outline>
</glyph>
<glyph name="guillemotright" format="1">
  <advance width="425"/>
  <unicode hex="00BB"/>
  <outline>
    <contour>
      <point x="425" y="222" type="line"/>
      <point x="240" y="-30" type="line"/>
      <point x="206" y="46" type="line"/>
      <point x="292" y="241" type="line"/>
      <point x="206" y="434" type="line"/>
      <point x="240" y="512" type="line"/>
      <point x="425" y="258" type="line"/>
    </contour>
    <contour>
      <point x="229" y="222" type="line"/>
      <point x="44" y="-30" type="line"/>
      <point x="10" y="46" type="line"/>
      <point x="96" y="241" type="line"/>
      <point x="10" y="434" type="line"/>
      <point x="44" y="512" type="line"/>
      <point x="229" y="258" type="line"/>
    </contour>
  </outline>
</glyph>
<glyph name="onequarter" format="1">
  <advance width="941"/>
  <unicode hex="00BC"/>
  <outline>
    <contour>
      <point x="941" y="-86" type="line"/>
      <point x="502" y="-89" type="line"/>
      <point x="699" y="-11" type="line"/>
      <point x="696" y="69" type="line"/>
      <point x="445" y="65" type="line"/>
      <point x="823" y="512" type="line"/>
      <point x="814" y="145" type="line"/>
      <point x="825" y="145" type="line"/>
      <point x="903" y="287" type="line"/>
      <point x="892" y="-27" type="line"/>
      <point x="829" y="71" type="line"/>
      <point x="811" y="71" type="line"/>
      <point x="808" y="-13" type="line"/>
    </contour>
    <contour>
      <point x="853" y="829" type="line"/>
      <point x="249" y="-139" type="line"/>
      <point x="159" y="-86" type="line"/>
      <point x="729" y="885" type="line"/>
      <point x="740" y="905" type="line"/>
    </contour>
    <contour>
      <point x="390" y="359" type="qcurve"/>
      <point x="45" y="361" type="line"/>
      <point x="77" y="383"/>
      <point x="141" y="426"/>
      <point x="174" y="445" type="qcurve"/>
      <point x="161" y="767" type="line"/>
      <point x="117" y="777"/>
      <point x="33" y="800"/>
      <point x="-10" y="811" type="qcurve"/>
      <point x="69" y="831"/>
      <point x="226" y="871"/>
      <point x="305" y="889" type="qcurve"/>
      <point x="292" y="443" type="line"/>
      <point x="318" y="426"/>
      <point x="367" y="381"/>
    </contour>
    <contour>
      <point x="693" y="143" type="line"/>
      <point x="692" y="218" type="line"/>
      <point x="676" y="200"/>
      <point x="645" y="161"/>
      <point x="628" y="142" type="qcurve"/>
    </contour>
  </outline>
</glyph>
<glyph name="onehalf" format="1">
  <advance width="1032"/>
  <unicode hex="00BD"/>
  <outline>
    <contour>
      <point x="997" y="-143" type="line"/>
      <point x="583" y="-127" type="line"/>
      <point x="586" y="-97" type="line" smooth="yes"/>
      <point x="593" y="-33"/>
      <point x="629" y="10"/>
      <point x="675" y="43" type="curve" smooth="yes"/>
      <point x="698" y="59"/>
      <point x="722" y="73"/>
      <point x="747" y="86" type="curve" smooth="yes"/>
      <point x="798" y="111"/>
      <point x="843" y="137"/>
      <point x="872" y="169" type="curve" smooth="yes"/>
      <point x="886" y="184"/>
      <point x="893" y="203"/>
      <point x="893" y="226" type="curve" smooth="yes"/>
      <point x="893" y="266"/>
      <point x="856" y="288"/>
      <point x="820" y="288" type="curve" smooth="yes"/>
      <point x="761" y="288"/>
      <point x="726" y="249"/>
      <point x="702" y="199" type="curve" smooth="yes"/>
      <point x="678" y="149"/>
      <point x="667" y="88"/>
      <point x="658" y="45" type="curve"/>
      <point x="621" y="407" type="line"/>
      <point x="634" y="394"/>
      <point x="646" y="382"/>
      <point x="659" y="370" type="curve"/>
      <point x="672" y="357"/>
      <point x="684" y="344"/>
      <point x="695" y="331" type="curve"/>
      <point x="734" y="362"/>
      <point x="780" y="380"/>
      <point x="828" y="380" type="curve" smooth="yes"/>
      <point x="871" y="380"/>
      <point x="919" y="366"/>
      <point x="956" y="339" type="curve" smooth="yes"/>
      <point x="992" y="311"/>
      <point x="1018" y="273"/>
      <point x="1018" y="225" type="curve" smooth="yes"/>
      <point x="1018" y="169"/>
      <point x="996" y="134"/>
      <point x="965" y="108" type="curve" smooth="yes"/>
      <point x="949" y="95"/>
      <point x="931" y="83"/>
      <point x="912" y="74" type="curve" smooth="yes"/>
      <point x="872" y="55"/>
      <point x="831" y="36"/>
      <point x="795" y="12" type="curve" smooth="yes"/>
      <point x="777" y="0"/>
      <point x="762" y="-15"/>
      <point x="750" y="-34" type="curve"/>
      <point x="911" y="-29" type="line"/>
      <point x="928" y="0"/>
      <point x="947" y="29"/>
      <point x="966" y="56" type="curve" smooth="yes"/>
      <point x="985" y="83"/>
      <point x="1004" y="111"/>
      <point x="1023" y="139" type="curve"/>
    </contour>
    <contour>
      <point x="853" y="829" type="line"/>
      <point x="249" y="-139" type="line"/>
      <point x="159" y="-86" type="line"/>
      <point x="729" y="885" type="line"/>
      <point x="740" y="905" type="line"/>
    </contour>
    <contour>
      <point x="45" y="361" type="line"/>
      <point x="88" y="390"/>
      <point x="130" y="420"/>
      <point x="174" y="445" type="curve"/>
      <point x="161" y="767" type="line"/>
      <point x="132" y="774"/>
      <point x="103" y="781"/>
      <point x="75" y="789" type="curve" smooth="yes"/>
      <point x="47" y="796"/>
      <point x="19" y="804"/>
      <point x="-10" y="811" type="curve"/>
      <point x="43" y="824"/>
      <point x="95" y="838"/>
      <point x="148" y="851" type="curve" smooth="yes"/>
      <point x="200" y="864"/>
      <point x="252" y="877"/>
      <point x="305" y="889" type="curve"/>
      <point x="292" y="443" type="line"/>
      <point x="327" y="420"/>
      <point x="359" y="388"/>
      <point x="390" y="359" type="curve"/>
    </contour>
  </outline>
</glyph>
<glyph name="threequarters" format="1">
  <advance width="959"/>
  <unicode hex="00BE"/>
  <outline>
    <contour>
      <point x="959" y="-86" type="line"/>
      <point x="520" y="-89" type="line"/>
      <point x="718" y="-11" type="line"/>
      <point x="715" y="69" type="line"/>
      <point x="464" y="65" type="line"/>
      <point x="842" y="512" type="line"/>
      <point x="833" y="145" type="line"/>
      <point x="844" y="145" type="line"/>
      <point x="922" y="287" type="line"/>
      <point x="910" y="-27" type="line"/>
      <point x="848" y="71" type="line"/>
      <point x="829" y="71" type="line"/>
      <point x="826" y="-13" type="line"/>
    </contour>
    <contour>
      <point x="871" y="829" type="line"/>
      <point x="267" y="-139" type="line"/>
      <point x="177" y="-86" type="line"/>
      <point x="748" y="885" type="line"/>
      <point x="759" y="905" type="line"/>
    </contour>
    <contour>
      <point x="442" y="460"/>
      <point x="414" y="419"/>
      <point x="375" y="392" type="curve" smooth="yes"/>
      <point x="335" y="365"/>
      <point x="284" y="351"/>
      <point x="236" y="351" type="curve" smooth="yes"/>
      <point x="185" y="351"/>
      <point x="136" y="369"/>
      <point x="97" y="402" type="curve"/>
      <point x="70" y="371"/>
      <point x="41" y="341"/>
      <point x="10" y="310" type="curve"/>
      <point x="77" y="601" type="line"/>
      <point x="89" y="562" type="line" smooth="yes"/>
      <point x="98" y="533"/>
      <point x="115" y="503"/>
      <point x="139" y="480" type="curve" smooth="yes"/>
      <point x="162" y="457"/>
      <point x="191" y="442"/>
      <point x="223" y="442" type="curve" smooth="yes"/>
      <point x="240" y="442"/>
      <point x="259" y="448"/>
      <point x="273" y="458" type="curve" smooth="yes"/>
      <point x="287" y="468"/>
      <point x="297" y="483"/>
      <point x="297" y="502" type="curve" smooth="yes"/>
      <point x="297" y="526"/>
      <point x="285" y="543"/>
      <point x="268" y="552" type="curve" smooth="yes"/>
      <point x="251" y="561"/>
      <point x="229" y="565"/>
      <point x="209" y="565" type="curve" smooth="yes"/>
      <point x="190" y="565"/>
      <point x="175" y="564"/>
      <point x="158" y="563" type="curve"/>
      <point x="160" y="659" type="line"/>
      <point x="183" y="655"/>
      <point x="206" y="650"/>
      <point x="229" y="650" type="curve" smooth="yes"/>
      <point x="246" y="650"/>
      <point x="266" y="655"/>
      <point x="281" y="665" type="curve" smooth="yes"/>
      <point x="296" y="675"/>
      <point x="306" y="690"/>
      <point x="306" y="711" type="curve" smooth="yes"/>
      <point x="306" y="731"/>
      <point x="296" y="747"/>
      <point x="282" y="759" type="curve"/>
      <point x="268" y="770"/>
      <point x="247" y="777"/>
      <point x="230" y="777" type="curve" smooth="yes"/>
      <point x="198" y="777"/>
      <point x="170" y="761"/>
      <point x="146" y="738" type="curve" smooth="yes"/>
      <point x="122" y="714"/>
      <point x="104" y="685"/>
      <point x="92" y="657" type="curve" smooth="yes"/>
      <point x="78" y="623" type="line"/>
      <point x="17" y="925" type="line"/>
      <point x="48" y="890"/>
      <point x="78" y="857"/>
      <point x="105" y="822" type="curve"/>
      <point x="143" y="853"/>
      <point x="187" y="868"/>
      <point x="236" y="868" type="curve" smooth="yes"/>
      <point x="280" y="868"/>
      <point x="328" y="855"/>
      <point x="365" y="830" type="curve" smooth="yes"/>
      <point x="401" y="805"/>
      <point x="428" y="767"/>
      <point x="428" y="718" type="curve" smooth="yes"/>
      <point x="428" y="679"/>
      <point x="419" y="648"/>
      <point x="391" y="621" type="curve"/>
      <point x="423" y="594"/>
      <point x="442" y="554"/>
      <point x="442" y="513" type="curve" smooth="yes"/>
    </contour>
    <contour>
      <point x="712" y="143" type="line"/>
      <point x="711" y="218" type="line"/>
      <point x="700" y="206"/>
      <point x="689" y="194"/>
      <point x="679" y="181" type="curve"/>
      <point x="668" y="168"/>
      <point x="657" y="155"/>
      <point x="646" y="142" type="curve"/>
    </contour>
  </outline>
</glyph>
<glyph name="questiondown" format="1">
  <advance width="582"/>
  <unicode hex="00BF"/>
  <outline>
    <contour>
      <point x="572" y="501" type="qcurve"/>
      <point x="572" y="480"/>
      <point x="554" y="449"/>
      <point x="525" y="429"/>
      <point x="489" y="419"/>
      <point x="471" y="419" type="qcurve"/>
      <point x="450" y="419"/>
      <point x="406" y="430"/>
      <point x="370" y="453"/>
      <point x="346" y="488"/>
      <point x="346" y="512" type="qcurve"/>
      <point x="346" y="532"/>
      <point x="364" y="562"/>
      <point x="393" y="581"/>
      <point x="428" y="591"/>
      <point x="446" y="591" type="qcurve"/>
      <point x="465" y="591"/>
      <point x="509" y="579"/>
      <point x="547" y="557"/>
      <point x="572" y="523"/>
    </contour>
    <contour>
      <point x="592" y="1" type="qcurve"/>
      <point x="518" y="-338" type="line"/>
      <point x="459" y="-237" type="line"/>
      <point x="425" y="-245"/>
      <point x="353" y="-249"/>
      <point x="318" y="-249" type="qcurve"/>
      <point x="262" y="-249"/>
      <point x="145" y="-220"/>
      <point x="50" y="-159"/>
      <point x="-10" y="-63"/>
      <point x="-10" y="4" type="qcurve"/>
      <point x="-10" y="63"/>
      <point x="36" y="149"/>
      <point x="112" y="204"/>
      <point x="211" y="231"/>
      <point x="264" y="231" type="qcurve"/>
      <point x="271" y="231"/>
      <point x="284" y="231"/>
      <point x="291" y="230" type="qcurve"/>
      <point x="356" y="384" type="line"/>
      <point x="478" y="352" type="line"/>
      <point x="445" y="110" type="line"/>
      <point x="413" y="122"/>
      <point x="355" y="141"/>
      <point x="321" y="141" type="qcurve"/>
      <point x="288" y="141"/>
      <point x="228" y="120"/>
      <point x="182" y="81"/>
      <point x="154" y="25"/>
      <point x="154" y="-9" type="qcurve"/>
      <point x="154" y="-48"/>
      <point x="194" y="-109"/>
      <point x="256" y="-151"/>
      <point x="331" y="-173"/>
      <point x="365" y="-173" type="qcurve"/>
      <point x="411" y="-173"/>
      <point x="476" y="-144"/>
      <point x="526" y="-95"/>
      <point x="569" y="-32"/>
    </contour>
  </outline>
</glyph>
<glyph name="Aacute" format="1">
  <advance width="807"/>
  <unicode hex="00C1"/>
  <outline>
    <contour>
      <point x="1012" y="-98" type="line"/>
      <point x="478" y="-231" type="line"/>
      <point x="616" y="-87" type="line"/>
      <point x="581" y="-6"/>
      <point x="546" y="76"/>
      <point x="509" y="157" type="curve"/>
      <point x="461" y="154"/>
      <point x="413" y="152"/>
      <point x="366" y="152" type="curve" smooth="yes"/>
      <point x="318" y="151"/>
      <point x="270" y="149"/>
      <point x="222" y="146" type="curve"/>
      <point x="213" y="129"/>
      <point x="204" y="112"/>
      <point x="195" y="95" type="curve" smooth="yes"/>
      <point x="186" y="78"/>
      <point x="176" y="60"/>
      <point x="167" y="43" type="curve"/>
      <point x="349" y="-76" type="line"/>
      <point x="-164" y="-42" type="line"/>
      <point x="82" y="62" type="line"/>
      <point x="337" y="549" type="line"/>
      <point x="68" y="686" type="line"/>
      <point x="452" y="670" type="line"/>
      <point x="798" y="-35" type="line"/>
    </contour>
    <contour>
      <point x="473" y="244" type="line"/>
      <point x="458" y="277"/>
      <point x="442" y="310"/>
      <point x="426" y="343" type="curve" smooth="yes"/>
      <point x="410" y="376"/>
      <point x="394" y="409"/>
      <point x="379" y="442" type="curve"/>
      <point x="362" y="410"/>
      <point x="345" y="379"/>
      <point x="328" y="348" type="curve" smooth="yes"/>
      <point x="311" y="317"/>
      <point x="293" y="285"/>
      <point x="276" y="253" type="curve"/>
    </contour>
    <contour>
      <point x="525" y="961" type="line"/>
      <point x="422" y="772" type="line"/>
      <point x="327" y="813" type="line"/>
      <point x="397" y="1019" type="line"/>
    </contour>
  </outline>
</glyph>
<glyph name="Adieresis" format="1">
  <advance width="807"/>
  <unicode hex="00C4"/>
  <outline>
    <contour>
      <point x="1012" y="-98" type="line"/>
      <point x="478" y="-231" type="line"/>
      <point x="616" y="-87" type="line"/>
      <point x="581" y="-6"/>
      <point x="546" y="76"/>
      <point x="509" y="157" type="curve"/>
      <point x="461" y="154"/>
      <point x="413" y="152"/>
      <point x="366" y="152" type="curve" smooth="yes"/>
      <point x="318" y="151"/>
      <point x="270" y="149"/>
      <point x="222" y="146" type="curve"/>
      <point x="213" y="129"/>
      <point x="204" y="112"/>
      <point x="195" y="95" type="curve" smooth="yes"/>
      <point x="186" y="78"/>
      <point x="176" y="60"/>
      <point x="167" y="43" type="curve"/>
      <point x="349" y="-76" type="line"/>
      <point x="-164" y="-42" type="line"/>
      <point x="82" y="62" type="line"/>
      <point x="337" y="549" type="line"/>
      <point x="68" y="686" type="line"/>
      <point x="452" y="670" type="line"/>
      <point x="798" y="-35" type="line"/>
    </contour>
    <contour>
      <point x="473" y="244" type="line"/>
      <point x="458" y="277"/>
      <point x="442" y="310"/>
      <point x="426" y="343" type="curve" smooth="yes"/>
      <point x="410" y="376"/>
      <point x="394" y="409"/>
      <point x="379" y="442" type="curve"/>
      <point x="362" y="410"/>
      <point x="345" y="379"/>
      <point x="328" y="348" type="curve" smooth="yes"/>
      <point x="311" y="317"/>
      <point x="293" y="285"/>
      <point x="276" y="253" type="curve"/>
    </contour>
    <contour>
      <point x="558" y="790"/>
      <point x="530" y="760"/>
      <point x="495" y="760" type="curve" smooth="yes"/>
      <point x="460" y="760"/>
      <point x="432" y="790"/>
      <point x="432" y="825" type="curve" smooth="yes"/>
      <point x="432" y="860"/>
      <point x="460" y="886"/>
      <point x="495" y="886" type="curve" smooth="yes"/>
      <point x="530" y="886"/>
      <point x="558" y="860"/>
      <point x="558" y="825" type="curve" smooth="yes"/>
    </contour>
    <contour>
      <point x="376" y="790"/>
      <point x="348" y="760"/>
      <point x="313" y="760" type="curve" smooth="yes"/>
      <point x="277" y="760"/>
      <point x="250" y="790"/>
      <point x="250" y="825" type="curve" smooth="yes"/>
      <point x="250" y="860"/>
      <point x="277" y="886"/>
      <point x="313" y="886" type="curve" smooth="yes"/>
      <point x="348" y="886"/>
      <point x="376" y="860"/>
      <point x="376" y="825" type="curve" smooth="yes"/>
    </contour>
  </outline>
</glyph>
